<?xml version="1.0" standalone="no"?>
<!DOCTYPE svg PUBLIC "-//W3C//DTD SVG 1.1//EN" "http://www.w3.org/Graphics/SVG/1.1/DTD/svg11.dtd" >
<svg xmlns="http://www.w3.org/2000/svg" xmlns:xlink="http://www.w3.org/1999/xlink" version="1.1">
<metadata>
Created by FontForge 20190801 at Tue May 16 12:37:27 2000
 By www-data
Copyright (c) 2000 Adobe Systems Incorporated. All Rights Reserved.
</metadata>
<defs>
<font id="TektonProBold" horiz-adv-x="346" >
  <font-face 
    font-family="TektonProBold"
    font-weight="700"
    font-stretch="normal"
    units-per-em="1000"
    panose-1="2 15 6 3 2 2 8 2 9 4"
    ascent="680"
    descent="-320"
    x-height="439"
    cap-height="645"
    bbox="-119 -309 960 904"
    underline-thickness="50"
    underline-position="-100"
    unicode-range="U+0020-FB04"
  />
<missing-glyph horiz-adv-x="500" 
d="M0 0v700h500v-700h-500zM250 395l170 255h-340zM280 350l170 -255v510zM80 50h340l-170 255zM50 605v-510l170 255z" />
    <glyph glyph-name="f_f_j" unicode="ffj" horiz-adv-x="759" 
d="M104 289l-52 -6q-13 -8 -21 -8q-30 0 -30 50q0 16 8.5 27.5t21.5 11.5q10 0 23 -5l50 7v22q0 138 30 200.5t112 62.5q40 0 70 -18.5t30 -41.5q0 -21 -12 -38.5t-30 -17.5q-14 0 -23.5 7t-8.5 16q-9 15 -30 15q-24 0 -34.5 -37t-10.5 -135v-21l160 23q1 140 34.5 202.5
t113.5 62.5q89 0 144 -38.5t55 -75.5q0 -15 -14 -32t-43 -17q-18 0 -33.5 9t-15.5 30q0 6 6 11q-23 35 -94 35q-30 0 -44.5 -39.5t-14.5 -133.5l158 23q2 0 20 7.5t31 7.5q22 0 38 -12.5t16 -31.5q0 -18 -10 -33v-467q0 -77 -43.5 -118t-110.5 -41q-60 0 -97.5 36t-37.5 63
q0 24 13 41.5t38 17.5q17 0 30.5 -12.5t8.5 -37.5q15 -28 46 -28q60 0 60 100v433l-160 -24v-278q9 -11 9 -29q0 -39 -58 -39q-23 0 -37.5 10t-14.5 27q0 5 3.5 13t3.5 11v271l-160 -23v-243q9 -16 9 -28q0 -38 -53 -38q-55 0 -55 41q0 7 6 19v234z" />
    <glyph glyph-name="f_j" unicode="fj" horiz-adv-x="504" 
d="M448 378v-472q0 -77 -43.5 -118t-110.5 -41q-60 0 -97.5 36t-37.5 63q0 24 13 41.5t37 17.5q18 0 31.5 -12t8.5 -38q15 -28 46 -28q60 0 60 101v437l-160 -26v-276q9 -11 9 -29q0 -39 -58 -39q-23 0 -37.5 10t-14.5 27q0 5 3.5 13t3.5 11v269l-46 -7q-13 -8 -21 -8
q-30 0 -30 50q0 16 8.5 27.5t21.5 11.5q10 0 23 -5l44 7q0 141 34 204t114 63q89 0 144 -38.5t55 -75.5q0 -15 -13.5 -32t-43.5 -17q-18 0 -33.5 9t-15.5 30q0 6 7 11q-25 35 -95 35q-31 0 -45 -39.5t-14 -135.5l158 25q4 1 21 8t30 7q22 0 38 -12.5t16 -31.5q0 -13 -10 -33
z" />
    <glyph glyph-name="t_t" unicode="tt" horiz-adv-x="790" 
d="M540 375v-270q0 -28 17 -28t63.5 30t74.5 65q-1 17 9.5 28t28.5 11q51 0 51 -48q0 -20 -45.5 -62.5t-108.5 -78t-105 -35.5q-36 0 -57 23.5t-21 60.5v289l-227 -36v-219q0 -28 17 -28q14 0 36 9t31 20q-1 17 9.5 28.5t28.5 11.5q51 0 51 -48q0 -29 -66.5 -70t-121.5 -41
q-36 0 -57 23.5t-21 60.5v237l-65 -10q-8 -8 -20 -9q-40 2 -40 47q0 19 11.5 31t28.5 12q11 0 17 -6l68 12v123q-6 8 -6 25q0 35 63 35q45 0 45 -30q0 -13 -9 -25v-113l227 36v72q-6 8 -6 25q0 34 63 36q45 0 45 -31q0 -14 -9 -24v-62l125 20q8 8 19 8q18 0 27.5 -12
t9.5 -28q0 -48 -34 -48q-13 0 -17 5z" />
    <glyph glyph-name="ff" unicode="ff" horiz-adv-x="598" 
d="M104 296l-51 -6q-8 -7 -21 -7q-31 0 -31 49q0 14 8 27.5t20 13.5q9 0 23 -4l52 6v13q0 138 30 200.5t112 62.5q40 0 70 -18.5t30 -41.5q0 -21 -12 -38.5t-30 -17.5q-14 0 -23.5 7t-8.5 16q-9 15 -30 15q-24 0 -34.5 -37t-10.5 -135v-14l160 19q1 138 31 200t111 62
q41 0 83.5 -29t42.5 -55q0 -17 -11.5 -32.5t-30.5 -15.5q-17 0 -28 10t-10 22q-13 22 -50 22q-24 0 -34.5 -37t-10.5 -133l111 14q2 1 9.5 6t13.5 5q18 0 29 -12t11 -29q0 -51 -32 -51q-14 0 -21 5l-121 -16v-281q9 -16 9 -28q0 -38 -53 -38q-55 0 -55 41q0 7 6 19v272
l-160 -19v-247q9 -16 9 -28q0 -38 -53 -38q-55 0 -55 41q0 7 6 19v241z" />
    <glyph glyph-name="fi" unicode="fi" horiz-adv-x="509" 
d="M355 365l-160 -26v-276q9 -11 9 -29q0 -39 -58 -39q-23 0 -37.5 10t-14.5 27q0 5 3.5 13t3.5 11v269l-46 -7q-13 -8 -21 -8q-30 0 -30 50q0 16 8.5 27.5t21.5 11.5q10 0 23 -5l44 7q0 141 34 204t114 63q89 0 144 -38.5t55 -75.5q0 -15 -13.5 -32t-43.5 -17
q-18 0 -33.5 9t-15.5 30q0 6 7 11q-25 35 -95 35q-31 0 -45 -39.5t-14 -135.5l158 25q4 1 21 8t30 7q22 0 38 -12.5t16 -31.5q0 -14 -9 -32v-307q1 -2 5 -7t6 -10t2 -9q0 -25 -21 -38t-46 -13q-21 0 -37 13t-16 37q0 7 13 33v287z" />
    <glyph glyph-name="fl" unicode="fl" horiz-adv-x="509" 
d="M355 366l-160 -24v-278q11 -18 11 -29q0 -40 -62 -40q-21 0 -35.5 11t-14.5 30q0 6 7 22v271l-45 -7q-14 -7 -24 -7q-28 0 -28 45q0 20 9.5 31t21.5 11q11 0 23 -4l43 6q0 142 35.5 203t124.5 61q56 0 108 -26q16 6 37 2q22 1 40 -12t18 -34q0 -24 -15 -44v-485
q14 -9 14 -30q0 -13 -16 -28.5t-43 -15.5t-42 13t-15 36q0 5 8 26v296zM195 418l160 24v110q-1 1 -2 3t-2 3.5t-2.5 3l-2.5 2.5q-28 26 -81 26q-38 0 -54 -37.5t-16 -134.5z" />
    <glyph glyph-name="ffi" unicode="ffi" horiz-adv-x="765" 
d="M103 289l-51 -6q-13 -8 -21 -8q-30 0 -30 50q0 16 8.5 27.5t21.5 11.5q10 0 23 -5l49 7v22q0 137 30.5 200t112.5 63q40 0 70 -18.5t30 -41.5q0 -21 -12 -38.5t-30 -17.5q-14 0 -23.5 7t-8.5 16q-9 15 -30 15q-24 0 -34.5 -37t-10.5 -135v-21l160 23q1 140 34.5 202.5
t113.5 62.5q89 0 144 -38.5t55 -75.5q0 -15 -14 -32t-43 -17q-18 0 -33.5 9t-15.5 30q0 6 6 11q-23 35 -94 35q-30 0 -44.5 -39.5t-14.5 -133.5l158 23q2 0 20 7.5t31 7.5q22 0 38 -12.5t16 -31.5q0 -14 -9 -32v-307q1 -2 5 -7t6 -10t2 -9q0 -25 -21 -38t-46 -13
q-21 0 -37 13t-16 37q0 7 13 33v287l-160 -24v-278q9 -11 9 -29q0 -39 -58 -39q-23 0 -37.5 10t-14.5 27q0 5 3.5 13t3.5 11v271l-160 -23v-243q9 -16 9 -28q0 -38 -53 -38q-55 0 -55 41q0 3 2.5 9.5t2.5 9.5v234z" />
    <glyph glyph-name="ffl" unicode="ffl" horiz-adv-x="765" 
d="M103 290l-51 -7q-13 -8 -21 -8q-30 0 -30 50q0 16 8.5 27.5t21.5 11.5q10 0 23 -5l49 7v22q0 137 30.5 200t112.5 63q40 0 70 -18.5t30 -41.5q0 -21 -12 -38.5t-30 -17.5q-14 0 -23.5 7t-8.5 16q-9 15 -30 15q-24 0 -34.5 -37t-10.5 -134v-22l160 24q0 142 35.5 203
t124.5 61q56 0 108 -26q16 6 37 2q22 1 40 -12t18 -34q0 -24 -15 -44v-485q14 -9 14 -30q0 -13 -16 -28.5t-43 -15.5t-42 13t-15 36q0 5 8 26v296l-160 -24v-278q11 -18 11 -29q0 -40 -62 -40q-21 0 -35.5 11t-14.5 30q0 6 7 22v270l-160 -24v-243q9 -14 9 -28
q0 -38 -53 -38q-55 0 -55 41q0 3 2.5 9.5t2.5 10.5v234zM611 442v110q-1 1 -2 3t-2 3.5t-2.5 3l-2.5 2.5q-28 26 -81 26q-39 0 -54.5 -37.5t-15.5 -134.5z" />
    <glyph glyph-name=".notdef" horiz-adv-x="500" 
d="M0 0v700h500v-700h-500zM250 395l170 255h-340zM280 350l170 -255v510zM80 50h340l-170 255zM50 605v-510l170 255z" />
    <glyph glyph-name=".null" horiz-adv-x="0" 
 />
    <glyph glyph-name="nonmarkingreturn" horiz-adv-x="333" 
 />
    <glyph glyph-name="space" unicode=" " horiz-adv-x="182" 
 />
    <glyph glyph-name="space" unicode="&#xa0;" horiz-adv-x="182" 
 />
    <glyph glyph-name="exclam" unicode="!" horiz-adv-x="233" 
d="M164 593v-340q10 -10 10 -42q0 -17 -23 -31t-50 -14q-22 0 -33 16t-11 34q0 22 12 36v337q-14 20 -14 37q0 26 16 37.5t61 11.5q24 0 34.5 -10t10.5 -34q0 -20 -13 -38zM101 -8h-1q-16 0 -28.5 15t-12.5 33q0 29 20.5 53.5t46.5 24.5q22 0 32 -13.5t10 -46.5
q0 -34 -14.5 -50t-52.5 -16z" />
    <glyph glyph-name="quotedbl" unicode="&#x22;" horiz-adv-x="345" 
d="M128 595v-95q6 -15 6 -38q0 -19 -13.5 -32t-42.5 -13q-20 0 -30 6t-10 25q0 20 18 42v101q-14 22 -14 29q0 23 14.5 37.5t43.5 14.5q21 0 32 -13.5t11 -26.5q0 -25 -15 -37zM293 595v-95q6 -15 6 -38q0 -19 -13.5 -32t-42.5 -13q-20 0 -30 6t-10 25q0 20 18 42v101
q-14 22 -14 29q0 23 14.5 37.5t43.5 14.5q20 0 31.5 -13.5t11.5 -26.5q0 -25 -15 -37z" />
    <glyph glyph-name="numbersign" unicode="#" horiz-adv-x="641" 
d="M418 490l29 111q-10 22 3 41t46 19q27 0 38.5 -13.5t11.5 -29.5q0 -10 -6.5 -20t-14.5 -12l-24 -96h55q12 4 24 4q16 0 27 -12t11 -31q0 -53 -36 -53q-19 0 -25 11h-75l-40 -151h63q15 5 24 5q16 0 27.5 -12.5t10.5 -32.5q1 -52 -35 -52q-18 0 -26 11h-84l-31 -125
q7 -16 7 -30q0 -15 -16 -26t-39 -11q-55 0 -55 46q0 28 23 36l28 110h-100l-32 -125q7 -12 7 -30q0 -15 -16 -26t-39 -11q-24 0 -39 11t-15 32q0 14 7.5 25t15.5 14l29 110h-60q-14 -10 -34 -10q-16 0 -26.5 14.5t-10.5 31.5q-1 26 10 41.5t29 15.5q21 0 31 -12h81l40 151
h-70q-12 -10 -34 -10q-16 0 -26.5 15t-9.5 32q0 25 10.5 40.5t27.5 15.5q21 0 32 -12h89l28 111q-10 22 3 41t46 19q27 0 38.5 -13.5t11.5 -29.5q0 -10 -6.5 -20t-14.5 -12l-24 -96h100zM398 409h-99l-39 -151h98z" />
    <glyph glyph-name="dollar" unicode="$" horiz-adv-x="656" 
d="M297 37v-66q10 -20 10 -29q0 -19 -14.5 -34.5t-31.5 -15.5q-19 0 -33.5 11.5t-14.5 31.5q0 7 5 17.5t5 11.5v66q-88 3 -139.5 42t-51.5 85q0 17 14 28.5t31 11.5q30 0 35 -29q3 -24 37 -42.5t74 -20.5v201q-42 -19 -84 -19q-34 0 -68 28.5t-34 85.5q0 84 61 143t125 72
v41q0 2 -3 11t-3 14q0 16 10.5 26.5t30.5 10.5q22 0 34 -9.5t12 -22.5q0 -9 -7 -23v-39q58 0 99.5 -15t57 -31.5t15.5 -30.5q0 -26 -13.5 -39t-31.5 -13q-7 0 -12.5 1t-8.5 2.5t-6.5 5t-4.5 5t-4 7t-4 7.5q-19 27 -87 26v-136q33 13 69 13q19 0 36.5 -5t38.5 -19t34 -47
t13 -80q0 -93 -62 -158.5t-129 -80.5zM223 388v151q-38 -7 -67.5 -41.5t-29.5 -84.5q0 -22 10.5 -33t23.5 -11q27 0 63 19zM297 334v-219q41 13 71.5 57t30.5 92q0 83 -51 83q-29 0 -51 -13z" />
    <glyph glyph-name="percent" unicode="%" horiz-adv-x="612" 
d="M500 611v-1q0 -9 -7.5 -18.5t-18.5 -13.5l-281 -537q-1 -25 -16 -37.5t-37 -12.5q-24 0 -35.5 9t-11.5 32q0 6 4 12t10.5 12.5t8.5 10.5l287 545q0 20 12 32.5t27 12.5q19 0 38.5 -12.5t19.5 -33.5zM186 656h1q46 0 75.5 -26t29.5 -75q0 -59 -51 -107t-107 -48
q-44 0 -75 27t-31 78q0 60 50.5 105.5t107.5 45.5zM180 588h-1q-25 0 -45 -24t-20 -54q0 -42 29 -42q22 0 42.5 26t20.5 56q0 16 -7 27t-19 11zM487 261h1q38 0 67 -31.5t29 -88.5q0 -69 -52 -114t-123 -45q-39 0 -69 30t-30 84q0 78 54 121.5t123 43.5zM469 193h-1
q-29 0 -50.5 -25.5t-21.5 -68.5q0 -49 30 -49q28 0 50 25.5t22 65.5q0 52 -29 52z" />
    <glyph glyph-name="ampersand" unicode="&#x26;" horiz-adv-x="618" 
d="M316 390l123 -157q34 53 33 81q0 10 8 18t21 8q25 0 44 -15t19 -32q0 -9 -6 -18.5t-15 -9.5q-23 -59 -52 -97l17 -24q18 -23 30 -37.5t16 -14.5t19.5 11.5t26.5 11.5q27 0 27 -30q0 -25 -34 -57t-63 -32q-26 0 -29 26l-65 82q-108 -123 -248 -123q-69 0 -118 45.5
t-49 144.5q0 84 46.5 144.5t118.5 97.5q-64 83 -64 153q0 36 38 64.5t106 28.5q81 0 125 -25t44 -72q0 -98 -119 -172zM271 593h-1q-26 0 -42.5 -10.5t-16.5 -29.5q0 -45 55 -103q37 18 59.5 50t22.5 55q0 38 -77 38zM387 167l-151 184q-57 -31 -90 -70t-33 -103
q0 -52 27 -83.5t65 -31.5q96 0 182 104z" />
    <glyph glyph-name="quotesingle" unicode="'" horiz-adv-x="179" 
d="M128 595v-95q6 -15 6 -38q0 -19 -13.5 -32t-42.5 -13q-20 0 -30 6t-10 25q0 20 18 42v101q-14 22 -14 29q0 23 14.5 37.5t43.5 14.5q20 0 31.5 -13.5t11.5 -26.5q0 -25 -15 -37z" />
    <glyph glyph-name="parenleft" unicode="(" horiz-adv-x="332" 
d="M236 683h1q9 0 18 -2t22 -8.5t21 -22.5t8 -39q0 -20 -14.5 -30t-31.5 -7q-104 -82 -104 -349q0 -110 23.5 -206.5t76.5 -145.5q15 8 28.5 -6t13.5 -38q0 -30 -15 -45t-29 -15q-15 0 -34.5 10t-32.5 25q-125 168 -125 425q0 264 136 417q2 15 13.5 26t24.5 11z" />
    <glyph glyph-name="parenright" unicode=")" horiz-adv-x="332" 
d="M98 683h1q12 0 23.5 -11t13.5 -26q136 -153 136 -417q0 -257 -125 -425q-13 -15 -32.5 -25t-34.5 -10q-14 0 -29 15t-15 45q0 24 13.5 38t28.5 6q53 49 76.5 145.5t23.5 206.5q0 267 -104 349q-17 -3 -31.5 7t-14.5 30q0 23 8 39t21 22.5t22.5 8.5t18.5 2z" />
    <glyph glyph-name="asterisk" unicode="*" horiz-adv-x="381" 
d="M148 367h-1q-12 0 -21 7.5t-9 18.5q0 18 12 35q22 25 33 54l-76 -28q-26 -9 -38.5 0t-12.5 23q0 35 41 35q28 0 87 19q-14 13 -48 39q-29 24 -29 38q0 12 9 22.5t25 10.5q22 0 27 -11q8 -19 48 -65l20 62q-2 15 7.5 24.5t25.5 9.5q14 0 24.5 -8.5t10.5 -18.5
q0 -12 -17 -36q-20 -29 -29 -50l80 34q13 4 21.5 -4.5t8.5 -25.5q0 -16 -9.5 -25.5t-23.5 -9.5q-26 0 -72 -10q32 -38 65 -60q20 -14 20 -25q0 -36 -27 -36q-17 0 -31 10t-20 24l-41 52l-23 -70q-1 -35 -37 -35z" />
    <glyph glyph-name="plus" unicode="+" horiz-adv-x="554" 
d="M226 268v105q-11 17 -11 35q0 14 13 25t34 11q29 0 44.5 -13t15.5 -30q0 -12 -8 -28v-105h109q3 1 13.5 6t16.5 5q42 0 42 -54q0 -25 -11.5 -39t-30.5 -14q-14 0 -30 8h-109v-112q11 -13 11 -26q0 -22 -14.5 -34.5t-32.5 -12.5q-28 0 -45.5 11t-17.5 30q0 24 11 39v105
h-107q-30 -9 -32 -9q-40 0 -40 45q0 60 43 60q9 0 28 -8h108z" />
    <glyph glyph-name="comma" unicode="," horiz-adv-x="217" 
d="M52 -111h-1q-16 0 -21.5 6t-5.5 19q0 24 33 27q27 1 40.5 17.5t14.5 42.5q-11 -10 -27 -10q-18 0 -28 16t-10 37q0 32 14.5 51.5t41.5 19.5q57 0 57 -90q0 -66 -35 -101t-73 -35z" />
    <glyph glyph-name="hyphen" unicode="-" horiz-adv-x="343" 
d="M232 230l-117 -11q-13 -17 -35 -17q-15 0 -27 16t-12 38q0 25 12.5 39.5t28.5 14.5q18 0 26 -10l119 10q14 12 28 12q20 0 33 -14.5t13 -38.5q0 -20 -13 -36t-29 -16q-21 0 -27 13z" />
    <glyph glyph-name="hyphen" unicode="&#xad;" horiz-adv-x="343" 
d="M232 230l-117 -11q-13 -17 -35 -17q-15 0 -27 16t-12 38q0 25 12.5 39.5t28.5 14.5q18 0 26 -10l119 10q14 12 28 12q20 0 33 -14.5t13 -38.5q0 -20 -13 -36t-29 -16q-21 0 -27 13z" />
    <glyph glyph-name="period" unicode="." horiz-adv-x="224" 
d="M99 -8h-1q-18 0 -33 16t-15 44q0 25 17 46t45 21q48 0 48 -60q0 -28 -15 -47.5t-46 -19.5z" />
    <glyph glyph-name="slash" unicode="/" horiz-adv-x="338" 
d="M324 617v-1q0 -13 -6.5 -23.5t-16.5 -12.5l-180 -530q7 -12 7 -31q0 -15 -16.5 -25.5t-39.5 -10.5q-26 0 -44 13.5t-18 39.5q0 25 33 35l180 531q-1 25 9.5 37.5t43.5 12.5q48 0 48 -35z" />
    <glyph glyph-name="zero" unicode="0" horiz-adv-x="656" 
d="M386 653h1q41 0 80.5 -14t74.5 -41t56.5 -74t21.5 -107q0 -97 -29 -175.5t-72 -125t-95.5 -77.5t-96 -42.5t-77.5 -11.5q-98 0 -157 59.5t-59 170.5q0 90 22.5 165t58.5 124.5t83 84t94.5 49.5t93.5 15zM384 569h-1q-43 0 -85 -19.5t-79.5 -59t-60.5 -109.5t-23 -161
q0 -77 32.5 -114t82.5 -37q29 0 62.5 10t71 35.5t67.5 62.5t50 97.5t20 134.5q0 75 -36.5 117.5t-100.5 42.5z" />
    <glyph glyph-name="one" unicode="1" horiz-adv-x="656" 
d="M351 532l-161 -95q-2 -12 -13.5 -20t-25.5 -8q-18 0 -30.5 14t-12.5 34t13 34t30 17l207 121q41 24 59 24q19 0 30.5 -10t11.5 -27q0 -18 -14 -34v-521q9 -11 9 -26q0 -40 -66 -40q-29 0 -40 6t-11 29q0 17 14 33v469z" />
    <glyph glyph-name="two" unicode="2" horiz-adv-x="656" 
d="M572 57v-1q0 -31 -8 -43.5t-30 -12.5h-363q-17 -13 -50 -13q-20 0 -31.5 8.5t-11.5 17.5q0 56 55 142q21 33 45 60t52 48.5t45.5 33.5t47.5 29.5t37 21.5q93 55 93 143q0 40 -26.5 61t-71.5 21q-61 0 -97 -20.5t-61 -61.5q-2 -3 -2 -24q0 -11 -17 -23.5t-40 -12.5
q-26 0 -41.5 15t-15.5 36q0 13 9 25.5t20 12.5q40 71 101.5 102t153.5 31q85 0 136 -44t51 -114q0 -83 -39.5 -131.5t-104.5 -82.5q-74 -40 -126.5 -86.5t-81.5 -114.5h279q0 33 9.5 46t41.5 13q21 0 31.5 -18.5t10.5 -63.5z" />
    <glyph glyph-name="three" unicode="3" horiz-adv-x="656" 
d="M408 568h-234v-33q7 -8 7 -27q0 -13 -16.5 -25.5t-36.5 -12.5q-24 0 -37 10t-13 23q0 30 12 35v69q0 18 11 29.5t32 11.5h362q44 0 44 -34q0 -26 -26 -54l-131 -133q25 7 65 7q60 0 104.5 -44.5t44.5 -120.5q0 -142 -103.5 -213t-264.5 -71q-71 0 -120 40.5t-49 113.5
q0 26 17.5 44t42.5 18t37.5 -12.5t12.5 -28.5q0 -12 -3 -18t-8.5 -9t-6.5 -4q16 -63 99 -63q109 0 178.5 50.5t69.5 140.5q0 39 -22.5 69.5t-63.5 30.5q-50 0 -89.5 -13.5t-63.5 -27t-38 -13.5q-19 0 -30.5 15.5t-11.5 36.5q0 20 12.5 28t37.5 17t42 26z" />
    <glyph glyph-name="four" unicode="4" horiz-adv-x="656" 
d="M378 195l-273 -39q-15 -12 -42 -12q-47 0 -47 53q0 11 9.5 23t20.5 19l320 371q1 15 17.5 26.5t40.5 11.5q26 0 41.5 -13.5t15.5 -32.5q0 -25 -8 -34v-275l89 14q13 13 28 11q43 0 43 -48q0 -27 -11.5 -42.5t-28.5 -15.5q-16 0 -28 10l-92 -12v-140q14 -12 14 -28
q0 -48 -73 -48q-45 0 -45 41q0 19 9 26v134zM378 278v231l-226 -264z" />
    <glyph glyph-name="five" unicode="5" horiz-adv-x="656" 
d="M504 562h-1q-14 0 -27 9l-288 -20q0 -17 -5 -80.5t-10 -90.5q46 33 91 50t69.5 20t57.5 3q38 0 73 -9t66.5 -28t50 -55.5t18.5 -85.5q0 -72 -32.5 -130.5t-83.5 -91.5t-105 -50.5t-105 -17.5q-125 0 -185 67q-32 8 -32 41q0 61 55 61q43 0 43 -46q0 -7 11.5 -16.5
t37.5 -18t60 -8.5q101 0 169.5 57.5t68.5 138.5q0 52 -32 82t-92 30q-52 0 -97 -16.5t-69.5 -36.5t-49.5 -37t-42 -17q-20 0 -33.5 10.5t-13.5 27.5q0 9 7.5 37.5t9.5 47.5q10 96 10 209q0 28 40 30l321 23q26 13 42 13q24 0 36.5 -14.5t12.5 -37.5q0 -50 -47 -50z" />
    <glyph glyph-name="six" unicode="6" horiz-adv-x="656" 
d="M297 -16h-1q-59 0 -103.5 21.5t-91.5 70.5q-20 -2 -34.5 20.5t-4.5 48.5q-25 53 -25 113q0 71 27.5 144t74 131t114 95t141.5 37q76 0 127.5 -30.5t51.5 -76.5q0 -21 -15.5 -33.5t-38.5 -12.5q-29 0 -40 16t-5 31q-15 26 -88 26q-70 0 -130 -50.5t-92 -121t-32 -137.5
q0 -26 7 -49q56 82 135 138.5t160 56.5q94 0 139.5 -46t45.5 -106q0 -68 -31 -124.5t-79.5 -90.5t-103.5 -52.5t-108 -18.5zM291 64h1q32 0 69.5 12t73.5 35t59.5 63.5t23.5 91.5q0 28 -22.5 52t-66.5 24q-66 0 -135 -56t-124 -137q15 -36 49.5 -60.5t71.5 -24.5z" />
    <glyph glyph-name="seven" unicode="7" horiz-adv-x="656" 
d="M171 548v-38q8 -8 8 -20q0 -15 -18.5 -27.5t-41.5 -11.5q-19 1 -31.5 13t-12.5 23q0 13 10 25v73q0 21 10 30.5t39 11.5l359 17q25 1 35 17q9 15 37 15q22 0 37 -11t15 -26q0 -36 -22 -52q-46 -80 -147 -281q-112 -218 -127 -257q1 -34 -13 -50t-48 -16q-22 0 -33.5 14.5
t-11.5 37.5q0 14 29 74l236 459q-12 -2 -50 -6z" />
    <glyph glyph-name="eight" unicode="8" horiz-adv-x="656" 
d="M208 -11h-1q-61 0 -121 41t-60 111q0 67 46.5 129.5t98.5 90.5v2q-58 29 -58 103q0 94 69.5 146.5t170.5 52.5q76 0 119.5 -32t43.5 -80q0 -33 -14.5 -67.5t-36.5 -53.5l1 -2q33 -1 66.5 -13t62 -45t28.5 -79q0 -78 -69 -150t-165 -113t-181 -41zM419 524v1q0 63 -84 63
q-56 0 -92 -31.5t-36 -84.5q0 -29 14 -47t33 -20q45 18 116 27q20 16 34.5 43t14.5 49zM402 351h-1q-101 0 -189.5 -63.5t-88.5 -143.5q0 -29 32 -51.5t58 -22.5q65 0 137.5 31.5t122.5 82.5t50 101q0 28 -32.5 47t-88.5 19z" />
    <glyph glyph-name="nine" unicode="9" horiz-adv-x="656" 
d="M374 658h1q111 0 187 -101q17 -6 26.5 -25.5t9.5 -38.5q0 -12 -4 -19q16 -64 16 -107q0 -166 -103 -275.5t-241 -109.5q-133 0 -195 110q-10 2 -17.5 12.5t-7.5 23.5q0 29 18.5 43t39.5 14q32 0 46 -18.5t6 -37.5q13 -28 42.5 -47.5t62.5 -19.5q72 0 131.5 42.5
t90.5 103.5t31 122q0 24 -3 43h-2q-28 -44 -98 -77.5t-142 -33.5q-80 0 -138 52t-58 98q0 118 82.5 182t218.5 64zM366 578h-1q-84 0 -138.5 -40.5t-54.5 -116.5q0 -25 38.5 -52t69.5 -27q77 0 144.5 46t67.5 98q0 33 -36.5 62.5t-89.5 29.5z" />
    <glyph glyph-name="colon" unicode=":" horiz-adv-x="219" 
d="M112 408h1q22 0 33.5 -20t11.5 -43q0 -28 -16.5 -48t-42.5 -20q-25 0 -38 20t-13 39q0 28 16.5 50t47.5 22zM97 -8h-1q-47 0 -47 52q0 35 20 56t48 21q14 0 28 -11.5t14 -36.5q0 -33 -19.5 -57t-42.5 -24z" />
    <glyph glyph-name="semicolon" unicode=";" horiz-adv-x="217" 
d="M98 277h-1q-18 0 -32.5 16t-14.5 44q0 24 17 45.5t44 21.5q49 0 49 -60q0 -28 -15.5 -47.5t-46.5 -19.5zM52 -111h-1q-16 0 -21.5 6t-5.5 19q0 24 33 27q27 1 40.5 17.5t14.5 42.5q-11 -10 -27 -10q-18 0 -28 16t-10 37q0 32 14.5 51.5t41.5 19.5q57 0 57 -90
q0 -66 -35 -101t-73 -35z" />
    <glyph glyph-name="less" unicode="&#x3c;" horiz-adv-x="554" 
d="M182 223l220 -133q25 -2 35.5 -7.5t10.5 -21.5q0 -20 -20 -45.5t-41 -25.5q-29 0 -35 27l-233 152q-31 20 -41 34.5t-10 35.5q0 20 31 36l251 131q-1 14 12.5 26.5t29.5 12.5q25 0 44.5 -20.5t19.5 -32.5q0 -24 -10 -35.5t-36 -13.5z" />
    <glyph glyph-name="equal" unicode="=" horiz-adv-x="554" 
d="M119 372h304l30 9q40 0 40 -52q0 -51 -40 -51q-19 0 -29 6h-305q-23 -7 -32 -7q-38 0 -38 43q0 57 42 57q15 0 28 -5zM119 185h304l30 9q40 0 40 -52q0 -51 -40 -51q-19 0 -29 6h-305q-23 -7 -32 -7q-38 0 -38 43q0 57 42 57q15 0 28 -5z" />
    <glyph glyph-name="greater" unicode="&#x3e;" horiz-adv-x="554" 
d="M141 90l220 133l-228 120q-26 2 -36 13.5t-10 35.5q0 12 19.5 32.5t44.5 20.5q16 0 29.5 -12.5t12.5 -26.5l251 -131q31 -16 31 -36q0 -21 -10 -35.5t-41 -34.5l-233 -152q-6 -27 -35 -27q-21 0 -41 25.5t-20 45.5q0 16 10.5 21.5t35.5 7.5z" />
    <glyph glyph-name="question" unicode="?" horiz-adv-x="464" 
d="M209 144h-1q-57 0 -82.5 19.5t-25.5 67.5q0 44 30.5 82t106.5 97q67 53 90.5 82.5t23.5 56.5q0 18 -20.5 32.5t-56.5 14.5q-84 0 -137 -78q2 -21 -11 -36.5t-28 -15.5q-24 0 -40.5 14t-16.5 37q0 14 6 26.5t14 13.5q16 20 29 33.5t42.5 36.5t70 35.5t89.5 12.5
q67 0 112.5 -35.5t45.5 -82.5q0 -44 -28 -82.5t-121 -116.5q-75 -62 -95.5 -83t-20.5 -38q0 -20 28 -20q23 0 34 9.5t11 21.5q0 10 10.5 18t25.5 8q51 0 51 -39q0 -35 -35 -63t-101 -28zM195 -19h-1q-17 0 -31.5 14.5t-14.5 36.5q0 75 62 75q44 0 44 -60q0 -26 -15 -46
t-44 -20z" />
    <glyph glyph-name="at" unicode="@" horiz-adv-x="804" 
d="M259 -64h1q83 0 141 34q5 23 31 23q19 0 35 -12.5t16 -28.5q0 -18 -16 -30.5t-39 -10.5q-76 -39 -172 -39q-104 0 -166.5 56.5t-62.5 178.5q0 74 38 153.5t101.5 144.5t155 107t188.5 42q256 0 256 -270q0 -147 -60 -221t-138 -74q-45 0 -67 23t-22 57q0 8 1 20t3 26.5
t3 21.5h-2q-34 -49 -94 -91t-119 -42q-39 0 -63 25t-24 71q0 111 100 215t202 104q17 0 34 -5q3 20 31 20q20 0 31.5 -8.5t11.5 -21.5q0 -6 -5 -23l-32 -287q-4 -44 26 -44q36 0 72 57.5t36 164.5q0 106 -38.5 162.5t-142.5 56.5q-84 0 -162 -37.5t-130.5 -94.5t-84 -123.5
t-31.5 -126.5q0 -173 157 -173zM301 82h1q48 0 125.5 79.5t77.5 143.5v14q0 29 -28 29q-63 0 -132.5 -76.5t-69.5 -146.5q0 -43 26 -43z" />
    <glyph glyph-name="A" unicode="A" horiz-adv-x="625" 
d="M432 241l-247 -16q-65 -129 -68 -144q-1 -7 -1 -44q0 -42 -59 -42q-26 0 -39 13t-13 33q0 19 43 108q3 5 4.5 8t3.5 7.5t4 8.5l174 342q29 52 35 83q-1 27 15 47t43 20q24 0 38 -12t14 -26q0 -9 -3.5 -19.5t-3.5 -17.5q0 -14 22 -62t52 -108t38 -78q120 -245 120 -288
q0 -28 -16 -43.5t-43 -15.5q-23 0 -38 10.5t-15 27.5q0 9 3 20.5t3 15.5q0 26 -66 172zM224 304l175 12l-81 184z" />
    <glyph glyph-name="B" unicode="B" horiz-adv-x="626" 
d="M69 72v485q-9 15 -9 31q0 24 19.5 36.5t45.5 12.5q17 0 28.5 -9t10.5 -22q43 18 108 31.5t113 13.5q57 0 94.5 -24t37.5 -61q0 -92 -111 -142v-2q18 3 33 3q68 0 112.5 -38t44.5 -89q0 -61 -38 -114t-95.5 -87.5t-126 -59.5t-127 -36t-100.5 -11q-59 0 -59 45q0 30 19 37
zM165 524v-118q87 5 171 46t84 84q0 36 -72 36q-38 0 -95 -15t-88 -33zM165 300v-219q70 6 143.5 31t130.5 72t57 102q0 27 -30.5 50t-89.5 23q-91 0 -175 -28q-36 -13 -36 -31z" />
    <glyph glyph-name="C" unicode="C" horiz-adv-x="560" 
d="M339 656h1q80 0 134 -32t54 -70q0 -25 -14.5 -39t-38.5 -14q-38 0 -47 40q-2 14 -25.5 23.5t-57.5 9.5q-58 0 -109 -55t-78 -128.5t-27 -138.5q0 -90 38 -138t89 -48q44 0 89 24t68 55q4 57 53 57q24 0 38 -14t14 -28q0 -29 -28 -62q-41 -44 -108.5 -80.5t-138.5 -35.5
q-96 0 -153.5 70t-57.5 206q0 79 36 169t108.5 159.5t160.5 69.5z" />
    <glyph glyph-name="D" unicode="D" horiz-adv-x="615" 
d="M52 29v1q0 26 12 40v505q-7 16 -7 33q0 16 15.5 29.5t44.5 13.5q25 0 35.5 -14t6.5 -32q97 47 205 47q90 0 154.5 -69.5t64.5 -156.5q0 -177 -121 -295q-71 -68 -172 -106.5t-178 -38.5q-60 0 -60 43zM159 519v-441q147 13 237 110q87 103 87 229q0 58 -40.5 106
t-100.5 48q-91 0 -183 -52z" />
    <glyph glyph-name="E" unicode="E" horiz-adv-x="555" 
d="M166 277v-194l276 20q14 14 32 14q24 0 40 -14.5t16 -32.5q0 -30 -19 -40.5t-62 -10.5l-282 -20q-15 -17 -57 -17q-22 0 -37.5 13.5t-15.5 37.5q0 23 13 45v187q-18 17 -18 46q0 28 18 46v160q-21 11 -21 39q0 27 15 39q-5 5 -5 16q0 16 16 26t40 10t37.5 -10.5
t13.5 -26.5l238 21q21 15 37 15q27 0 42 -13.5t15 -32.5q0 -26 -16 -42.5t-42 -16.5q-16 0 -34 8l-240 -21v-168l191 24q20 14 36 14q24 0 39.5 -16t15.5 -36q0 -51 -59 -51q-11 0 -23 7z" />
    <glyph glyph-name="F" unicode="F" horiz-adv-x="508" 
d="M165 280v-203q13 -15 13 -38q0 -22 -19.5 -34t-48.5 -12q-58 1 -58 44q0 30 17 49v181q-17 17 -17 46q0 30 17 49v149q-6 2 -13 16.5t-7 27.5q0 35 20 38q-1 23 18.5 36t44.5 13q19 0 29.5 -9.5t4.5 -24.5l229 33q7 1 18.5 6t18.5 5q24 0 40 -11.5t15 -31.5
q0 -34 -12 -47.5t-42 -13.5q-19 0 -37 9l-231 -34v-158l214 31q15 13 43 13q14 0 25.5 -16.5t11.5 -32.5q0 -31 -11 -43.5t-37 -12.5q-21 0 -35 6z" />
    <glyph glyph-name="G" unicode="G" horiz-adv-x="679" 
d="M433 665h1q75 0 124 -36q20 -16 35.5 -38t15.5 -35q0 -19 -13 -32t-36 -13q-36 0 -48 42q-5 13 -27.5 22.5t-57.5 9.5q-66 0 -149 -61q-147 -109 -147 -278q0 -89 38.5 -136.5t97.5 -47.5q44 0 95.5 19t83.5 51q47 43 73 88.5t26 76.5q-24 -7 -83.5 -19t-81.5 -12
q-15 0 -26 10.5t-11 29.5t12 32t33 13q47 0 128 17.5t88 17.5q43 0 43 -46q0 -30 -12 -71.5t-41.5 -92t-72 -93.5t-112 -72t-152.5 -29q-107 0 -165.5 71.5t-58.5 192.5q0 107 54 194t138 146q114 79 208 79z" />
    <glyph glyph-name="H" unicode="H" horiz-adv-x="626" 
d="M166 293v-221q7 -19 7 -34q0 -18 -14.5 -30.5t-34.5 -12.5q-65 0 -65 41q0 26 11 33v217q-17 11 -17 32q0 44 17 51v203q-8 20 -8 29q0 19 19.5 31.5t47.5 12.5q14 0 29.5 -12.5t15.5 -29.5q0 -24 -8 -33v-191l296 19v168q-8 13 -8 37q0 18 17 30t38 12q18 0 37.5 -13
t19.5 -26q0 -19 -8 -32v-506q8 -14 8 -35q0 -16 -18.5 -27t-39.5 -11q-22 0 -39.5 13.5t-17.5 33.5q0 17 11 35v235z" />
    <glyph glyph-name="I" unicode="I" horiz-adv-x="233" 
d="M165 551v-472q14 -20 14 -35q0 -19 -18 -34t-45 -15q-28 0 -44.5 14t-16.5 38q0 19 14 36v474q-12 8 -12 29q0 26 20.5 42.5t49.5 16.5q27 0 40.5 -16t13.5 -38t-16 -40z" />
    <glyph glyph-name="J" unicode="J" horiz-adv-x="528" 
d="M457 547v-395q0 -41 -22.5 -81.5t-62.5 -70.5q-70 -55 -170 -55q-90 0 -139 47t-49 122q0 29 14 51.5t37 22.5q27 0 44.5 -16t17.5 -36q0 -24 -17 -39q-1 -32 22 -49.5t66 -17.5q25 0 57.5 11.5t50.5 26.5q25 21 40 49t15 52v373q-16 13 -16 39q0 59 64 59q23 0 40 -16.5
t17 -42.5q0 -25 -9 -34z" />
    <glyph glyph-name="K" unicode="K" horiz-adv-x="566" 
d="M165 339v-266q11 -9 11 -27q1 -27 -16 -39t-43 -12q-25 0 -43 13.5t-17 37.5q0 20 12 30v493q-8 7 -8 25q0 25 16 38t37 13q22 0 40.5 -11t18.5 -34q0 -16 -8 -27v-144h2q17 23 53 51l166 126q18 37 49 37q15 0 33.5 -11.5t18.5 -33.5q0 -16 -13.5 -33t-31.5 -18
l-208 -158l287 -310q15 0 26.5 -11t11.5 -23q0 -18 -19.5 -36t-46.5 -18q-22 0 -33.5 9t-11.5 23l-231 247q-37 41 -50 69h-2z" />
    <glyph glyph-name="L" unicode="L" horiz-adv-x="453" 
d="M165 563v-487l190 24q19 14 35 14t30.5 -11.5t14.5 -33.5q0 -27 -12.5 -41.5t-28.5 -14.5q-14 0 -29 5l-210 -27q-30 -6 -43 -6q-57 0 -57 46q0 25 14 35v497q-8 16 -8 27q0 28 17.5 41.5t42.5 13.5q54 0 54 -53q0 -9 -10 -29z" />
    <glyph glyph-name="M" unicode="M" horiz-adv-x="784" 
d="M59 41v1q0 23 8 31v520q-1 26 13 37.5t41 12.5q47 -2 47 -39q2 -37 46 -116t96 -172.5t67 -155.5h3q17 61 72 145t101 155t50 111q0 6 -1.5 21.5t-1.5 21.5q0 15 13.5 24t36.5 9q67 0 67 -49q0 -14 -7 -30v-498q9 -9 9 -28q0 -22 -17.5 -34.5t-41.5 -12.5q-53 0 -53 40
q0 20 11 31q0 230 3 346h-2q-11 -19 -42 -70t-52.5 -88t-46.5 -83t-38.5 -81t-14.5 -55q-1 -35 -50 -35q-57 0 -57 54q0 15 -5 35.5t-16.5 48.5t-21 49.5t-29 59t-29 55.5t-33 60t-29.5 54h-3q3 -111 3 -340q12 -12 12 -35q0 -20 -14 -33t-41 -13q-26 0 -39.5 13t-13.5 33z
" />
    <glyph glyph-name="N" unicode="N" horiz-adv-x="612" 
d="M70 70v495q-8 13 -8 30q0 21 14 35.5t41 14.5q30 0 42 -9t12 -29q0 -30 37 -98q47 -84 138 -180q85 -90 108 -138h2q-3 129 -3 393l-3.5 7t-4.5 10t-2 10q0 23 14 34t34 11q23 0 41 -10t18 -28q0 -13 -8 -32v-530q12 -14 12 -27q0 -19 -12 -26.5t-43 -7.5q-21 0 -33 13.5
t-23 40.5q-17 37 -62 98.5t-83 101.5q-106 113 -140 189h-2q3 -180 3 -368q10 -15 10 -30q0 -45 -49 -45q-62 0 -62 48q0 15 12 27z" />
    <glyph glyph-name="O" unicode="O" horiz-adv-x="619" 
d="M359 674h1q96 0 159.5 -76t63.5 -234q0 -163 -99 -272.5t-241 -109.5q-58 0 -101.5 25t-67 65t-34.5 83.5t-11 88.5q0 99 45 199t123 165.5t162 65.5zM350 594h-1q-51 0 -102.5 -51.5t-84.5 -131t-33 -155.5q0 -50 12.5 -92t43.5 -72t76 -30q85 0 153.5 87t68.5 212
q0 115 -35 174t-98 59z" />
    <glyph glyph-name="P" unicode="P" horiz-adv-x="559" 
d="M61 37v1q0 17 12 32v368q-29 4 -29 43q0 35 29 53v36q-6 9 -6 27q0 17 17.5 30t34.5 13q28 0 41 -14t8 -37v-11q45 23 64.5 31.5t69.5 21.5t102 13q69 0 104.5 -28t35.5 -78q0 -85 -106 -164t-269 -105v-204q11 -17 11 -26q0 -27 -13 -35.5t-55 -8.5q-24 0 -37.5 12
t-13.5 30zM169 490v-137q124 18 200 67.5t75 96.5q0 17 -18.5 29t-52.5 12q-93 0 -204 -68z" />
    <glyph glyph-name="Q" unicode="Q" horiz-adv-x="658" 
d="M405 669h1q97 0 149.5 -72t52.5 -193q0 -172 -80 -282q48 -51 88 -77q40 -4 40 -36q0 -24 -18 -39.5t-39 -15.5q-29 0 -41 23q-36 21 -96 81q-91 -73 -227 -73q-36 0 -69 11.5t-64.5 37t-50 76t-18.5 120.5q0 94 35 178.5t89.5 140t120 88t127.5 32.5zM397 591h-1
q-41 0 -86 -25t-85 -69t-66 -114t-26 -151q0 -78 31 -123t85 -45q89 0 152 53q-57 56 -103 83q-18 14 -4 45t45 31q19 0 40 -16q27 -22 79 -75q51 91 51 222q0 75 -31.5 129.5t-80.5 54.5z" />
    <glyph glyph-name="R" unicode="R" horiz-adv-x="609" 
d="M59 47v1q0 11 13 32v386q-3 -2 -9 -2q-8 0 -15 10t-7 28q0 45 31 56v21q-7 16 -7 29q0 21 17 34t40 13q24 0 38 -16.5t6 -41.5v-10q125 56 245 56q62 0 100.5 -27.5t38.5 -76.5q0 -77 -82 -134.5t-233 -83.5l324 -234q23 9 44 -6t21 -34q0 -28 -18 -43.5t-42 -15.5
q-33 0 -47 26l-351 257v-195q9 -18 9 -31q0 -50 -69 -50q-23 0 -35 15t-12 37zM166 510v-140q284 60 284 155q0 18 -17.5 28.5t-47.5 10.5q-104 0 -219 -54z" />
    <glyph glyph-name="S" unicode="S" horiz-adv-x="633" 
d="M355 649h1q65 0 118 -33.5t53 -67.5q0 -42 -45 -42q-57 0 -57 35q-19 28 -83 28q-78 0 -140.5 -50t-62.5 -105q0 -49 44 -49q38 0 119 23q87 24 146 24q66 0 108 -34t42 -99q0 -87 -56 -152q-54 -66 -145 -104t-181 -38q-45 0 -81 14.5t-55.5 36t-29 41.5t-9.5 34
q0 25 15 42t40 17q15 0 24 -8.5t18.5 -31.5t9.5 -24q21 -41 75 -41q60 0 127 29t107 73q41 38 41 106q0 31 -15.5 44t-47.5 13q-49 0 -134 -23q-78 -24 -139 -24q-123 0 -123 121q0 87 95.5 166t220.5 79z" />
    <glyph glyph-name="T" unicode="T" horiz-adv-x="494" 
d="M294 549v-481q9 -15 9 -25q0 -48 -66 -48q-45 0 -45 42q0 23 6 35v462l-117 -23q-16 -10 -31 -10q-21 0 -33.5 12t-12.5 32q0 21 12 36t29 15t29 -7l133 26q10 12 34.5 16.5t37.5 -3.5l151 27q15 7 31 7q20 0 32 -12.5t12 -35.5q0 -19 -12 -33t-31 -14q-18 0 -31 8z" />
    <glyph glyph-name="U" unicode="U" horiz-adv-x="604" 
d="M236 -17h-1q-87 0 -127.5 44.5t-41.5 100.5v447q-13 25 1.5 45t44.5 20q47 0 47 -58v-462q7 -21 28.5 -36t51.5 -15q60 0 108 23.5t68.5 48t20.5 40.5v398q-9 7 -9 23q0 21 17 34t44 13q18 0 31.5 -11t13.5 -30q0 -14 -4 -21v-420q0 -17 -20 -51t-49 -55
q-95 -78 -224 -78z" />
    <glyph glyph-name="V" unicode="V" horiz-adv-x="546" 
d="M230 178h2q63 173 208 397q19 57 60 57q21 0 34 -12.5t13 -38.5q0 -24 -20 -51q-100 -126 -153 -225q-44 -81 -69.5 -151.5t-25.5 -95.5q0 -68 -69 -65q-20 -1 -38 12t-16 27q0 11 2.5 26.5t2.5 24.5q0 65 -72 268q-60 167 -60 242q0 47 55 47q44 0 44 -69q0 -37 52 -209
q41 -129 50 -184z" />
    <glyph glyph-name="W" unicode="W" horiz-adv-x="797" 
d="M191 -8h-1q-46 0 -46 80q0 72 -55 259q-2 7 -10 36t-11 39t-9.5 35t-9 39t-6 35t-5 38t-1.5 34q0 29 15.5 43.5t38.5 14.5q21 0 34.5 -13t13.5 -34q0 -5 -3 -19.5t-2 -22.5q1 -61 34 -191q36 -135 43 -202q13 57 71 204q50 134 48 211q0 56 48 56q30 1 40.5 -14t10.5 -53
q0 -69 70 -229q50 -128 60 -174q15 78 68 225q41 105 48 194q-9 11 -9 27q0 19 13 33.5t42 14.5q24 0 39 -12.5t15 -29.5q0 -20 -3 -38q-12 -70 -63 -212q-5 -13 -24.5 -68t-28.5 -83t-21 -72.5t-17 -79.5q-7 -45 -18.5 -62t-37.5 -17q-32 0 -42 15.5t-14 56.5
q-2 32 -64 202q-43 92 -63 166q-13 -48 -59 -167q-65 -163 -65 -221q0 -20 -17.5 -32t-46.5 -12z" />
    <glyph glyph-name="X" unicode="X" horiz-adv-x="510" 
d="M66 -5h-1q-16 0 -30.5 12t-14.5 28q0 36 28 46q64 119 161 260q-77 130 -143 213q-26 29 -26 46q0 20 11.5 33t25.5 13q31 0 49 -15q7 -6 14 -13t15 -18t14 -19t15 -24t14.5 -24t16 -27.5t14.5 -27t16.5 -30.5t15.5 -29q66 97 119 186q8 37 55 37q22 0 35.5 -13.5
t13.5 -33.5q0 -31 -30 -52q-13 -21 -66.5 -91.5t-81.5 -112.5q16 -26 71 -122.5t80 -134.5q16 -10 16 -36q0 -23 -16 -37t-40 -14q-25 0 -36 15t-9 36q-14 24 -55 101.5t-62 112.5q-33 -52 -127 -226q-21 -39 -62 -39z" />
    <glyph glyph-name="Y" unicode="Y" horiz-adv-x="593" 
d="M249 83v230q-28 51 -108 127t-110 119q-30 12 -30 46q0 21 19.5 35.5t41.5 15.5q20 0 33.5 -13t12.5 -31q20 -35 94 -109t96 -109h2q24 33 86.5 93t89.5 94q17 22 23 33q15 42 53 42q21 0 34.5 -12.5t13.5 -31.5q0 -18 -28 -54q-8 -11 -25 -29.5t-18 -19.5
q-12 -14 -85.5 -83.5t-98.5 -113.5v-240q11 -14 11 -27q0 -22 -16.5 -36t-49.5 -14q-28 0 -40 10t-12 39t11 39z" />
    <glyph glyph-name="Z" unicode="Z" horiz-adv-x="578" 
d="M438 573l-278 -15q-15 -50 -56 -50q-21 0 -31 13t-10 30q0 42 18.5 72t47.5 30q25 0 31 -13l277 12q16 0 40.5 2.5t35.5 2.5q21 0 35 -9.5t14 -25.5q0 -38 -42 -80l-392 -470l320 9q0 26 15.5 41.5t35.5 15.5q18 0 33.5 -15t15.5 -48q0 -38 -15.5 -57t-39.5 -19
q-6 0 -60.5 0.5t-103.5 0.5q-30 0 -136 -4q-90 -5 -108 -5q-70 0 -70 52q0 28 31 58z" />
    <glyph glyph-name="bracketleft" unicode="[" horiz-adv-x="335" 
d="M171 -137l103 12q17 12 25 12q16 0 26 -14t10 -35q0 -37 -50 -42l-112 -12q-25 -10 -47 -10q-51 0 -51 57v773q0 29 15.5 43t35.5 14q23 0 43 -11l76 14q19 13 36 13q23 0 33 -13t10 -31q0 -26 -11.5 -39.5t-26.5 -13.5q-17 0 -24 7l-94 -17v-704z" />
    <glyph glyph-name="backslash" unicode="\" horiz-adv-x="338" 
d="M217 50l-180 530q-10 2 -16.5 13t-6.5 24q0 35 48 35q33 0 44 -12.5t9 -37.5l180 -531q33 -10 33 -35q0 -26 -18 -39.5t-44 -13.5q-23 0 -39.5 10.5t-16.5 25.5q0 19 7 31z" />
    <glyph glyph-name="bracketright" unicode="]" horiz-adv-x="335" 
d="M167 583l-103 -12q-17 -12 -25 -12q-16 0 -26 14t-10 35q0 37 50 42l112 12q25 10 47 10q51 0 51 -57v-773q0 -29 -15.5 -43t-35.5 -14q-23 0 -43 11l-76 -14q-17 -13 -36 -13q-23 0 -33 13t-10 31q0 26 11.5 39.5t26.5 13.5q17 0 24 -8l94 18v704z" />
    <glyph glyph-name="asciicircum" unicode="^" horiz-adv-x="554" 
d="M380 417l-93 117l-112 -121q-1 -20 -11.5 -37t-30.5 -17q-26 0 -47 15t-21 34q0 10 5 18t16 19t16 17l144 162q14 29 42 29q23 0 39 -16t22 -33l110 -145q25 -29 25 -51q0 -19 -14 -34t-46 -15q-19 0 -32 15t-12 43z" />
    <glyph glyph-name="underscore" unicode="_" horiz-adv-x="500" 
d="M500 -150h-500v75h500v-75z" />
    <glyph glyph-name="grave" unicode="`" 
d="M145 635l63 -73q10 -2 18 -11t8 -21q0 -18 -12.5 -28t-31.5 -10q-15 0 -24 10.5t-9 22.5l-65 74q-23 10 -23 34q0 39 43 39q15 0 23.5 -11t9.5 -26z" />
    <glyph glyph-name="a" unicode="a" horiz-adv-x="488" 
d="M333 288v51q0 39 -36 39q-70 0 -138 -42q2 -4 -2.5 -10.5t-15 -12t-23.5 -5.5q-18 0 -30 15.5t-12 31.5q0 15 15 29.5t30 11.5q88 54 211 54q39 0 65 -24t26 -65v-307q8 -5 8 -23q0 -37 -66 -37q-42 0 -42 31q0 10 8 24v45h-2q-103 -112 -223 -112q-40 0 -66 21.5
t-26 58.5q0 73 86 141t233 85zM331 194v32q-93 -11 -159 -57t-66 -84q0 -23 33 -23q54 0 123 48.5t69 83.5z" />
    <glyph glyph-name="b" unicode="b" horiz-adv-x="482" 
d="M155 593v-237l2 -2q95 82 206 82q97 0 97 -102q0 -69 -52 -150.5t-137.5 -139.5t-168.5 -58q-56 0 -56 41q0 24 16 34v523q-13 17 -13 37q0 17 23 26.5t45 9.5q46 0 46 -37q0 -14 -8 -27zM155 271v-194q81 28 145.5 99.5t64.5 152.5q0 28 -44 28q-32 0 -79 -22.5
t-87 -63.5z" />
    <glyph glyph-name="c" unicode="c" horiz-adv-x="464" 
d="M285 444h1q58 0 98.5 -22.5t40.5 -54.5q0 -50 -58 -50q-10 0 -17 4.5t-9 8.5t-6 13q-13 24 -47 24q-49 0 -94 -50q-70 -70 -70 -159q0 -46 23.5 -71.5t67.5 -25.5q29 0 64 21q40 24 59 60q5 25 13.5 36t30.5 11q25 0 37 -13.5t12 -28.5q0 -13 -25 -50.5t-62 -64.5
q-66 -51 -151 -51q-73 0 -117 45t-44 117q0 78 25 126.5t78 103.5q23 26 67.5 48.5t82.5 22.5z" />
    <glyph glyph-name="d" unicode="d" horiz-adv-x="522" 
d="M367 397v182q-14 7 -14 34q0 19 17 31t43 12q24 0 37 -13.5t13 -32.5l-3 -34v-515q13 -8 13 -25q0 -23 -14.5 -32.5t-46.5 -9.5q-50 0 -50 40q0 19 5 23v69q-38 -58 -108.5 -101t-135.5 -43q-47 0 -78.5 31t-31.5 87q0 115 94.5 214.5t192.5 99.5q42 0 67 -17zM302 338
h-1q-60 0 -126.5 -77.5t-66.5 -141.5q0 -52 47 -52q65 0 141 80q26 26 37 38.5t21.5 36t10.5 50.5q0 30 -16.5 48t-46.5 18z" />
    <glyph glyph-name="e" unicode="e" horiz-adv-x="468" 
d="M291 444h1q40 0 70 -13.5t45.5 -34t23 -39.5t7.5 -36q0 -26 -16 -44.5t-76.5 -41t-170.5 -41.5l-46 -8q-7 -22 -7 -54q0 -70 69 -70q47 0 88 21.5t57 45.5q-2 18 12 31t38 13q45 0 45 -44q0 -12 -17 -34.5t-46.5 -48t-80 -44t-107.5 -18.5q-150 0 -150 140
q0 135 80 227.5t181 92.5zM289 368h-1q-42 0 -80 -30.5t-61 -80.5q84 15 130.5 26.5t59 18.5t12.5 15q0 20 -15 35.5t-45 15.5z" />
    <glyph glyph-name="f" unicode="f" horiz-adv-x="345" 
d="M104 55v267l-51 -8q-9 -7 -18 -7q-34 0 -34 49q0 14 9 27.5t20 13.5q1 0 21 -4l53 8q0 141 30 204t112 63q41 0 83.5 -29t42.5 -55q0 -17 -11.5 -32.5t-30.5 -15.5q-17 0 -28 10t-10 22q-13 22 -50 22q-24 0 -34.5 -38t-10.5 -136l111 18q2 1 9.5 6t13.5 5q18 0 29 -12
t11 -29q0 -51 -32 -51q-14 0 -21 5l-121 -20v-277q9 -16 9 -28q0 -38 -53 -38q-55 0 -55 41q0 7 6 19z" />
    <glyph glyph-name="g" unicode="g" horiz-adv-x="484" 
d="M424 384v-401q0 -93 -63.5 -145t-142.5 -52q-62 0 -105.5 21.5t-43.5 50.5q0 23 12.5 37.5t31.5 14.5q31 0 37 -29q26 -20 73 -20q43 0 76 31.5t33 99.5q0 25 0.5 75.5t0.5 75.5q-29 -72 -86 -116.5t-115 -44.5q-55 0 -82.5 31.5t-27.5 81.5q0 82 40 159t120 129.5
t181 52.5q61 0 61 -52zM143 63h1q35 0 84 47.5t77 126.5q23 59 27 123v1q-87 0 -152.5 -79.5t-65.5 -172.5q0 -46 29 -46z" />
    <glyph glyph-name="h" unicode="h" horiz-adv-x="476" 
d="M322 62v232q0 26 -4.5 35t-17.5 9q-27 0 -67 -21.5t-77 -68.5v-184q8 -11 8 -28q0 -18 -20.5 -29.5t-46.5 -11.5q-41 0 -41 32q0 25 7 33v518q0 4 -4.5 14t-4.5 15q0 24 17.5 37.5t45.5 13.5q14 0 31 -14t17 -31q0 -10 -9 -30v-236h2q98 89 187 89q39 0 54.5 -23.5
t15.5 -75.5v-276q0 -2 4 -9.5t4 -12.5q0 -17 -19 -30.5t-40 -13.5q-23 0 -37.5 9t-14.5 25q0 23 10 33z" />
    <glyph glyph-name="i" unicode="i" horiz-adv-x="215" 
d="M120 629h1q45 0 45 -46q0 -42 -17.5 -67.5t-42.5 -25.5q-45 0 -45 48q0 39 16 65t43 26zM164 392v-1q0 -8 -2 -14.5t-5 -12t-3 -6.5v-286q13 -10 13 -28q0 -23 -23 -36t-50 -13q-20 0 -32.5 13t-12.5 34q0 19 12 34v278q-9 9 -9 26q0 13 1.5 21t7 18t19 14.5t35.5 4.5
q17 0 33.5 -15.5t15.5 -30.5z" />
    <glyph glyph-name="j" unicode="j" horiz-adv-x="232" 
d="M143 635h1q17 0 25.5 -10.5t9.5 -21.5t1 -32q0 -83 -62 -83q-20 0 -32 22t-12 54q0 28 20 49.5t49 21.5zM170 340v-434q0 -77 -43.5 -118t-110.5 -41q-60 0 -97.5 36t-37.5 63q0 24 13 41.5t37 17.5q18 0 31.5 -12t8.5 -38q15 -28 46 -28q60 0 60 101v412q-14 16 -14 38
q0 60 73 60q22 0 35.5 -15.5t13.5 -42.5q0 -18 -15 -40z" />
    <glyph glyph-name="k" unicode="k" horiz-adv-x="440" 
d="M153 586v-308l2 -1q35 43 66 75l91 88q1 13 12 22.5t26 9.5q25 0 38.5 -14.5t13.5 -34.5q0 -16 -11 -26.5t-23 -10.5l-142 -146l154 -165q15 2 26 -8t11 -25q0 -22 -17 -36.5t-46 -14.5q-25 0 -35 29l-103 111q-43 49 -61 72l-2 -1v-124q0 -2 5.5 -14t5.5 -19
q0 -50 -59 -50q-55 0 -55 52q0 20 10 29v506q-12 10 -12 28q0 47 59 47q29 0 41.5 -10.5t12.5 -34.5q0 -18 -8 -26z" />
    <glyph glyph-name="l" unicode="l" horiz-adv-x="215" 
d="M61 70v498q-10 23 -10 34q0 32 12 43t49 11q22 0 39.5 -13t17.5 -34q0 -24 -15 -44v-498q16 -13 16 -30q0 -14 -17.5 -28t-42.5 -14t-41.5 13t-16.5 36q0 10 9 26z" />
    <glyph glyph-name="m" unicode="m" horiz-adv-x="740" 
d="M154 255v-188q8 -14 8 -26q0 -24 -12 -35t-40 -11q-58 0 -58 49q0 8 4.5 18t4.5 11v301q-10 17 -10 35q0 46 66 46q21 0 32.5 -12.5t11.5 -31.5q0 -18 -7 -31v-38q137 113 196 113q60 0 60 -70v-48q145 118 211 118q26 0 41.5 -14.5t15.5 -40.5v-337q11 -10 11 -26
q0 -21 -20 -31.5t-44 -10.5q-25 0 -37 8.5t-12 33.5q0 17 9 24v273q0 22 -16 22q-40 0 -159 -101v-191q0 -42 -13.5 -55.5t-48.5 -13.5q-47 0 -47 40q0 16 16 34v261q0 22 -17 22q-39 0 -146 -97z" />
    <glyph glyph-name="n" unicode="n" horiz-adv-x="474" 
d="M157 265v-210q7 -10 7 -24q0 -18 -19 -27t-43 -9q-21 0 -35.5 8.5t-14.5 25.5t12 28v156q-15 9 -15 33q0 20 15 58v80q-8 14 -8 30q0 15 19.5 28t42.5 13q49 0 49 -35q0 -14 -10 -31v-39q126 105 183 105q27 0 51 -21t24 -45v-326q6 -18 6 -26q0 -42 -57 -42
q-51 0 -51 38q0 12 9 26v280q0 5 -9 12t-14 7q-32 0 -142 -93z" />
    <glyph glyph-name="o" unicode="o" horiz-adv-x="492" 
d="M306 448h1q44 0 75.5 -19t47 -49.5t22.5 -60t7 -60.5q0 -55 -25.5 -105.5t-51.5 -76.5q-57 -56 -102 -75.5t-112 -19.5q-50 0 -94 41t-44 118q0 131 81 219t195 88zM289 370h-1q-62 0 -113 -65t-51 -149q0 -43 19 -69.5t47 -26.5q62 0 115 52q60 58 60 142q0 116 -76 116
z" />
    <glyph glyph-name="p" unicode="p" horiz-adv-x="498" 
d="M154 371v-51h1q46 62 92 90t109 28q52 0 84.5 -36t32.5 -98q0 -72 -26 -133.5t-66 -100.5t-85 -60.5t-86 -21.5q-34 0 -56 21v-233q9 -16 9 -29q0 -42 -65 -42q-46 0 -46 36q0 21 9 37v587q-10 12 -10 29q0 24 15 35.5t35 11.5q60 0 60 -43q0 -6 -3.5 -16t-3.5 -11z
M154 198v-100q17 -33 51 -33q59 0 116.5 69.5t57.5 157.5q0 29 -12.5 47.5t-37.5 18.5q-43 0 -101 -59q-45 -49 -74 -101z" />
    <glyph glyph-name="q" unicode="q" horiz-adv-x="504" 
d="M347 -239v394h-1q-25 -64 -79.5 -113.5t-122.5 -49.5q-8 0 -18 1t-30 9t-34.5 21.5t-26 42t-11.5 67.5q0 142 80.5 223t195.5 81q66 0 102.5 -14.5t36.5 -35.5v-579q28 21 53 50q7 25 33 25q15 0 24.5 -11t9.5 -29q0 -25 -67.5 -83t-90.5 -58q-54 0 -54 59zM288 359h-1
q-61 0 -115 -54t-54 -147q0 -22 4.5 -39t10.5 -26t13.5 -14.5t12.5 -7t9 -1.5q47 0 102 77.5t78 198.5q-17 13 -60 13z" />
    <glyph glyph-name="r" unicode="r" horiz-adv-x="379" 
d="M61 59v319l-8 26q0 14 17 25t41 11q22 0 35.5 -9t13.5 -24q0 -16 -6 -23v-35h1q98 89 160 89q26 0 44 -29t18 -93q0 -46 -50 -46q-46 0 -46 27q0 13 5 26q0 22 -12 22q-14 0 -49.5 -26.5t-70.5 -67.5v-183q12 -12 12 -28q0 -23 -16 -34t-55 -11q-47 0 -47 39q0 16 13 25z
" />
    <glyph glyph-name="s" unicode="s" horiz-adv-x="502" 
d="M308 454h1q51 0 83.5 -15t32.5 -42q0 -18 -10.5 -28.5t-28.5 -10.5q-17 0 -24 11t-53 11q-71 0 -123 -31t-52 -66q0 -26 28 -26q11 0 24.5 3.5t34 9.5t33.5 9q9 2 28.5 7.5t30 7.5t25.5 4.5t28 2.5q47 0 78 -26.5t31 -74.5q0 -56 -33 -100t-82 -66.5t-93.5 -34
t-77.5 -11.5q-54 0 -96 24.5t-42 59.5q0 23 13 38t37 15q19 0 27.5 -8.5t8.5 -18.5q0 -8 -3 -13q20 -22 59 -22q62 0 125.5 33.5t63.5 86.5q0 41 -41 41q-13 0 -26 -3t-33 -9.5t-33 -9.5q-82 -22 -120 -22q-40 0 -64 26.5t-24 65.5q0 76 85.5 129t181.5 53z" />
    <glyph glyph-name="t" unicode="t" horiz-adv-x="470" 
d="M127 436v72q-6 8 -6 25q0 34 63 36q45 0 45 -31q0 -14 -9 -24v-62l125 20q8 8 19 8q18 0 27.5 -12t9.5 -28q0 -48 -34 -48q-13 0 -17 5l-130 -22v-270q0 -28 17 -28t64 29.5t75 64.5q-1 17 9.5 28.5t28.5 11.5q51 0 51 -48q0 -20 -45.5 -62t-109 -78t-105.5 -36
q-36 0 -57 23.5t-21 60.5v289l-65 -10q-8 -8 -20 -9q-40 2 -40 47q0 18 11.5 30t28.5 12q12 0 17 -5z" />
    <glyph glyph-name="u" unicode="u" horiz-adv-x="473" 
d="M154 375v-270q0 -10 10 -20.5t22 -10.5q25 0 65 26.5t69 62.5v216q-6 14 -6 22q0 19 10 27t35 8q30 0 44.5 -10.5t9.5 -45.5v-322q9 -13 9 -26q0 -37 -64 -37q-45 0 -45 31q0 4 1.5 8t3.5 8.5t3 6.5v23q-83 -89 -172 -89q-32 1 -60 27.5t-28 60.5v302q0 3 -3 11t-3 13
q0 42 59 42q18 0 33 -10t15 -30q0 -12 -8 -24z" />
    <glyph glyph-name="v" unicode="v" horiz-adv-x="422" 
d="M168 -9h-1q-52 0 -53 55q0 22 -35 124q-51 144 -52 199q-7 9 -7 23q0 17 16 30.5t43 13.5q23 0 37 -13t14 -24q0 -14 -9 -30q0 -45 26 -134l33 -109q25 68 69 139q37 59 69 129q12 27 25 39t34 12q45 0 45 -42q0 -13 -8 -30.5t-18.5 -33.5t-31.5 -46.5t-35 -53.5
q-85 -135 -108 -208q-14 -40 -53 -40z" />
    <glyph glyph-name="w" unicode="w" horiz-adv-x="627" 
d="M127 414v-1q0 -11 -7 -27l57 -244h2l98 215q-10 21 -10 40q0 17 14.5 27t38.5 10q46 0 46 -77l69 -211h2q11 46 47 110q34 70 30 116q-7 14 -7 26q0 18 19.5 30t43.5 12q17 0 29.5 -11t12.5 -26q0 -22 -11 -32q-10 -84 -48 -151q-52 -103 -74 -189q5 -19 -4.5 -28.5
t-39.5 -9.5q-46 0 -48 38l-71 229l-100 -216q-4 -51 -52 -51q-24 0 -34 12.5t-12 42.5l-79 319q-11 8 -11 30q0 25 14.5 38t33.5 13q51 0 51 -34z" />
    <glyph glyph-name="x" unicode="x" horiz-adv-x="438" 
d="M220 159l-112 -139q-1 -10 -2.5 -15.5t-10.5 -10.5t-25 -5t-33 14.5t-17 38.5q0 16 7 25t17 9q17 22 55.5 68.5t56.5 70.5q-24 19 -58 58t-59 81q-17 7 -17 32q0 19 19 34.5t41 15.5q33 0 38 -39q9 -23 28 -47.5t29 -34t36 -34.5q19 26 102 126q0 35 36 35q19 0 36.5 -15
t17.5 -34q0 -26 -22 -36q-101 -127 -107 -134q148 -144 148 -198q0 -17 -12.5 -28.5t-33.5 -11.5q-26 0 -38 27q-52 83 -120 147z" />
    <glyph glyph-name="y" unicode="y" horiz-adv-x="471" 
d="M219 28l-187 324q-21 15 -21 39q0 19 18.5 32t36.5 13q27 0 39.5 -15t10.5 -37l146 -256l103 265q1 19 12 32.5t34 13.5q25 0 41 -11.5t16 -30.5q0 -22 -23 -35l-177 -432q-31 -76 -69 -104.5t-88 -28.5q-42 0 -74.5 22t-44.5 63q-2 6 -9.5 13.5t-7.5 21.5
q0 21 12.5 33.5t34.5 12.5q52 0 52 -38q0 -3 -5 -21q1 -12 13 -21t29 -9q28 0 51.5 34t56.5 120z" />
    <glyph glyph-name="z" unicode="z" horiz-adv-x="457" 
d="M40 68l254 281h-182q-1 -52 -41 -52q-39 0 -39 46q0 44 14 63t45 19h255q18 15 45 15q18 0 30 -10.5t12 -25.5q0 -30 -21 -47l-255 -281h192q9 47 44 47q39 0 39 -58q0 -74 -52 -74q-20 0 -31 9h-258q-11 -7 -36 -9q-44 0 -44 35q0 14 8 27t21 15z" />
    <glyph glyph-name="braceleft" unicode="{" horiz-adv-x="364" 
d="M255 -230h-1q-62 0 -95.5 33t-33.5 92q0 21 5.5 65.5t5.5 66.5q0 100 -18 133t-75 33q-31 0 -31 41q0 45 40 45q62 0 80.5 40.5t18.5 173.5q0 92 42 141t118 49q29 0 39.5 -10.5t10.5 -30.5q0 -24 -12 -33t-40 -8q-32 1 -49 -28.5t-17 -75.5v-90q0 -69 -21.5 -118
t-66.5 -57q43 -10 58 -56.5t15 -147.5q0 -24 -5.5 -64t-5.5 -57q0 -58 40 -58q22 0 42 7.5t29 7.5q33 0 33 -48q0 -25 -20.5 -35.5t-85.5 -10.5z" />
    <glyph glyph-name="bar" unicode="|" horiz-adv-x="264" 
d="M88 -181v850q-11 19 -11 43q0 38 64 38q49 0 49 -38q0 -35 -14 -43v-850q16 -12 16 -35q0 -16 -14.5 -25t-37.5 -9q-58 0 -58 45q0 8 6 24z" />
    <glyph glyph-name="braceright" unicode="}" horiz-adv-x="364" 
d="M107 683h1q62 0 95.5 -33t33.5 -92q0 -21 -5.5 -65.5t-5.5 -66.5q0 -100 18 -133t75 -33q31 0 31 -41q0 -45 -40 -45q-62 0 -80.5 -40.5t-18.5 -173.5q0 -92 -42 -141t-118 -49q-29 0 -39.5 10.5t-10.5 30.5q0 23 12 32.5t40 8.5q32 -1 49 28.5t17 75.5v90q0 69 21.5 118
t66.5 57q-43 10 -58 56.5t-15 147.5q0 24 5.5 64t5.5 57q0 58 -40 58q-22 0 -42 -7.5t-29 -7.5q-33 0 -33 48q0 25 20.5 35.5t85.5 10.5z" />
    <glyph glyph-name="asciitilde" unicode="~" horiz-adv-x="554" 
d="M358 128h-1q-35 0 -57 15t-53 53q-31 36 -50 36q-31 0 -57 -54q-23 -48 -40 -48q-61 0 -61 41q0 33 28 51q34 55 65.5 78t75.5 23q30 0 50.5 -15.5t46.5 -50.5q18 -23 28.5 -31.5t22.5 -8.5q22 0 32.5 11.5t13.5 37.5q3 37 12 52t29 15t35 -12.5t15 -30.5
q0 -71 -42 -116.5t-93 -45.5z" />
    <glyph glyph-name="exclamdown" unicode="&#xa1;" horiz-adv-x="233" 
d="M129 444h1q16 0 28.5 -15t12.5 -33q0 -29 -20.5 -53.5t-46.5 -24.5q-22 0 -32 13.5t-10 46.5q0 34 14.5 50t52.5 16zM66 -157v339q-10 11 -10 43q0 17 23 31t50 14q22 0 33 -16t11 -34q0 -22 -12 -36v-337q14 -20 14 -37q0 -26 -16 -37.5t-61 -11.5q-24 0 -34.5 10
t-10.5 34q0 20 13 38z" />
    <glyph glyph-name="cent" unicode="&#xa2;" horiz-adv-x="656" 
d="M300 474v-273q60 16 82 59q-10 43 34 43q52 0 52 -34q0 -44 -50.5 -86.5t-117.5 -64.5v-115q13 -16 13 -27q0 -14 -12.5 -23t-36.5 -9q-46 0 -46 28q0 14 10 32v104q-31 -2 -50 0q-55 3 -95.5 50t-40.5 114q0 194 186 262v78q-12 12 -12 23q0 14 17 25t44 11
q17 0 27.5 -11t10.5 -29q0 -9 -15 -19v-63q30 5 47 5q46 0 80 -26.5t34 -55.5q0 -22 -19 -34.5t-36 -12.5q-26 0 -29 20q-2 13 -12 24t-27 11q-24 0 -38 -6zM133 285v-1q0 -42 14.5 -69t41.5 -29q15 -2 39 0v266q-95 -52 -95 -167z" />
    <glyph glyph-name="sterling" unicode="&#xa3;" horiz-adv-x="656" 
d="M434 305l-176 -10q-16 -145 -65 -194q51 4 130 -19t110 -23q65 0 98 72q-4 4 -4 17q0 39 35 39q25 0 41.5 -15.5t16.5 -34.5q0 -25 -18 -30q-52 -126 -172 -126q-39 0 -112 23.5t-126 23.5q-44 0 -83 -16q-47 -20 -69 -20q-13 0 -22.5 14.5t-9.5 34.5t9 28.5t29 14.5
q52 14 76 51q32 47 42 154q-42 -6 -82 -6q-14 0 -24 13.5t-10 31.5q0 12 11 21.5t27 10.5l86 6q13 158 66 219.5t138 61.5q67 0 124 -49q11 2 23 -7t12 -21q0 -30 -18.5 -44t-39.5 -14q-13 0 -21.5 8.5t-8.5 18.5q-35 28 -76 28q-46 0 -71.5 -43t-34.5 -152l169 10
q11 7 29 7q13 0 21 -13t8 -29q0 -27 -10.5 -39t-23.5 -12t-24 9z" />
    <glyph glyph-name="currency" unicode="&#xa4;" horiz-adv-x="554" 
d="M263 75h-1q-70 0 -108 36l-28 -26q-2 -32 -40 -32q-20 0 -33.5 13.5t-13.5 36.5q0 14 8.5 26t21.5 13l30 27q-32 49 -32 132q0 87 37 138l-36 40q-11 3 -19 15t-8 26q0 24 13 35.5t34 11.5q19 0 30 -10.5t12 -25.5l27 -32q57 44 141 44q61 0 99 -40l32 34q6 30 37 30
q21 0 35 -12.5t14 -36.5q0 -14 -8.5 -26.5t-22.5 -13.5l-32 -34q38 -62 38 -127q0 -82 -39 -138l32 -33q11 -2 20.5 -14.5t9.5 -26.5q0 -24 -13 -36t-33 -12q-21 0 -33 11t-12 26l-26 26q-56 -45 -133 -45zM264 163h1q58 0 98 46t40 106q0 48 -32 94t-79 46q-60 0 -99 -44
t-39 -114q0 -55 29 -94.5t81 -39.5z" />
    <glyph glyph-name="yen" unicode="&#xa5;" horiz-adv-x="656" 
d="M251 73v33l-94 -5q-22 -13 -39 -13q-35 0 -35 46q0 17 10.5 29.5t24.5 12.5q24 0 36 -6l97 6v66l-95 -5q-20 -13 -37 -13q-36 0 -36 49q0 16 10.5 27.5t24.5 11.5q22 0 35 -6l98 6v14q-20 35 -62 73.5t-86 79.5t-68 80q-31 12 -31 47q0 21 20 35t41 15q19 0 32 -13
t12 -31q18 -36 94.5 -108t96.5 -100h2q24 30 89.5 87t90.5 91q18 22 21 32q7 20 18 31t33 11q21 0 34 -11.5t13 -31.5q0 -23 -27 -57q-6 -9 -37 -45q-21 -23 -95 -85t-95 -98v-11l121 6q17 10 35 10q14 0 23 -10t9 -28q0 -21 -12 -34.5t-30 -13.5q-15 0 -23 6l-123 -7v-65
l121 7q16 11 35 11q14 0 23 -11t9 -28q0 -22 -11 -35t-31 -13q-15 0 -23 6l-123 -7v-39q11 -14 11 -27q0 -22 -16.5 -36t-49.5 -14q-28 0 -40 9.5t-12 37.5q0 22 11 31z" />
    <glyph glyph-name="brokenbar" unicode="&#xa6;" horiz-adv-x="264" 
d="M176 564v-200q16 -12 16 -35q0 -16 -14.5 -25t-37.5 -9q-58 0 -58 45q0 12 6 24v200q-11 19 -11 43q0 38 64 38q49 0 49 -38q0 -35 -14 -43zM88 -76v200q-11 19 -11 43q0 38 64 38q49 0 49 -38q0 -35 -14 -43v-200q16 -12 16 -35q0 -16 -14.5 -25t-37.5 -9q-58 0 -58 45
q0 10 6 24z" />
    <glyph glyph-name="section" unicode="&#xa7;" horiz-adv-x="593" 
d="M352 647h1q68 0 116 -29t48 -55q0 -16 -16.5 -33t-37.5 -17q-18 0 -26.5 8t-7.5 20q-28 26 -89 26q-67 0 -121.5 -32t-54.5 -80q0 -43 52 -43q26 0 90 10t94 10q71 0 111 -33.5t40 -98.5q0 -52 -33 -94q18 -27 18 -57q0 -94 -95.5 -157t-218.5 -63q-94 0 -140.5 40.5
t-46.5 83.5q0 20 13 34t32 14q37 0 46 -39q4 -19 29.5 -36t62.5 -17q95 0 157.5 37.5t62.5 92.5q0 48 -68 48q-21 0 -92 -13t-107 -12q-54 0 -91 32.5t-37 78.5q0 59 42 107q-19 26 -19 61q0 68 49 117t111.5 69t125.5 20zM384 354h-1q-27 0 -89.5 -10.5t-81.5 -10.5
q-33 0 -54 6q-19 -23 -19 -57q0 -19 16 -30t39 -11q26 0 90.5 12t85.5 12q48 0 73 -12q12 21 12 45q0 56 -71 56z" />
    <glyph glyph-name="dieresis" unicode="&#xa8;" 
d="M84 500h-1q-19 0 -29.5 19t-10.5 39q0 58 52 58q48 0 48 -43q0 -38 -12 -55.5t-47 -17.5zM251 503h-1q-45 0 -45 54q0 25 11.5 42.5t35.5 17.5q20 0 36.5 -13.5t16.5 -38.5q0 -62 -54 -62z" />
    <glyph glyph-name="copyright" unicode="&#xa9;" horiz-adv-x="812" 
d="M344 -30h-1q-47 0 -96 16.5t-93.5 48.5t-72.5 86.5t-28 122.5q0 99 54.5 194.5t146 156.5t189.5 61q33 0 71.5 -8.5t82.5 -30t79.5 -53.5t59 -83.5t23.5 -115.5q0 -82 -28 -150t-72 -112.5t-99.5 -75t-110 -44t-105.5 -13.5zM346 37h1q39 0 82 11t88 36t81 61t59 92.5
t23 123.5q0 59 -25 105.5t-63.5 72t-77.5 38t-74 12.5q-114 0 -211 -110t-97 -235q0 -42 14.5 -77.5t37 -59t51.5 -40t57 -23.5t54 -7zM341 118h-1q-63 0 -101.5 30t-38.5 96q0 102 95.5 174.5t215.5 72.5q49 0 49 -71q11 -8 11 -22q0 -11 -11.5 -21.5t-37.5 -10.5
q-39 0 -39 25q0 3 2 9t2 10q0 14 -8 14q-62 0 -126 -54t-64 -127q0 -57 55 -57q56 0 105 29.5t60 63.5q7 17 25 17q20 0 32 -13t12 -30q0 -16 -34 -47.5t-92 -59.5t-111 -28z" />
    <glyph glyph-name="ordfeminine" unicode="&#xaa;" horiz-adv-x="410" 
d="M287 524v41q0 27 -33 27q-56 0 -111 -28q1 -8 -10 -14.5t-24 -6.5q-16 0 -26.5 11t-11.5 28q0 13 10 22t23 7q80 44 175 44q40 0 63 -19.5t23 -51.5v-201q8 -13 8 -20q0 -12 -17.5 -18.5t-42.5 -6.5q-35 0 -35 19q0 4 1.5 7t4 6.5t3.5 5.5v29q-24 -32 -74 -53t-101 -21
q-38 0 -61 19t-23 47q0 58 62.5 98t135.5 40q39 0 61 -11zM140 395h1q38 0 90.5 25.5t51.5 50.5q0 16 -50 16q-48 -1 -85 -24t-37 -50q0 -18 29 -18z" />
    <glyph glyph-name="guillemotleft" unicode="&#xab;" horiz-adv-x="486" 
d="M138 102l-99 135q-21 15 -21 44q0 11 7 24t16 19l142 141q11 28 48 28q17 0 32 -13t15 -32q0 -16 -11.5 -28t-26.5 -14l-121 -127l85 -121q11 0 21 -11.5t10 -28.5q0 -19 -15 -33t-34 -14q-40 0 -48 31zM338 102l-99 135q-21 15 -21 44q0 11 7 24t16 19l142 141
q11 28 48 28q17 0 32 -13t15 -32q0 -16 -11 -28.5t-27 -13.5l-121 -127l85 -121q11 0 21 -11.5t10 -28.5q0 -18 -15 -32.5t-33 -14.5q-41 0 -49 31z" />
    <glyph glyph-name="logicalnot" unicode="&#xac;" horiz-adv-x="554" 
d="M403 284h-286q-18 -6 -31 -6q-37 0 -37 43q0 56 41 56q17 0 27 -5h313q69 0 69 -46q0 -24 -8 -38v-104q8 -10 8 -26q0 -20 -13.5 -31.5t-30.5 -11.5q-28 0 -45 10t-17 27q0 26 10 39v93z" />
    <glyph glyph-name="registered" unicode="&#xae;" horiz-adv-x="812" 
d="M345 -30h-1q-48 0 -98 16.5t-94.5 48.5t-73 86.5t-28.5 122.5q0 99 55 194.5t147 156.5t191 61q33 0 72.5 -8.5t84 -30t80 -53.5t59 -83.5t23.5 -115.5q0 -82 -28 -150t-72 -112.5t-100 -75t-111 -44t-106 -13.5zM347 37h1q50 0 105 18.5t108 55t87.5 102t34.5 149.5
q0 48 -17 87.5t-43.5 64.5t-59.5 42.5t-64 25t-59 7.5q-76 0 -149 -51.5t-117.5 -132t-44.5 -161.5q0 -52 22 -94t55.5 -65.5t70 -35.5t70.5 -12zM350 220v-65q0 -52 -61 -52q-15 0 -20 4t-5 19q0 13 5 28v282q0 19 10 29t24 10q25 0 45 -13q72 40 127 40q85 0 85 -73
q0 -101 -165 -163q56 -63 86 -63t33 26q1 9 8.5 15.5t18.5 6.5q17 0 28 -10t11 -25q0 -30 -37 -56t-71 -26q-30 0 -56 18t-66 68zM350 402v-92q62 20 96 47t34 55q0 26 -25 26q-43 0 -105 -36z" />
    <glyph glyph-name="macron" unicode="&#xaf;" 
d="M260 550l-164 -19q-14 -4 -24 -4q-14 0 -23 11.5t-9 27.5q0 19 10.5 30t21.5 11q8 0 20 -6l157 18q21 7 24 7q14 0 23.5 -11t9.5 -28q0 -22 -16 -32t-30 -5z" />
    <glyph glyph-name="macron" unicode="&#x2c9;" 
d="M260 550l-164 -19q-14 -4 -24 -4q-14 0 -23 11.5t-9 27.5q0 19 10.5 30t21.5 11q8 0 20 -6l157 18q21 7 24 7q14 0 23.5 -11t9.5 -28q0 -22 -16 -32t-30 -5z" />
    <glyph glyph-name="degree" unicode="&#xb0;" horiz-adv-x="302" 
d="M168 666h1q49 0 77 -34.5t28 -88.5q0 -59 -36 -100.5t-99 -41.5q-45 0 -73.5 37.5t-28.5 79.5q0 74 37 111t94 37zM166 597h-1q-28 0 -44 -18.5t-16 -48.5q0 -60 46 -60q26 0 40 21.5t14 55.5q0 23 -11 36.5t-28 13.5z" />
    <glyph glyph-name="plusminus" unicode="&#xb1;" horiz-adv-x="554" 
d="M315 416v-65h109q3 1 13.5 6t16.5 5q42 0 42 -54q0 -25 -11.5 -38.5t-30.5 -13.5q-11 0 -30 7h-109v-72q11 -13 11 -26q0 -22 -15 -34.5t-33 -12.5q-27 0 -44.5 11t-17.5 28q0 24 11 39v67h-107q-27 -8 -32 -8q-40 0 -40 45q0 30 11.5 44.5t31.5 13.5q12 0 28 -7h108v66
q-11 14 -11 33q0 14 12.5 24.5t34.5 10.5q29 0 44.5 -13t15.5 -29q0 -13 -8 -27zM424 0h-304q-30 -9 -32 -9q-40 0 -40 46q0 58 43 58q12 0 28 -7h305q3 1 13.5 6t16.5 5q20 0 31 -14.5t11 -39.5t-11.5 -39t-30.5 -14q-9 0 -30 8z" />
    <glyph glyph-name="twosuperior" unicode="&#xb2;" horiz-adv-x="380" 
d="M127 442l129 5q17 0 17 4q1 16 12 26.5t28 10.5q44 0 44 -47q0 -55 -44 -56l-222 -10q-32 -2 -46 7.5t-14 31.5q0 59 37.5 97t101.5 67q87 37 87 89q0 30 -45 30q-23 0 -37 -6.5t-18.5 -13.5t-9.5 -19q-4 -14 -7 -20t-14.5 -12.5t-32.5 -6.5q-18 0 -30 10t-12 22
q0 38 42.5 75t134.5 37q55 0 88 -22t33 -66q0 -52 -32 -85t-89 -59q-49 -23 -73 -43t-28 -46z" />
    <glyph glyph-name="threesuperior" unicode="&#xb3;" horiz-adv-x="413" 
d="M271 693l-125 -15q0 -46 -40 -46q-36 0 -36 58q0 50 37 50q28 0 117.5 11.5t103.5 11.5q39 0 39 -35q0 -25 -63 -96q40 2 66 -23.5t26 -72.5q0 -78 -63 -125t-154 -47q-36 0 -65.5 11t-46 26.5t-25 29t-8.5 22.5q0 15 14.5 28t35.5 13q23 0 36 -27q15 -37 67 -37t85.5 28
t33.5 68q0 46 -40 46q-31 0 -46.5 -19.5t-32.5 -19.5q-14 0 -23.5 7.5t-9.5 20.5q0 31 37 42q30 10 80 90z" />
    <glyph glyph-name="acute" unicode="&#xb4;" 
d="M286 603l-74 -77q-2 -13 -14 -23t-29 -10t-27.5 10t-10.5 26q0 11 7 21t17 12l76 78q-5 17 7 26t30 9q19 0 30 -11t11 -27q0 -27 -23 -34z" />
    <glyph glyph-name="mu" unicode="&#xb5;" horiz-adv-x="474" 
d="M314 168v206q-6 16 -6 26q0 17 14 27.5t33 10.5q23 0 40.5 -9.5t18.5 -25.5l-7 -29v-318q7 -12 7 -25q0 -15 -16.5 -25.5t-46.5 -10.5q-20 0 -32 8t-12 19q0 10 8 24v34q-79 -92 -141 -92q-15 0 -26 9v-180q15 -9 15 -34q0 -17 -17.5 -27.5t-38.5 -10.5q-26 0 -42.5 9
t-16.5 24q0 26 7 39v557q-6 18 -6 24q0 19 17 30t42 11q19 0 35 -10t16 -26q0 -21 -11 -28v-272q0 -17 10 -26.5t25 -9.5q26 0 64.5 29.5t66.5 71.5z" />
    <glyph glyph-name="mu" unicode="&#x3bc;" horiz-adv-x="474" 
d="M314 168v206q-6 16 -6 26q0 17 14 27.5t33 10.5q23 0 40.5 -9.5t18.5 -25.5l-7 -29v-318q7 -12 7 -25q0 -15 -16.5 -25.5t-46.5 -10.5q-20 0 -32 8t-12 19q0 10 8 24v34q-79 -92 -141 -92q-15 0 -26 9v-180q15 -9 15 -34q0 -17 -17.5 -27.5t-38.5 -10.5q-26 0 -42.5 9
t-16.5 24q0 26 7 39v557q-6 18 -6 24q0 19 17 30t42 11q19 0 35 -10t16 -26q0 -21 -11 -28v-272q0 -17 10 -26.5t25 -9.5q26 0 64.5 29.5t66.5 71.5z" />
    <glyph glyph-name="paragraph" unicode="&#xb6;" horiz-adv-x="548" 
d="M244 45v283q-50 -12 -90 -12q-68 0 -103 29t-35 75q0 57 55 109.5t146 84.5t190 32q16 10 34 10q59 0 59 -46q0 -23 -11 -28v-526q12 -14 12 -29q0 -38 -62 -38q-40 0 -40 32q0 10 4 26v528q-38 0 -73 -8v-519q13 -8 13 -25q0 -15 -21.5 -27t-40.5 -12q-22 0 -35 8.5
t-13 22.5q0 22 11 30zM244 405v141q-65 -21 -99.5 -53t-34.5 -65q0 -16 16 -26t45 -10q34 0 73 13z" />
    <glyph glyph-name="periodcentered" unicode="&#xb7;" horiz-adv-x="224" 
d="M92 151h-1q-18 0 -33 16t-15 44q0 25 17 46t45 21q48 0 48 -60q0 -28 -15 -47.5t-46 -19.5z" />
    <glyph glyph-name="periodcentered" unicode="&#x2219;" horiz-adv-x="224" 
d="M92 151h-1q-18 0 -33 16t-15 44q0 25 17 46t45 21q48 0 48 -60q0 -28 -15 -47.5t-46 -19.5z" />
    <glyph glyph-name="cedilla" unicode="&#xb8;" 
d="M225 13v-1q0 -20 -16 -24l-25 -42q30 1 50 -19.5t20 -58.5q0 -47 -33 -78.5t-88 -31.5q-27 0 -44 14q-7 -5 -16 -5q-8 0 -15 11t-7 24q0 15 10.5 27.5t21.5 12.5q6 0 12 -4.5t6 -9.5q16 -9 34 -9q28 0 44.5 13t16.5 33q0 28 -26 28q-6 0 -16 -5q-4 -7 -23 -7
q-10 0 -17 7.5t-7 18.5q0 19 13 30l52 83q0 10 7 17t17 7q11 0 20 -10t9 -21z" />
    <glyph glyph-name="onesuperior" unicode="&#xb9;" horiz-adv-x="242" 
d="M199 708v-259q0 -2 2 -14.5t2 -18.5q0 -19 -19 -30t-53 -11q-39 0 -39 25q0 9 3.5 17t11 19.5t8.5 12.5v195q-2 0 -21 -16.5t-29 -16.5q-13 0 -23 8.5t-10 22.5q0 22 52 61q16 12 33.5 28.5t28 24t21.5 7.5q15 0 28 -8t13 -21q0 -5 -9 -26z" />
    <glyph glyph-name="ordmasculine" unicode="&#xba;" horiz-adv-x="408" 
d="M371 523v-1q0 -67 -62.5 -129t-148.5 -62q-58 0 -90.5 32t-32.5 77q0 85 61.5 150t152.5 65q61 0 90.5 -42t29.5 -90zM286 524v1q0 66 -46 66t-82 -43t-36 -101q0 -52 49 -52q43 0 79 40.5t36 88.5z" />
    <glyph glyph-name="guillemotright" unicode="&#xbb;" horiz-adv-x="486" 
d="M171 282l-98 123q-36 7 -36 41q0 19 13.5 33t30.5 14q37 0 52 -31l118 -138q21 -13 21 -43q0 -28 -22 -44l-121 -136q0 -13 -14 -22t-33 -9q-20 0 -36 13t-16 32q0 15 10 27t22 14zM369 282l-98 123q-36 7 -36 41q0 19 13.5 33t30.5 14q37 0 52 -31l118 -138
q21 -13 21 -43q0 -28 -22 -44l-121 -136q0 -13 -14 -22t-33 -9q-20 0 -36 13t-16 32q0 15 10 27t22 14z" />
    <glyph glyph-name="onequarter" unicode="&#xbc;" horiz-adv-x="754" 
d="M106 24v1q0 13 5 21.5t13.5 14.5t10.5 10l307 540q8 46 39 46q22 0 41.5 -13.5t19.5 -32.5q0 -14 -9.5 -25t-19.5 -14l-305 -538q-1 -22 -17.5 -34t-36.5 -12q-48 0 -48 36zM190 593v-259q0 -2 2 -14.5t2 -18.5q0 -19 -19 -30t-53 -11q-39 0 -39 25q0 9 3.5 17t11 19.5
t8.5 12.5v195q-2 0 -21 -16.5t-29 -16.5q-13 0 -23 8.5t-10 22.5q0 22 52 61q16 12 33.5 28.5t28 24t21.5 7.5q15 0 28 -8t13 -21q0 -5 -9 -26zM636 325v-145l50 7q14 11 23 11q14 0 24 -9.5t10 -30.5q0 -38 -31 -38q-16 0 -26 8l-50 -6v-60q16 -8 16 -25q0 -42 -69 -42
q-20 0 -31 11t-11 23q0 20 9 26v56l-156 -19q-24 -6 -28 -6q-36 0 -36 44q0 16 26 36l189 198q7 26 55 26q18 0 31.5 -10t13.5 -24q0 -18 -9 -31zM550 170v117l-127 -134z" />
    <glyph glyph-name="onehalf" unicode="&#xbd;" horiz-adv-x="762" 
d="M108 23v1q0 14 5 22.5t13.5 15t10.5 9.5l307 540q7 46 39 46q21 0 41 -14t20 -32q0 -14 -10 -25t-20 -14l-304 -539q-1 -22 -17.5 -33.5t-36.5 -11.5q-48 0 -48 35zM190 593v-258q0 -3 2.5 -15.5t2.5 -18.5q0 -18 -19.5 -29.5t-53.5 -11.5q-16 0 -27.5 7t-11.5 18
q0 9 3.5 17.5t11 19.5t8.5 12v195q-2 0 -21 -16.5t-29 -16.5q-13 0 -23 8.5t-10 22.5q0 22 52 61q16 12 33.5 28.5t28 24t21.5 7.5q15 0 28 -8t13 -21q0 -5 -9 -26zM490 58l129 4q17 2 17 4q1 16 12 27t28 11q44 0 44 -48q0 -54 -44 -55l-222 -10q-32 -2 -46 7.5t-14 31.5
q0 58 37 96t102 67q86 37 86 89q0 30 -45 30q-22 0 -36 -6.5t-19 -13.5t-9 -20q-4 -14 -7 -19.5t-15 -12t-32 -6.5q-18 0 -30 10t-12 22q0 38 42.5 75t133.5 37q55 0 88 -22t33 -66q0 -52 -31.5 -84.5t-88.5 -59.5q-49 -22 -73 -42t-28 -46z" />
    <glyph glyph-name="threequarters" unicode="&#xbe;" horiz-adv-x="909" 
d="M257 23v1q0 14 5.5 22.5t14 14.5t10.5 10l307 540q8 46 40 46q21 0 40.5 -13.5t19.5 -32.5q0 -14 -9.5 -25t-19.5 -14l-305 -539q-1 -22 -17.5 -33.5t-36.5 -11.5q-49 0 -49 35zM262 577l-125 -14q0 -46 -40 -46q-36 0 -36 58q0 50 37 50q28 0 117.5 11.5t103.5 11.5
q39 0 39 -35q0 -25 -63 -96q40 2 66 -23.5t26 -72.5q0 -78 -63 -125t-154 -47q-36 0 -65.5 11t-46 26.5t-25 29t-8.5 22.5q0 15 14.5 28t35.5 13q23 0 36 -27q15 -37 67 -37t85.5 28t33.5 68q0 46 -40 46q-31 0 -46.5 -19.5t-32.5 -19.5q-14 0 -23.5 7.5t-9.5 20.5
q0 31 37 42q29 10 80 89zM792 324v-144l50 6q10 10 23 10q30 0 30 -38q0 -37 -27 -37q-19 0 -26 7l-50 -7v-59q16 -8 16 -25q0 -42 -69 -42q-20 0 -31 11t-11 23q0 19 9 25v57l-156 -20q-24 -6 -28 -6q-36 0 -36 44q0 17 26 37l189 197q7 26 55 26q18 0 31.5 -9.5
t13.5 -24.5q0 -17 -9 -31zM706 170v116l-127 -133z" />
    <glyph glyph-name="questiondown" unicode="&#xbf;" horiz-adv-x="464" 
d="M260 446h1q17 0 31.5 -14.5t14.5 -36.5q0 -75 -62 -75q-44 0 -44 60q0 26 15 46t44 20zM245 283h1q57 0 82.5 -19.5t25.5 -67.5q0 -44 -30.5 -82t-106.5 -97q-67 -53 -90.5 -82.5t-23.5 -56.5q0 -18 20.5 -32.5t56.5 -14.5q84 0 137 78q-2 21 11 36.5t28 15.5
q24 0 40.5 -14t16.5 -37q0 -14 -6 -26.5t-14 -13.5q-16 -20 -29 -33.5t-42.5 -36.5t-70 -35.5t-89.5 -12.5q-67 0 -112.5 35.5t-45.5 82.5q0 44 28 82.5t121 116.5q75 62 95.5 83t20.5 38q0 20 -28 20q-23 0 -34 -9.5t-11 -21.5q0 -10 -10.5 -18t-25.5 -8q-51 0 -51 39
q0 35 35 63t101 28z" />
    <glyph glyph-name="Agrave" unicode="&#xc0;" horiz-adv-x="625" 
d="M432 241l-247 -16q-65 -129 -68 -144q-1 -7 -1 -44q0 -42 -59 -42q-26 0 -39 13t-13 33q0 19 43 108q3 5 4.5 8t3.5 7.5t4 8.5l174 342q29 52 35 83q-1 27 15 47t43 20q24 0 38 -12t14 -26q0 -9 -3.5 -19.5t-3.5 -17.5q0 -14 22 -62t52 -108t38 -78q120 -245 120 -288
q0 -28 -16 -43.5t-43 -15.5q-23 0 -38 10.5t-15 27.5q0 9 3 20.5t3 15.5q0 26 -66 172zM224 304l175 12l-81 184zM285 842l63 -73q10 -2 18 -11t8 -21q0 -18 -12.5 -28t-31.5 -10q-15 0 -24 10.5t-9 22.5l-65 74q-23 10 -23 34q0 39 43 39q15 0 23.5 -11t9.5 -26z" />
    <glyph glyph-name="Aacute" unicode="&#xc1;" horiz-adv-x="625" 
d="M432 241l-247 -16q-65 -129 -68 -144q-1 -7 -1 -44q0 -42 -59 -42q-26 0 -39 13t-13 33q0 19 43 108q3 5 4.5 8t3.5 7.5t4 8.5l174 342q29 52 35 83q-1 27 15 47t43 20q24 0 38 -12t14 -26q0 -9 -3.5 -19.5t-3.5 -17.5q0 -14 22 -62t52 -108t38 -78q120 -245 120 -288
q0 -28 -16 -43.5t-43 -15.5q-23 0 -38 10.5t-15 27.5q0 9 3 20.5t3 15.5q0 26 -66 172zM224 304l175 12l-81 184zM434 811l-74 -77q-2 -13 -14 -23t-29 -10t-27.5 10t-10.5 26q0 11 7 21t17 12l76 78q-5 17 7 26t30 9q19 0 30 -11t11 -27q0 -27 -23 -34z" />
    <glyph glyph-name="Acircumflex" unicode="&#xc2;" horiz-adv-x="625" 
d="M432 241l-247 -16q-65 -129 -68 -144q-1 -7 -1 -44q0 -42 -59 -42q-26 0 -39 13t-13 33q0 19 43 108q3 5 4.5 8t3.5 7.5t4 8.5l174 342q29 52 35 83q-1 27 15 47t43 20q24 0 38 -12t14 -26q0 -9 -3.5 -19.5t-3.5 -17.5q0 -14 22 -62t52 -108t38 -78q120 -245 120 -288
q0 -28 -16 -43.5t-43 -15.5q-23 0 -38 10.5t-15 27.5q0 9 3 20.5t3 15.5q0 26 -66 172zM224 304l175 12l-81 184zM371 836l65 -91q20 -17 20 -34q0 -15 -12 -25.5t-32 -10.5q-15 0 -23 11t-6 24l-52 74l-70 -76q1 -14 -8 -23.5t-22 -9.5q-18 0 -30 12t-12 25q0 19 24 36
l85 95q19 21 35 21q21 0 38 -28z" />
    <glyph glyph-name="Atilde" unicode="&#xc3;" horiz-adv-x="625" 
d="M432 241l-247 -16q-65 -129 -68 -144q-1 -7 -1 -44q0 -42 -59 -42q-26 0 -39 13t-13 33q0 19 43 108q3 5 4.5 8t3.5 7.5t4 8.5l174 342q29 52 35 83q-1 27 15 47t43 20q24 0 38 -12t14 -26q0 -9 -3.5 -19.5t-3.5 -17.5q0 -14 22 -62t52 -108t38 -78q120 -245 120 -288
q0 -28 -16 -43.5t-43 -15.5q-23 0 -38 10.5t-15 27.5q0 9 3 20.5t3 15.5q0 26 -66 172zM224 304l175 12l-81 184zM381 703h-1q-42 0 -72 36q-21 23 -35 23q-26 0 -37 -31q-12 -23 -34 -23q-20 0 -29.5 10t-9.5 25q0 5 7 13.5t8 9.5q20 33 42 46.5t58 13.5q25 0 59 -30
q30 -30 48 -30q14 0 21.5 11t6.5 24q-1 15 9.5 22t25.5 7q16 0 27 -8.5t11 -18.5q0 -8 -5 -18q-12 -40 -35 -61t-65 -21z" />
    <glyph glyph-name="Adieresis" unicode="&#xc4;" horiz-adv-x="625" 
d="M432 241l-247 -16q-65 -129 -68 -144q-1 -7 -1 -44q0 -42 -59 -42q-26 0 -39 13t-13 33q0 19 43 108q3 5 4.5 8t3.5 7.5t4 8.5l174 342q29 52 35 83q-1 27 15 47t43 20q24 0 38 -12t14 -26q0 -9 -3.5 -19.5t-3.5 -17.5q0 -14 22 -62t52 -108t38 -78q120 -245 120 -288
q0 -28 -16 -43.5t-43 -15.5q-23 0 -38 10.5t-15 27.5q0 9 3 20.5t3 15.5q0 26 -66 172zM224 304l175 12l-81 184zM234 700h-1q-19 0 -29.5 19t-10.5 39q0 58 52 58q48 0 48 -43q0 -38 -12 -55.5t-47 -17.5zM401 703h-1q-45 0 -45 54q0 25 11.5 42.5t35.5 17.5
q20 0 36.5 -13.5t16.5 -38.5q0 -62 -54 -62z" />
    <glyph glyph-name="Aring" unicode="&#xc5;" horiz-adv-x="625" 
d="M432 241l-247 -16q-65 -129 -68 -144q-1 -7 -1 -44q0 -42 -59 -42q-26 0 -39 13t-13 33q0 19 43 108q3 5 4.5 8t3.5 7.5t4 8.5l174 342q29 52 35 83q-1 27 15 47t43 20q24 0 38 -12t14 -26q0 -9 -3.5 -19.5t-3.5 -17.5q0 -14 22 -62t52 -108t38 -78q120 -245 120 -288
q0 -28 -16 -43.5t-43 -15.5q-23 0 -38 10.5t-15 27.5q0 9 3 20.5t3 15.5q0 26 -66 172zM224 304l175 12l-81 184zM315 682h-1q-30 0 -49.5 25.5t-19.5 65.5q0 34 34 60t61 26q34 0 56 -22.5t22 -65.5q0 -40 -34 -64.5t-69 -24.5zM321 733h1q15 0 29 10.5t14 26.5
q0 38 -24 38q-16 0 -29.5 -11t-13.5 -29q0 -35 23 -35z" />
    <glyph glyph-name="AE" unicode="&#xc6;" horiz-adv-x="816" 
d="M487 269v-197q50 0 134.5 6.5t107.5 15.5q14 6 32 6q12 0 20.5 -11t8.5 -32q0 -26 -15.5 -39t-38.5 -13l-280 -13q-3 0 -18 -2.5t-26 -2.5q-41 0 -41 45q0 36 22 42v188l-181 -13q-59 -99 -79 -140t-20 -64t-18.5 -36.5t-44.5 -13.5q-21 0 -38 13.5t-17 35.5
q0 18 10.5 33t25.5 20q61 115 139 234q22 33 52.5 74t51.5 68t58.5 73.5t48.5 60.5q1 19 13.5 35.5t37.5 16.5q61 0 61 -30q0 -14 -5 -19l188 12q7 1 22.5 8t25.5 7q18 0 31 -13.5t13 -35.5q0 -25 -13 -40t-30 -15q-22 0 -42 10l-196 -12v-185l160 12q7 1 28 7.5t29 6.5
q41 0 41 -37q0 -28 -15 -39t-43 -13zM393 338v171q-69 -86 -127 -182z" />
    <glyph glyph-name="Ccedilla" unicode="&#xc7;" horiz-adv-x="560" 
d="M297 -12l-25 -42q30 1 50 -19.5t20 -58.5q0 -47 -33 -78.5t-89 -31.5q-26 0 -44 14q-7 -5 -15 -5t-15.5 11t-7.5 24q0 15 11 27.5t21 12.5q6 0 12 -4.5t6 -9.5q16 -9 35 -9q28 0 44.5 13t16.5 33q0 28 -26 28q-6 0 -16 -5q-5 -7 -23 -7q-11 0 -18 7.5t-7 18.5q0 17 13 30
l30 46q-93 2 -148 72t-55 203q0 79 36 169t108.5 159.5t160.5 69.5q81 0 135 -32t54 -70q0 -25 -14.5 -39t-37.5 -14q-40 0 -47 40q-3 14 -26.5 23.5t-57.5 9.5q-58 0 -109 -55t-78 -128.5t-27 -138.5q0 -90 38 -138t90 -48q43 0 88 24t68 55q7 57 54 57q24 0 37.5 -14
t13.5 -28q0 -29 -27 -62q-85 -87 -196 -110z" />
    <glyph glyph-name="Egrave" unicode="&#xc8;" horiz-adv-x="555" 
d="M166 277v-194l276 20q14 14 32 14q24 0 40 -14.5t16 -32.5q0 -30 -19 -40.5t-62 -10.5l-282 -20q-15 -17 -57 -17q-22 0 -37.5 13.5t-15.5 37.5q0 23 13 45v187q-18 17 -18 46q0 28 18 46v160q-21 11 -21 39q0 27 15 39q-5 5 -5 16q0 16 16 26t40 10t37.5 -10.5
t13.5 -26.5l238 21q21 15 37 15q27 0 42 -13.5t15 -32.5q0 -26 -16 -42.5t-42 -16.5q-16 0 -34 8l-240 -21v-168l191 24q20 14 36 14q24 0 39.5 -16t15.5 -36q0 -51 -59 -51q-11 0 -23 7zM246 824l63 -73q10 -2 18 -11t8 -21q0 -18 -12.5 -28t-31.5 -10q-15 0 -24 10.5
t-9 22.5l-65 74q-23 10 -23 34q0 39 43 39q15 0 23.5 -11t9.5 -26z" />
    <glyph glyph-name="Eacute" unicode="&#xc9;" horiz-adv-x="555" 
d="M166 277v-194l276 20q14 14 32 14q24 0 40 -14.5t16 -32.5q0 -30 -19 -40.5t-62 -10.5l-282 -20q-15 -17 -57 -17q-22 0 -37.5 13.5t-15.5 37.5q0 23 13 45v187q-18 17 -18 46q0 28 18 46v160q-21 11 -21 39q0 27 15 39q-5 5 -5 16q0 16 16 26t40 10t37.5 -10.5
t13.5 -26.5l238 21q21 15 37 15q27 0 42 -13.5t15 -32.5q0 -26 -16 -42.5t-42 -16.5q-16 0 -34 8l-240 -21v-168l191 24q20 14 36 14q24 0 39.5 -16t15.5 -36q0 -51 -59 -51q-11 0 -23 7zM394 793l-74 -77q-2 -13 -14 -23t-29 -10t-27.5 10t-10.5 26q0 11 7 21t17 12l76 78
q-5 17 7 26t30 9q19 0 30 -11t11 -27q0 -27 -23 -34z" />
    <glyph glyph-name="Ecircumflex" unicode="&#xca;" horiz-adv-x="555" 
d="M166 277v-194l276 20q14 14 32 14q24 0 40 -14.5t16 -32.5q0 -30 -19 -40.5t-62 -10.5l-282 -20q-15 -17 -57 -17q-22 0 -37.5 13.5t-15.5 37.5q0 23 13 45v187q-18 17 -18 46q0 28 18 46v160q-21 11 -21 39q0 27 15 39q-5 5 -5 16q0 16 16 26t40 10t37.5 -10.5
t13.5 -26.5l238 21q21 15 37 15q27 0 42 -13.5t15 -32.5q0 -26 -16 -42.5t-42 -16.5q-16 0 -34 8l-240 -21v-168l191 24q20 14 36 14q24 0 39.5 -16t15.5 -36q0 -51 -59 -51q-11 0 -23 7zM329 843l65 -91q20 -18 20 -34q0 -15 -12 -25.5t-32 -10.5q-15 0 -23 11t-6 24
l-52 74l-70 -76q1 -14 -8 -23.5t-22 -9.5q-18 0 -30 12t-12 25q0 19 24 36l85 95q19 21 35 21q21 0 38 -28z" />
    <glyph glyph-name="Edieresis" unicode="&#xcb;" horiz-adv-x="555" 
d="M166 277v-194l276 20q14 14 32 14q24 0 40 -14.5t16 -32.5q0 -30 -19 -40.5t-62 -10.5l-282 -20q-15 -17 -57 -17q-22 0 -37.5 13.5t-15.5 37.5q0 23 13 45v187q-18 17 -18 46q0 28 18 46v160q-21 11 -21 39q0 27 15 39q-5 5 -5 16q0 16 16 26t40 10t37.5 -10.5
t13.5 -26.5l238 21q21 15 37 15q27 0 42 -13.5t15 -32.5q0 -26 -16 -42.5t-42 -16.5q-16 0 -34 8l-240 -21v-168l191 24q20 14 36 14q24 0 39.5 -16t15.5 -36q0 -51 -59 -51q-11 0 -23 7zM191 694h-1q-19 0 -29.5 19t-10.5 39q0 58 52 58q48 0 48 -43q0 -38 -12 -55.5
t-47 -17.5zM358 697h-1q-45 0 -45 54q0 25 11.5 42.5t35.5 17.5q20 0 36.5 -13.5t16.5 -38.5q0 -62 -54 -62z" />
    <glyph glyph-name="Igrave" unicode="&#xcc;" horiz-adv-x="233" 
d="M165 551v-472q14 -20 14 -35q0 -19 -18 -34t-45 -15q-28 0 -44.5 14t-16.5 38q0 19 14 36v474q-12 8 -12 29q0 26 20.5 42.5t49.5 16.5q27 0 40.5 -16t13.5 -38t-16 -40zM85 838l63 -73q10 -2 18 -11t8 -21q0 -18 -12.5 -28t-31.5 -10q-15 0 -24 10.5t-9 22.5l-65 74
q-23 10 -23 34q0 39 43 39q15 0 23.5 -11t9.5 -26z" />
    <glyph glyph-name="Iacute" unicode="&#xcd;" horiz-adv-x="233" 
d="M165 551v-472q14 -20 14 -35q0 -19 -18 -34t-45 -15q-28 0 -44.5 14t-16.5 38q0 19 14 36v474q-12 8 -12 29q0 26 20.5 42.5t49.5 16.5q27 0 40.5 -16t13.5 -38t-16 -40zM233 806l-74 -77q-2 -13 -14 -23t-29 -10t-27.5 10t-10.5 26q0 11 7 21t17 12l76 78q-5 17 7 26
t30 9q19 0 30 -11t11 -27q0 -27 -23 -34z" />
    <glyph glyph-name="Icircumflex" unicode="&#xce;" horiz-adv-x="233" 
d="M165 551v-472q14 -20 14 -35q0 -19 -18 -34t-45 -15q-28 0 -44.5 14t-16.5 38q0 19 14 36v474q-12 8 -12 29q0 26 20.5 42.5t49.5 16.5q27 0 40.5 -16t13.5 -38t-16 -40zM167 837l65 -91q20 -18 20 -34q0 -15 -12 -25.5t-32 -10.5q-15 0 -23 11t-6 24l-52 74l-70 -76
q1 -14 -8 -23.5t-22 -9.5q-18 0 -30 12t-12 25q0 19 24 36l85 95q19 21 35 21q21 0 38 -28z" />
    <glyph glyph-name="Idieresis" unicode="&#xcf;" horiz-adv-x="233" 
d="M165 551v-472q14 -20 14 -35q0 -19 -18 -34t-45 -15q-28 0 -44.5 14t-16.5 38q0 19 14 36v474q-12 8 -12 29q0 26 20.5 42.5t49.5 16.5q27 0 40.5 -16t13.5 -38t-16 -40zM30 693h-1q-19 0 -29.5 19t-10.5 39q0 58 52 58q48 0 48 -43q0 -38 -12 -55.5t-47 -17.5zM197 696
h-1q-45 0 -45 54q0 25 11.5 42.5t35.5 17.5q20 0 36.5 -13.5t16.5 -38.5q0 -62 -54 -62z" />
    <glyph glyph-name="Eth" unicode="&#xd0;" horiz-adv-x="629" 
d="M66 29v1q0 26 12 40v205l-29 -2q-10 -6 -18 -6q-15 0 -24 8.5t-9 23.5q0 23 11.5 37t27.5 15l41 3v221q-7 16 -7 33q0 16 15.5 29.5t44.5 13.5q25 0 35.5 -14t6.5 -32q99 47 206 47q90 0 154.5 -65.5t64.5 -144.5q0 -92 -31.5 -173t-89.5 -138q-71 -68 -172 -106.5
t-179 -38.5q-60 0 -60 43zM173 519v-156l106 10l13 4q14 4 24 4q18 0 27.5 -12t9.5 -30q0 -22 -10 -36.5t-31 -14.5q-12 0 -36 6l-103 -10v-206q145 13 238 110q87 103 87 245q0 51 -40.5 94.5t-101.5 43.5q-91 0 -183 -52z" />
    <glyph glyph-name="Ntilde" unicode="&#xd1;" horiz-adv-x="612" 
d="M70 70v495q-8 13 -8 30q0 21 14 35.5t41 14.5q30 0 42 -9t12 -29q0 -30 37 -98q47 -84 138 -180q85 -90 108 -138h2q-3 129 -3 393l-3.5 7t-4.5 10t-2 10q0 23 14 34t34 11q23 0 41 -10t18 -28q0 -13 -8 -32v-530q12 -14 12 -27q0 -19 -12 -26.5t-43 -7.5q-21 0 -33 13.5
t-23 40.5q-17 37 -62 98.5t-83 101.5q-106 113 -140 189h-2q3 -180 3 -368q10 -15 10 -30q0 -45 -49 -45q-62 0 -62 48q0 15 12 27zM368 696h-1q-42 0 -72 36q-21 23 -35 23q-26 0 -37 -31q-11 -23 -34 -23q-20 0 -29.5 10t-9.5 25q0 5 7 13.5t8 9.5q20 33 42 46.5t58 13.5
q25 0 59 -30q30 -30 48 -30q14 0 21.5 11t6.5 24q-1 15 9.5 22t25.5 7q16 0 27 -8.5t11 -18.5q0 -8 -5 -18q-12 -40 -35 -61t-65 -21z" />
    <glyph glyph-name="Ograve" unicode="&#xd2;" horiz-adv-x="619" 
d="M359 674h1q96 0 159.5 -76t63.5 -234q0 -163 -99 -272.5t-241 -109.5q-58 0 -101.5 25t-67 65t-34.5 83.5t-11 88.5q0 99 45 199t123 165.5t162 65.5zM350 594h-1q-51 0 -102.5 -51.5t-84.5 -131t-33 -155.5q0 -50 12.5 -92t43.5 -72t76 -30q85 0 153.5 87t68.5 212
q0 115 -35 174t-98 59zM297 856l63 -73q10 -2 18 -11t8 -21q0 -18 -12.5 -28t-31.5 -10q-15 0 -24 10.5t-9 22.5l-65 74q-23 10 -23 34q0 39 43 39q15 0 23.5 -11t9.5 -26z" />
    <glyph glyph-name="Oacute" unicode="&#xd3;" horiz-adv-x="619" 
d="M359 674h1q96 0 159.5 -76t63.5 -234q0 -163 -99 -272.5t-241 -109.5q-58 0 -101.5 25t-67 65t-34.5 83.5t-11 88.5q0 99 45 199t123 165.5t162 65.5zM350 594h-1q-51 0 -102.5 -51.5t-84.5 -131t-33 -155.5q0 -50 12.5 -92t43.5 -72t76 -30q85 0 153.5 87t68.5 212
q0 115 -35 174t-98 59zM456 824l-74 -77q-2 -13 -14 -23t-29 -10t-27.5 10t-10.5 26q0 11 7 21t17 12l76 78q-5 17 7 26t30 9q19 0 30 -11t11 -27q0 -27 -23 -34z" />
    <glyph glyph-name="Ocircumflex" unicode="&#xd4;" horiz-adv-x="619" 
d="M359 674h1q96 0 159.5 -76t63.5 -234q0 -163 -99 -272.5t-241 -109.5q-58 0 -101.5 25t-67 65t-34.5 83.5t-11 88.5q0 99 45 199t123 165.5t162 65.5zM350 594h-1q-51 0 -102.5 -51.5t-84.5 -131t-33 -155.5q0 -50 12.5 -92t43.5 -72t76 -30q85 0 153.5 87t68.5 212
q0 115 -35 174t-98 59zM401 859l65 -91q20 -17 20 -34q0 -15 -12 -25.5t-32 -10.5q-15 0 -23 11t-6 24l-52 74l-70 -76q1 -14 -8 -23.5t-22 -9.5q-18 0 -30 12t-12 25q0 19 24 36l85 95q19 21 35 21q21 0 38 -28z" />
    <glyph glyph-name="Otilde" unicode="&#xd5;" horiz-adv-x="619" 
d="M359 674h1q96 0 159.5 -76t63.5 -234q0 -163 -99 -272.5t-241 -109.5q-58 0 -101.5 25t-67 65t-34.5 83.5t-11 88.5q0 99 45 199t123 165.5t162 65.5zM350 594h-1q-51 0 -102.5 -51.5t-84.5 -131t-33 -155.5q0 -50 12.5 -92t43.5 -72t76 -30q85 0 153.5 87t68.5 212
q0 115 -35 174t-98 59zM403 714h-1q-42 0 -72 36q-21 23 -35 23q-26 0 -37 -31q-12 -23 -34 -23q-20 0 -29.5 10t-9.5 25q0 5 7 13.5t8 9.5q20 33 42 46.5t58 13.5q25 0 59 -30q30 -30 48 -30q14 0 21.5 11t6.5 24q-1 15 9.5 22t25.5 7q16 0 27 -8.5t11 -18.5q0 -8 -5 -18
q-12 -40 -35 -61t-65 -21z" />
    <glyph glyph-name="Odieresis" unicode="&#xd6;" horiz-adv-x="619" 
d="M359 674h1q96 0 159.5 -76t63.5 -234q0 -163 -99 -272.5t-241 -109.5q-58 0 -101.5 25t-67 65t-34.5 83.5t-11 88.5q0 99 45 199t123 165.5t162 65.5zM350 594h-1q-51 0 -102.5 -51.5t-84.5 -131t-33 -155.5q0 -50 12.5 -92t43.5 -72t76 -30q85 0 153.5 87t68.5 212
q0 115 -35 174t-98 59zM264 705h-1q-19 0 -29.5 19t-10.5 39q0 58 52 58q48 0 48 -43q0 -38 -12 -55.5t-47 -17.5zM431 708h-1q-45 0 -45 54q0 25 11.5 42.5t35.5 17.5q20 0 36.5 -13.5t16.5 -38.5q0 -62 -54 -62z" />
    <glyph glyph-name="multiply" unicode="&#xd7;" horiz-adv-x="554" 
d="M273 278l109 110q4 19 17 31.5t31 12.5q19 0 36 -17t17 -42q0 -18 -12.5 -31.5t-25.5 -14.5l-110 -112l105 -106q43 -14 43 -47q0 -22 -17.5 -39t-39.5 -17q-34 0 -49 41l-104 107l-108 -108q1 -18 -14.5 -30.5t-37.5 -12.5q-23 0 -38 18.5t-15 41.5q0 20 18 35t30 16
l103 101l-108 108q-17 5 -30.5 18t-13.5 28q0 22 16 39.5t40 17.5q30 0 50 -40z" />
    <glyph glyph-name="Oslash" unicode="&#xd8;" horiz-adv-x="641" 
d="M102 61l-41 -41q1 -12 -13 -24.5t-31 -12.5q-20 0 -32 13.5t-12 34.5q0 17 9.5 31.5t21.5 14.5q9 0 15 -3l49 52q-19 57 -19 118q0 99 45 199t122.5 165.5t161.5 65.5q93 0 153 -67l46 44q2 12 13 21.5t24 9.5q18 0 33.5 -12t15.5 -33q0 -43 -45 -39l-48 -53
q32 -72 32 -181q0 -163 -99 -272.5t-240 -109.5q-103 0 -161 79zM153 212l312 321q-36 61 -96 61q-51 0 -102.5 -51.5t-84.5 -131t-33 -155.5q0 -21 4 -44zM490 466l-317 -328q39 -76 107 -76q86 0 154 86.5t68 212.5q0 57 -12 105z" />
    <glyph glyph-name="Ugrave" unicode="&#xd9;" horiz-adv-x="604" 
d="M236 -17h-1q-87 0 -127.5 44.5t-41.5 100.5v447q-13 25 1.5 45t44.5 20q47 0 47 -58v-462q7 -21 28.5 -36t51.5 -15q60 0 108 23.5t68.5 48t20.5 40.5v398q-9 7 -9 23q0 21 17 34t44 13q18 0 31.5 -11t13.5 -30q0 -14 -4 -21v-420q0 -17 -20 -51t-49 -55
q-95 -78 -224 -78zM245 827l63 -73q10 -2 18 -11t8 -21q0 -18 -12.5 -28t-31.5 -10q-15 0 -24 10.5t-9 22.5l-65 74q-23 10 -23 34q0 39 43 39q15 0 23.5 -11t9.5 -26z" />
    <glyph glyph-name="Uacute" unicode="&#xda;" horiz-adv-x="604" 
d="M236 -17h-1q-87 0 -127.5 44.5t-41.5 100.5v447q-13 25 1.5 45t44.5 20q47 0 47 -58v-462q7 -21 28.5 -36t51.5 -15q60 0 108 23.5t68.5 48t20.5 40.5v398q-9 7 -9 23q0 21 17 34t44 13q18 0 31.5 -11t13.5 -30q0 -14 -4 -21v-420q0 -17 -20 -51t-49 -55
q-95 -78 -224 -78zM407 798l-74 -77q-2 -13 -14 -23t-29 -10t-27.5 10t-10.5 26q0 11 7 21t17 12l76 78q-5 17 7 26t30 9q19 0 30 -11t11 -27q0 -27 -23 -34z" />
    <glyph glyph-name="Ucircumflex" unicode="&#xdb;" horiz-adv-x="604" 
d="M236 -17h-1q-87 0 -127.5 44.5t-41.5 100.5v447q-13 25 1.5 45t44.5 20q47 0 47 -58v-462q7 -21 28.5 -36t51.5 -15q60 0 108 23.5t68.5 48t20.5 40.5v398q-9 7 -9 23q0 21 17 34t44 13q18 0 31.5 -11t13.5 -30q0 -14 -4 -21v-420q0 -17 -20 -51t-49 -55
q-95 -78 -224 -78zM343 839l65 -91q20 -18 20 -34q0 -15 -12 -25.5t-32 -10.5q-15 0 -23 11t-6 24l-52 74l-70 -76q1 -14 -8 -23.5t-22 -9.5q-18 0 -30 12t-12 25q0 19 24 36l85 95q19 21 35 21q21 0 38 -28z" />
    <glyph glyph-name="Udieresis" unicode="&#xdc;" horiz-adv-x="604" 
d="M236 -17h-1q-87 0 -127.5 44.5t-41.5 100.5v447q-13 25 1.5 45t44.5 20q47 0 47 -58v-462q7 -21 28.5 -36t51.5 -15q60 0 108 23.5t68.5 48t20.5 40.5v398q-9 7 -9 23q0 21 17 34t44 13q18 0 31.5 -11t13.5 -30q0 -14 -4 -21v-420q0 -17 -20 -51t-49 -55
q-95 -78 -224 -78zM212 690h-1q-19 0 -29.5 19t-10.5 39q0 58 52 58q48 0 48 -43q0 -38 -12 -55.5t-47 -17.5zM379 693h-1q-45 0 -45 54q0 25 11.5 42.5t35.5 17.5q20 0 36.5 -13.5t16.5 -38.5q0 -62 -54 -62z" />
    <glyph glyph-name="Yacute" unicode="&#xdd;" horiz-adv-x="593" 
d="M249 83v230q-28 51 -108 127t-110 119q-30 12 -30 46q0 21 19.5 35.5t41.5 15.5q20 0 33.5 -13t12.5 -31q20 -35 94 -109t96 -109h2q24 33 86.5 93t89.5 94q17 22 23 33q15 42 53 42q21 0 34.5 -12.5t13.5 -31.5q0 -18 -28 -54q-8 -11 -25 -29.5t-18 -19.5
q-12 -14 -85.5 -83.5t-98.5 -113.5v-240q11 -14 11 -27q0 -22 -16.5 -36t-49.5 -14q-28 0 -40 10t-12 39t11 39zM408 791l-74 -77q-2 -13 -14 -23t-29 -10t-27.5 10t-10.5 26q0 11 7 21t17 12l76 78q-5 17 7 26t30 9q19 0 30 -11t11 -27q0 -27 -23 -34z" />
    <glyph glyph-name="Thorn" unicode="&#xde;" horiz-adv-x="548" 
d="M161 587v-96q112 57 235 57q65 0 101 -35.5t36 -92.5q0 -48 -38.5 -93t-96.5 -76.5t-121 -51.5t-116 -24v-109q13 -21 13 -35q0 -36 -65 -36q-19 0 -38.5 10.5t-19.5 24.5q0 15 14 37v516q-8 28 -8 31q0 16 19.5 28.5t46.5 12.5q20 0 36 -11.5t16 -24.5q0 -18 -14 -32z
M161 400v-143q56 5 119 27.5t108 57.5t45 70q0 19 -15 35t-43 16q-49 0 -112 -19.5t-102 -43.5z" />
    <glyph glyph-name="germandbls" unicode="&#xdf;" horiz-adv-x="604" 
d="M107 332l-43 -8q-12 -8 -23 -8q-34 0 -34 46q0 16 10.5 30t23.5 14q12 0 20 -4l46 9v83q0 77 57.5 129t143.5 52q72 0 122 -34t50 -95q0 -60 -50 -108q-42 -40 -42 -65q0 -27 79 -73q110 -65 110 -146q0 -89 -56.5 -130t-146.5 -41q-60 0 -99.5 28.5t-39.5 63.5
q0 59 51 59q15 0 25 -8.5t10 -19.5q0 -10 -6 -16q22 -29 62 -29q52 0 79 23.5t27 65.5q0 46 -101 106q-88 52 -88 109q0 48 46 90q24 23 35 41t11 43q0 58 -83 58q-49 0 -76 -32t-27 -73v-432q9 -14 9 -26q0 -39 -60 -39q-47 0 -47 37q0 5 2.5 12t2.5 10v278z" />
    <glyph glyph-name="agrave" unicode="&#xe0;" horiz-adv-x="488" 
d="M333 288v51q0 39 -36 39q-70 0 -138 -42q2 -4 -2.5 -10.5t-15 -12t-23.5 -5.5q-18 0 -30 15.5t-12 31.5q0 15 15 29.5t30 11.5q88 54 211 54q39 0 65 -24t26 -65v-307q8 -5 8 -23q0 -37 -66 -37q-42 0 -42 31q0 10 8 24v45h-2q-103 -112 -223 -112q-40 0 -66 21.5
t-26 58.5q0 73 86 141t233 85zM331 194v32q-93 -11 -159 -57t-66 -84q0 -23 33 -23q54 0 123 48.5t69 83.5zM229 637l63 -73q10 -2 18 -11t8 -21q0 -18 -12.5 -28t-31.5 -10q-15 0 -24 10.5t-9 22.5l-65 74q-23 10 -23 34q0 39 43 39q15 0 23.5 -11t9.5 -26z" />
    <glyph glyph-name="aacute" unicode="&#xe1;" horiz-adv-x="488" 
d="M333 288v51q0 39 -36 39q-70 0 -138 -42q2 -4 -2.5 -10.5t-15 -12t-23.5 -5.5q-18 0 -30 15.5t-12 31.5q0 15 15 29.5t30 11.5q88 54 211 54q39 0 65 -24t26 -65v-307q8 -5 8 -23q0 -37 -66 -37q-42 0 -42 31q0 10 8 24v45h-2q-103 -112 -223 -112q-40 0 -66 21.5
t-26 58.5q0 73 86 141t233 85zM331 194v32q-93 -11 -159 -57t-66 -84q0 -23 33 -23q54 0 123 48.5t69 83.5zM368 605l-74 -77q-2 -13 -14 -23t-29 -10t-27.5 10t-10.5 26q0 11 7 21t17 12l76 78q-5 17 7 26t30 9q19 0 30 -11t11 -27q0 -27 -23 -34z" />
    <glyph glyph-name="acircumflex" unicode="&#xe2;" horiz-adv-x="488" 
d="M333 288v51q0 39 -36 39q-70 0 -138 -42q2 -4 -2.5 -10.5t-15 -12t-23.5 -5.5q-18 0 -30 15.5t-12 31.5q0 15 15 29.5t30 11.5q88 54 211 54q39 0 65 -24t26 -65v-307q8 -5 8 -23q0 -37 -66 -37q-42 0 -42 31q0 10 8 24v45h-2q-103 -112 -223 -112q-40 0 -66 21.5
t-26 58.5q0 73 86 141t233 85zM331 194v32q-93 -11 -159 -57t-66 -84q0 -23 33 -23q54 0 123 48.5t69 83.5zM300 639l65 -91q20 -18 20 -34q0 -15 -12 -25.5t-32 -10.5q-15 0 -23 11t-6 24l-52 74l-70 -76q1 -14 -8 -23.5t-22 -9.5q-18 0 -30 12t-12 25q0 19 24 36l85 95
q19 21 35 21q21 0 38 -28z" />
    <glyph glyph-name="atilde" unicode="&#xe3;" horiz-adv-x="488" 
d="M333 288v51q0 39 -36 39q-70 0 -138 -42q2 -4 -2.5 -10.5t-15 -12t-23.5 -5.5q-18 0 -30 15.5t-12 31.5q0 15 15 29.5t30 11.5q88 54 211 54q39 0 65 -24t26 -65v-307q8 -5 8 -23q0 -37 -66 -37q-42 0 -42 31q0 10 8 24v45h-2q-103 -112 -223 -112q-40 0 -66 21.5
t-26 58.5q0 73 86 141t233 85zM331 194v32q-93 -11 -159 -57t-66 -84q0 -23 33 -23q54 0 123 48.5t69 83.5zM310 500h-1q-42 0 -72 36q-21 23 -35 23q-26 0 -37 -31q-11 -23 -34 -23q-20 0 -29.5 10t-9.5 25q0 5 7 13.5t8 9.5q20 33 42 46.5t58 13.5q25 0 59 -30
q30 -30 48 -30q14 0 21.5 11t6.5 24q-1 15 9.5 22t25.5 7q16 0 27 -8.5t11 -18.5q0 -8 -5 -18q-12 -40 -35 -61t-65 -21z" />
    <glyph glyph-name="adieresis" unicode="&#xe4;" horiz-adv-x="488" 
d="M333 288v51q0 39 -36 39q-70 0 -138 -42q2 -4 -2.5 -10.5t-15 -12t-23.5 -5.5q-18 0 -30 15.5t-12 31.5q0 15 15 29.5t30 11.5q88 54 211 54q39 0 65 -24t26 -65v-307q8 -5 8 -23q0 -37 -66 -37q-42 0 -42 31q0 10 8 24v45h-2q-103 -112 -223 -112q-40 0 -66 21.5
t-26 58.5q0 73 86 141t233 85zM331 194v32q-93 -11 -159 -57t-66 -84q0 -23 33 -23q54 0 123 48.5t69 83.5zM175 500h-1q-19 0 -29.5 19t-10.5 39q0 58 52 58q48 0 48 -43q0 -38 -12 -55.5t-47 -17.5zM342 503h-1q-45 0 -45 54q0 25 11.5 42.5t35.5 17.5q20 0 36.5 -13.5
t16.5 -38.5q0 -62 -54 -62z" />
    <glyph glyph-name="aring" unicode="&#xe5;" horiz-adv-x="488" 
d="M333 288v51q0 39 -36 39q-70 0 -138 -42q2 -4 -2.5 -10.5t-15 -12t-23.5 -5.5q-18 0 -30 15.5t-12 31.5q0 15 15 29.5t30 11.5q88 54 211 54q39 0 65 -24t26 -65v-307q8 -5 8 -23q0 -37 -66 -37q-42 0 -42 31q0 10 8 24v45h-2q-103 -112 -223 -112q-40 0 -66 21.5
t-26 58.5q0 73 86 141t233 85zM331 194v32q-93 -11 -159 -57t-66 -84q0 -23 33 -23q54 0 123 48.5t69 83.5zM246 476h-1q-30 0 -49.5 25.5t-19.5 65.5q0 34 34 60t61 26q34 0 56 -22.5t22 -65.5q0 -40 -34 -64.5t-69 -24.5zM252 527h1q15 0 29 10.5t14 26.5q0 38 -24 38
q-16 0 -29.5 -11t-13.5 -29q0 -35 23 -35z" />
    <glyph glyph-name="ae" unicode="&#xe6;" horiz-adv-x="784" 
d="M14 64v1q0 99 116 154q63 34 152 44l68 8v56q0 19 -10 31t-28 12q-85 0 -156 -51q0 -7 -13 -16t-32 -9q-17 0 -28 15t-11 29q0 17 12.5 31t28.5 13q98 64 218 64q44 0 74.5 -24t30.5 -57v-26q37 49 84.5 76.5t90.5 27.5q41 0 72.5 -15.5t47 -38.5t23 -43t7.5 -34
q0 -21 -16.5 -42.5t-45.5 -24.5l-256 -30q-15 -41 -15 -81q0 -32 22.5 -52t61.5 -20q47 0 88.5 21.5t68.5 55.5q-5 18 6 29t35 11q25 0 37.5 -11t11.5 -26q0 -6 -9.5 -22.5t-30.5 -39.5t-50 -44t-73.5 -36t-94.5 -15q-61 0 -99.5 28.5t-50.5 72.5q-33 -43 -98 -73.5
t-124 -30.5q-55 0 -85 21.5t-30 60.5zM481 284l196 25q1 19 -17 39.5t-51 20.5q-66 0 -128 -85zM350 205l-57 -7q-73 -8 -125 -34q-60 -34 -60 -81q0 -24 40 -24q46 0 123.5 48.5t78.5 97.5z" />
    <glyph glyph-name="ccedilla" unicode="&#xe7;" horiz-adv-x="464" 
d="M237 -16l-23 -38q30 1 50 -19.5t20 -58.5q0 -47 -33 -78.5t-89 -31.5q-26 0 -44 14q-7 -5 -16 -5q-8 0 -15 11t-7 24q0 15 10.5 27.5t21.5 12.5q6 0 12 -4.5t6 -9.5q16 -9 34 -9q28 0 45 13t17 33q0 28 -26 28q-6 0 -16 -5q-5 -7 -24 -7q-10 0 -17 7.5t-7 18.5
q0 19 13 30l30 45q-67 3 -107 47t-40 113q0 79 25 128t78 103q24 26 68.5 48.5t82.5 22.5q58 0 98.5 -22.5t40.5 -54.5q0 -50 -57 -50q-10 0 -17 4.5t-9 8t-7 12.5q-10 25 -47 25q-48 0 -93 -50q-71 -69 -71 -159q0 -47 23.5 -72.5t68.5 -25.5q30 0 64 22q41 24 58 60
q6 24 14.5 35t29.5 11q25 0 37 -13.5t12 -27.5q0 -13 -24.5 -50.5t-61.5 -65.5q-53 -40 -108 -47z" />
    <glyph glyph-name="egrave" unicode="&#xe8;" horiz-adv-x="468" 
d="M291 444h1q40 0 70 -13.5t45.5 -34t23 -39.5t7.5 -36q0 -26 -16 -44.5t-76.5 -41t-170.5 -41.5l-46 -8q-7 -22 -7 -54q0 -70 69 -70q47 0 88 21.5t57 45.5q-2 18 12 31t38 13q45 0 45 -44q0 -12 -17 -34.5t-46.5 -48t-80 -44t-107.5 -18.5q-150 0 -150 140
q0 135 80 227.5t181 92.5zM289 368h-1q-42 0 -80 -30.5t-61 -80.5q84 15 130.5 26.5t59 18.5t12.5 15q0 20 -15 35.5t-45 15.5zM227 633l63 -73q10 -2 18 -11t8 -21q0 -18 -12.5 -28t-31.5 -10q-15 0 -24 10.5t-9 22.5l-65 74q-23 10 -23 34q0 39 43 39q15 0 23.5 -11
t9.5 -26z" />
    <glyph glyph-name="eacute" unicode="&#xe9;" horiz-adv-x="468" 
d="M291 444h1q40 0 70 -13.5t45.5 -34t23 -39.5t7.5 -36q0 -26 -16 -44.5t-76.5 -41t-170.5 -41.5l-46 -8q-7 -22 -7 -54q0 -70 69 -70q47 0 88 21.5t57 45.5q-2 18 12 31t38 13q45 0 45 -44q0 -12 -17 -34.5t-46.5 -48t-80 -44t-107.5 -18.5q-150 0 -150 140
q0 135 80 227.5t181 92.5zM289 368h-1q-42 0 -80 -30.5t-61 -80.5q84 15 130.5 26.5t59 18.5t12.5 15q0 20 -15 35.5t-45 15.5zM374 605l-74 -77q-2 -13 -14 -23t-29 -10t-27.5 10t-10.5 26q0 11 7 21t17 12l76 78q-5 17 7 26t30 9q19 0 30 -11t11 -27q0 -27 -23 -34z" />
    <glyph glyph-name="ecircumflex" unicode="&#xea;" horiz-adv-x="468" 
d="M291 444h1q40 0 70 -13.5t45.5 -34t23 -39.5t7.5 -36q0 -26 -16 -44.5t-76.5 -41t-170.5 -41.5l-46 -8q-7 -22 -7 -54q0 -70 69 -70q47 0 88 21.5t57 45.5q-2 18 12 31t38 13q45 0 45 -44q0 -12 -17 -34.5t-46.5 -48t-80 -44t-107.5 -18.5q-150 0 -150 140
q0 135 80 227.5t181 92.5zM289 368h-1q-42 0 -80 -30.5t-61 -80.5q84 15 130.5 26.5t59 18.5t12.5 15q0 20 -15 35.5t-45 15.5zM313 638l65 -91q20 -17 20 -34q0 -15 -12 -25.5t-32 -10.5q-15 0 -23 11t-6 24l-52 74l-70 -76q1 -14 -8 -23.5t-22 -9.5q-18 0 -30 12t-12 25
q0 19 24 36l85 95q19 21 35 21q21 0 38 -28z" />
    <glyph glyph-name="edieresis" unicode="&#xeb;" horiz-adv-x="468" 
d="M291 444h1q40 0 70 -13.5t45.5 -34t23 -39.5t7.5 -36q0 -26 -16 -44.5t-76.5 -41t-170.5 -41.5l-46 -8q-7 -22 -7 -54q0 -70 69 -70q47 0 88 21.5t57 45.5q-2 18 12 31t38 13q45 0 45 -44q0 -12 -17 -34.5t-46.5 -48t-80 -44t-107.5 -18.5q-150 0 -150 140
q0 135 80 227.5t181 92.5zM289 368h-1q-42 0 -80 -30.5t-61 -80.5q84 15 130.5 26.5t59 18.5t12.5 15q0 20 -15 35.5t-45 15.5zM179 498h-1q-19 0 -29.5 19t-10.5 39q0 58 52 58q48 0 48 -43q0 -38 -12 -55.5t-47 -17.5zM346 501h-1q-45 0 -45 54q0 25 11.5 42.5t35.5 17.5
q20 0 36.5 -13.5t16.5 -38.5q0 -62 -54 -62z" />
    <glyph glyph-name="igrave" unicode="&#xec;" horiz-adv-x="215" 
d="M165 392v-1q0 -8 -2 -14.5t-5.5 -12t-3.5 -6.5v-286q13 -10 13 -28q0 -23 -23 -36t-50 -13q-20 0 -32.5 13t-12.5 34q0 19 12 34v278q-9 9 -9 26q0 13 1.5 21t7 18t19 14.5t35.5 4.5q17 0 33.5 -15.5t16.5 -30.5zM75 635l63 -73q10 -2 18 -11t8 -21q0 -18 -12.5 -28
t-31.5 -10q-15 0 -24 10.5t-9 22.5l-65 74q-23 10 -23 34q0 39 43 39q15 0 23.5 -11t9.5 -26z" />
    <glyph glyph-name="iacute" unicode="&#xed;" horiz-adv-x="215" 
d="M165 392v-1q0 -8 -2 -14.5t-5.5 -12t-3.5 -6.5v-286q13 -10 13 -28q0 -23 -23 -36t-50 -13q-20 0 -32.5 13t-12.5 34q0 19 12 34v278q-9 9 -9 26q0 13 1.5 21t7 18t19 14.5t35.5 4.5q17 0 33.5 -15.5t16.5 -30.5zM219 605l-74 -77q-2 -13 -14 -23t-29 -10t-27.5 10
t-10.5 26q0 11 7 21t17 12l76 78q-5 17 7 26t30 9q19 0 30 -11t11 -27q0 -27 -23 -34z" />
    <glyph glyph-name="icircumflex" unicode="&#xee;" horiz-adv-x="215" 
d="M165 392v-1q0 -8 -2 -14.5t-5.5 -12t-3.5 -6.5v-286q13 -10 13 -28q0 -23 -23 -36t-50 -13q-20 0 -32.5 13t-12.5 34q0 19 12 34v278q-9 9 -9 26q0 13 1.5 21t7 18t19 14.5t35.5 4.5q17 0 33.5 -15.5t16.5 -30.5zM156 634l65 -91q20 -17 20 -34q0 -15 -12 -25.5
t-32 -10.5q-15 0 -23 11t-6 24l-52 74l-70 -76q1 -14 -8 -23.5t-22 -9.5q-18 0 -30 12t-12 25q0 19 24 36l85 95q19 21 35 21q21 0 38 -28z" />
    <glyph glyph-name="idieresis" unicode="&#xef;" horiz-adv-x="215" 
d="M165 392v-1q0 -8 -2 -14.5t-5.5 -12t-3.5 -6.5v-286q13 -10 13 -28q0 -23 -23 -36t-50 -13q-20 0 -32.5 13t-12.5 34q0 19 12 34v278q-9 9 -9 26q0 13 1.5 21t7 18t19 14.5t35.5 4.5q17 0 33.5 -15.5t16.5 -30.5zM19 500h-1q-19 0 -29.5 19t-10.5 39q0 58 52 58
q48 0 48 -43q0 -38 -12 -55.5t-47 -17.5zM186 503h-1q-45 0 -45 54q0 25 11.5 42.5t35.5 17.5q20 0 36.5 -13.5t16.5 -38.5q0 -62 -54 -62z" />
    <glyph glyph-name="eth" unicode="&#xf0;" horiz-adv-x="502" 
d="M311 508l-59 -29q-8 -20 -41 -20q-13 0 -21.5 9.5t-8.5 22.5q0 19 12 30t29 9l36 18q-34 24 -68 24q-2 0 -10 -2.5t-16 -2.5q-14 0 -24.5 10.5t-10.5 28.5q0 22 14 36.5t31 14.5q24 0 31 -13q61 -5 126 -50l50 25q11 18 34 18q36 0 36 -29q0 -38 -36 -39l-39 -19
q94 -101 94 -253q0 -142 -85 -228.5t-199 -86.5q-44 0 -76.5 16t-48.5 41.5t-23 51t-7 51.5q0 117 73 206.5t183 89.5q27 0 51.5 -10t35.5 -24q-6 29 -25 58.5t-38 45.5zM296 363h-1q-71 0 -120.5 -64t-49.5 -149q0 -40 17.5 -65t53.5 -25q71 0 125 60t54 137q0 106 -79 106
z" />
    <glyph glyph-name="ntilde" unicode="&#xf1;" horiz-adv-x="474" 
d="M157 265v-210q7 -10 7 -24q0 -18 -19 -27t-43 -9q-21 0 -35.5 8.5t-14.5 25.5t12 28v156q-15 9 -15 33q0 20 15 58v80q-8 14 -8 30q0 15 19.5 28t42.5 13q49 0 49 -35q0 -14 -10 -31v-39q126 105 183 105q27 0 51 -21t24 -45v-326q6 -18 6 -26q0 -42 -57 -42
q-51 0 -51 38q0 12 9 26v280q0 5 -9 12t-14 7q-32 0 -142 -93zM294 501h-1q-42 0 -72 36q-21 23 -35 23q-26 0 -37 -31q-11 -23 -34 -23q-20 0 -29.5 10t-9.5 25q0 5 7 13.5t8 9.5q20 33 42 46.5t58 13.5q25 0 59 -30q30 -30 48 -30q14 0 21.5 11t6.5 24q-1 15 9.5 22
t25.5 7q16 0 27 -8.5t11 -18.5q0 -8 -5 -18q-12 -40 -35 -61t-65 -21z" />
    <glyph glyph-name="ograve" unicode="&#xf2;" horiz-adv-x="492" 
d="M306 448h1q44 0 75.5 -19t47 -49.5t22.5 -60t7 -60.5q0 -55 -25.5 -105.5t-51.5 -76.5q-57 -56 -102 -75.5t-112 -19.5q-50 0 -94 41t-44 118q0 131 81 219t195 88zM289 370h-1q-62 0 -113 -65t-51 -149q0 -43 19 -69.5t47 -26.5q62 0 115 52q60 58 60 142q0 116 -76 116
zM228 637l63 -73q10 -2 18 -11t8 -21q0 -18 -12.5 -28t-31.5 -10q-15 0 -24 10.5t-9 22.5l-65 74q-23 10 -23 34q0 39 43 39q15 0 23.5 -11t9.5 -26z" />
    <glyph glyph-name="oacute" unicode="&#xf3;" horiz-adv-x="492" 
d="M306 448h1q44 0 75.5 -19t47 -49.5t22.5 -60t7 -60.5q0 -55 -25.5 -105.5t-51.5 -76.5q-57 -56 -102 -75.5t-112 -19.5q-50 0 -94 41t-44 118q0 131 81 219t195 88zM289 370h-1q-62 0 -113 -65t-51 -149q0 -43 19 -69.5t47 -26.5q62 0 115 52q60 58 60 142q0 116 -76 116
zM382 605l-74 -77q-2 -13 -14 -23t-29 -10t-27.5 10t-10.5 26q0 11 7 21t17 12l76 78q-5 17 7 26t30 9q19 0 30 -11t11 -27q0 -27 -23 -34z" />
    <glyph glyph-name="ocircumflex" unicode="&#xf4;" horiz-adv-x="492" 
d="M306 448h1q44 0 75.5 -19t47 -49.5t22.5 -60t7 -60.5q0 -55 -25.5 -105.5t-51.5 -76.5q-57 -56 -102 -75.5t-112 -19.5q-50 0 -94 41t-44 118q0 131 81 219t195 88zM289 370h-1q-62 0 -113 -65t-51 -149q0 -43 19 -69.5t47 -26.5q62 0 115 52q60 58 60 142q0 116 -76 116
zM325 639l65 -91q20 -18 20 -34q0 -15 -12 -25.5t-32 -10.5q-15 0 -23 11t-6 24l-52 74l-70 -76q1 -14 -8 -23.5t-22 -9.5q-18 0 -30 12t-12 25q0 19 24 36l85 95q19 21 35 21q21 0 38 -28z" />
    <glyph glyph-name="otilde" unicode="&#xf5;" horiz-adv-x="492" 
d="M306 448h1q44 0 75.5 -19t47 -49.5t22.5 -60t7 -60.5q0 -55 -25.5 -105.5t-51.5 -76.5q-57 -56 -102 -75.5t-112 -19.5q-50 0 -94 41t-44 118q0 131 81 219t195 88zM289 370h-1q-62 0 -113 -65t-51 -149q0 -43 19 -69.5t47 -26.5q62 0 115 52q60 58 60 142q0 116 -76 116
zM331 495h-1q-42 0 -72 36q-21 23 -35 23q-26 0 -37 -31q-12 -23 -34 -23q-20 0 -29.5 10t-9.5 25q0 5 7 13.5t8 9.5q20 33 42 46.5t58 13.5q25 0 59 -30q30 -30 48 -30q14 0 21.5 11t6.5 24q-1 15 9.5 22t25.5 7q16 0 27 -8.5t11 -18.5q0 -8 -5 -18q-12 -40 -35 -61
t-65 -21z" />
    <glyph glyph-name="odieresis" unicode="&#xf6;" horiz-adv-x="492" 
d="M306 448h1q44 0 75.5 -19t47 -49.5t22.5 -60t7 -60.5q0 -55 -25.5 -105.5t-51.5 -76.5q-57 -56 -102 -75.5t-112 -19.5q-50 0 -94 41t-44 118q0 131 81 219t195 88zM289 370h-1q-62 0 -113 -65t-51 -149q0 -43 19 -69.5t47 -26.5q62 0 115 52q60 58 60 142q0 116 -76 116
zM186 498h-1q-19 0 -29.5 19t-10.5 39q0 58 52 58q48 0 48 -43q0 -38 -12 -55.5t-47 -17.5zM353 501h-1q-45 0 -45 54q0 25 11.5 42.5t35.5 17.5q20 0 36.5 -13.5t16.5 -38.5q0 -62 -54 -62z" />
    <glyph glyph-name="divide" unicode="&#xf7;" horiz-adv-x="554" 
d="M277 321h-1q-28 0 -43 14.5t-15 38.5t16 40t42 16q18 0 33 -17.5t15 -43.5q0 -19 -12 -33.5t-35 -14.5zM424 180h-305q-21 -7 -32 -7q-37 0 -37 43q0 57 41 57q16 0 28 -5h305l30 9q39 0 39 -52q0 -51 -39 -51q-18 0 -30 6zM274 18h-1q-25 0 -40.5 14t-15.5 36
q0 24 16.5 41.5t48.5 17.5q18 0 29 -13.5t11 -32.5q0 -27 -15 -45t-33 -18z" />
    <glyph glyph-name="oslash" unicode="&#xf8;" horiz-adv-x="506" 
d="M410 415l25 25q9 23 31 22q18 0 30.5 -9t12.5 -28t-9.5 -26t-29.5 -9l-23 -24q22 -53 22 -107q0 -56 -25.5 -106t-51.5 -76q-58 -56 -103 -75.5t-112 -19.5q-39 0 -76 27l-28 -28q-5 -24 -39 -24q-15 0 -26 9.5t-11 23.5q0 38 40 36l23 26q-21 39 -21 89q0 131 81 219
t195 88q57 0 95 -33zM137 127l212 219q-19 24 -51 24q-62 0 -114.5 -64.5t-52.5 -143.5q0 -22 6 -35zM371 293l-209 -216q15 -17 37 -17q62 0 117 52q28 28 44.5 64.5t16.5 67.5q0 28 -6 49z" />
    <glyph glyph-name="ugrave" unicode="&#xf9;" horiz-adv-x="473" 
d="M154 375v-270q0 -10 10 -20.5t22 -10.5q25 0 65 26.5t69 62.5v216q-6 14 -6 22q0 19 10 27t35 8q30 0 44.5 -10.5t9.5 -45.5v-322q9 -13 9 -26q0 -37 -64 -37q-45 0 -45 31q0 4 1.5 8t3.5 8.5t3 6.5v23q-83 -89 -172 -89q-32 1 -60 27.5t-28 60.5v302q0 3 -3 11t-3 13
q0 42 59 42q18 0 33 -10t15 -30q0 -12 -8 -24zM191 636l63 -73q10 -2 18 -11t8 -21q0 -18 -12.5 -28t-31.5 -10q-15 0 -24 10.5t-9 22.5l-65 74q-23 10 -23 34q0 39 43 39q15 0 23.5 -11t9.5 -26z" />
    <glyph glyph-name="uacute" unicode="&#xfa;" horiz-adv-x="473" 
d="M154 375v-270q0 -10 10 -20.5t22 -10.5q25 0 65 26.5t69 62.5v216q-6 14 -6 22q0 19 10 27t35 8q30 0 44.5 -10.5t9.5 -45.5v-322q9 -13 9 -26q0 -37 -64 -37q-45 0 -45 31q0 4 1.5 8t3.5 8.5t3 6.5v23q-83 -89 -172 -89q-32 1 -60 27.5t-28 60.5v302q0 3 -3 11t-3 13
q0 42 59 42q18 0 33 -10t15 -30q0 -12 -8 -24zM354 600l-74 -77q-2 -13 -14 -23t-29 -10t-27.5 10t-10.5 26q0 11 7 21t17 12l76 78q-5 17 7 26t30 9q19 0 30 -11t11 -27q0 -27 -23 -34z" />
    <glyph glyph-name="ucircumflex" unicode="&#xfb;" horiz-adv-x="473" 
d="M154 375v-270q0 -10 10 -20.5t22 -10.5q25 0 65 26.5t69 62.5v216q-6 14 -6 22q0 19 10 27t35 8q30 0 44.5 -10.5t9.5 -45.5v-322q9 -13 9 -26q0 -37 -64 -37q-45 0 -45 31q0 4 1.5 8t3.5 8.5t3 6.5v23q-83 -89 -172 -89q-32 1 -60 27.5t-28 60.5v302q0 3 -3 11t-3 13
q0 42 59 42q18 0 33 -10t15 -30q0 -12 -8 -24zM286 638l65 -91q20 -17 20 -34q0 -15 -12 -25.5t-32 -10.5q-15 0 -23 11t-6 24l-52 74l-70 -76q1 -14 -8 -23.5t-22 -9.5q-18 0 -30 12t-12 25q0 19 24 36l85 95q19 21 35 21q21 0 38 -28z" />
    <glyph glyph-name="udieresis" unicode="&#xfc;" horiz-adv-x="473" 
d="M154 375v-270q0 -10 10 -20.5t22 -10.5q25 0 65 26.5t69 62.5v216q-6 14 -6 22q0 19 10 27t35 8q30 0 44.5 -10.5t9.5 -45.5v-322q9 -13 9 -26q0 -37 -64 -37q-45 0 -45 31q0 4 1.5 8t3.5 8.5t3 6.5v23q-83 -89 -172 -89q-32 1 -60 27.5t-28 60.5v302q0 3 -3 11t-3 13
q0 42 59 42q18 0 33 -10t15 -30q0 -12 -8 -24zM149 500h-1q-19 0 -29.5 19t-10.5 39q0 58 52 58q48 0 48 -43q0 -38 -12 -55.5t-47 -17.5zM316 503h-1q-45 0 -45 54q0 25 11.5 42.5t35.5 17.5q20 0 36.5 -13.5t16.5 -38.5q0 -62 -54 -62z" />
    <glyph glyph-name="yacute" unicode="&#xfd;" horiz-adv-x="471" 
d="M219 28l-187 324q-21 15 -21 39q0 19 18.5 32t36.5 13q27 0 39.5 -15t10.5 -37l146 -256l103 265q1 19 12 32.5t34 13.5q25 0 41 -11.5t16 -30.5q0 -22 -23 -35l-177 -432q-31 -76 -69 -104.5t-88 -28.5q-42 0 -74.5 22t-44.5 63q-2 6 -9.5 13.5t-7.5 21.5
q0 21 12.5 33.5t34.5 12.5q52 0 52 -38q0 -3 -5 -21q1 -12 13 -21t29 -9q28 0 51.5 34t56.5 120zM350 596l-74 -77q-2 -13 -14 -23t-29 -10t-27.5 10t-10.5 26q0 11 7 21t17 12l76 78q-5 17 7 26t30 9q19 0 30 -11t11 -27q0 -27 -23 -34z" />
    <glyph glyph-name="thorn" unicode="&#xfe;" horiz-adv-x="498" 
d="M61 -235v805q-1 3 -4.5 19.5t-3.5 21.5q0 21 16 31.5t33 10.5q32 0 47.5 -9.5t15.5 -22.5q0 -3 -5.5 -22t-5.5 -24v-255h1q46 62 92 90t109 28q52 0 84.5 -36t32.5 -97q0 -72 -26 -134t-66 -101t-85 -60.5t-86 -21.5q-34 0 -56 21v-246q9 -11 9 -28q0 -23 -15.5 -33.5
t-50.5 -10.5q-45 0 -45 34q0 20 9 40zM154 198v-100q17 -33 51 -33q59 0 116.5 69.5t57.5 157.5q0 29 -12.5 47.5t-37.5 18.5q-43 0 -101 -59q-45 -49 -74 -101z" />
    <glyph glyph-name="ydieresis" unicode="&#xff;" horiz-adv-x="471" 
d="M219 28l-187 324q-21 15 -21 39q0 19 18.5 32t36.5 13q27 0 39.5 -15t10.5 -37l146 -256l103 265q1 19 12 32.5t34 13.5q25 0 41 -11.5t16 -30.5q0 -22 -23 -35l-177 -432q-31 -76 -69 -104.5t-88 -28.5q-42 0 -74.5 22t-44.5 63q-2 6 -9.5 13.5t-7.5 21.5
q0 21 12.5 33.5t34.5 12.5q52 0 52 -38q0 -3 -5 -21q1 -12 13 -21t29 -9q28 0 51.5 34t56.5 120zM150 494h-1q-19 0 -29.5 19t-10.5 39q0 58 52 58q48 0 48 -43q0 -38 -12 -55.5t-47 -17.5zM317 497h-1q-45 0 -45 54q0 25 11.5 42.5t35.5 17.5q20 0 36.5 -13.5t16.5 -38.5
q0 -62 -54 -62z" />
    <glyph glyph-name="Amacron" unicode="&#x100;" horiz-adv-x="625" 
d="M432 241l-247 -16q-65 -129 -68 -144q-1 -7 -1 -44q0 -42 -59 -42q-26 0 -39 13t-13 33q0 19 43 108q3 5 4.5 8t3.5 7.5t4 8.5l174 342q29 52 35 83q-1 27 15 47t43 20q24 0 38 -12t14 -26q0 -9 -3.5 -19.5t-3.5 -17.5q0 -14 22 -62t52 -108t38 -78q120 -245 120 -288
q0 -28 -16 -43.5t-43 -15.5q-23 0 -38 10.5t-15 27.5q0 9 3 20.5t3 15.5q0 26 -66 172zM224 304l175 12l-81 184zM408 746l-164 -19q-14 -4 -24 -4q-14 0 -23 11.5t-9 27.5q0 19 10.5 30t21.5 11q8 0 20 -6l157 18q21 7 24 7q14 0 23.5 -11t9.5 -28q0 -22 -16 -32t-30 -5z
" />
    <glyph glyph-name="amacron" unicode="&#x101;" horiz-adv-x="488" 
d="M333 288v51q0 39 -36 39q-70 0 -138 -42q2 -4 -2.5 -10.5t-15 -12t-23.5 -5.5q-18 0 -30 15.5t-12 31.5q0 15 15 29.5t30 11.5q88 54 211 54q39 0 65 -24t26 -65v-307q8 -5 8 -23q0 -37 -66 -37q-42 0 -42 31q0 10 8 24v45h-2q-103 -112 -223 -112q-40 0 -66 21.5
t-26 58.5q0 73 86 141t233 85zM331 194v32q-93 -11 -159 -57t-66 -84q0 -23 33 -23q54 0 123 48.5t69 83.5zM337 545l-164 -19q-14 -4 -24 -4q-14 0 -23 11.5t-9 27.5q0 19 10.5 30t21.5 11q8 0 20 -6l157 18q21 7 24 7q14 0 23.5 -11t9.5 -28q0 -22 -16 -32t-30 -5z" />
    <glyph glyph-name="Abreve" unicode="&#x102;" horiz-adv-x="625" 
d="M432 241l-247 -16q-65 -129 -68 -144q-1 -7 -1 -44q0 -42 -59 -42q-26 0 -39 13t-13 33q0 19 43 108q3 5 4.5 8t3.5 7.5t4 8.5l174 342q29 52 35 83q-1 27 15 47t43 20q24 0 38 -12t14 -26q0 -9 -3.5 -19.5t-3.5 -17.5q0 -14 22 -62t52 -108t38 -78q120 -245 120 -288
q0 -28 -16 -43.5t-43 -15.5q-23 0 -38 10.5t-15 27.5q0 9 3 20.5t3 15.5q0 26 -66 172zM224 304l175 12l-81 184zM311 687h-1q-51 0 -87 37t-36 75t37 38q33 0 33 -31q0 -19 14.5 -36t38.5 -17q55 0 73 45q-4 8 -4 19t12.5 18t27.5 7q16 0 26 -8.5t10 -22.5q0 -18 -8 -27
q-37 -97 -136 -97z" />
    <glyph glyph-name="abreve" unicode="&#x103;" horiz-adv-x="488" 
d="M333 288v51q0 39 -36 39q-70 0 -138 -42q2 -4 -2.5 -10.5t-15 -12t-23.5 -5.5q-18 0 -30 15.5t-12 31.5q0 15 15 29.5t30 11.5q88 54 211 54q39 0 65 -24t26 -65v-307q8 -5 8 -23q0 -37 -66 -37q-42 0 -42 31q0 10 8 24v45h-2q-103 -112 -223 -112q-40 0 -66 21.5
t-26 58.5q0 73 86 141t233 85zM331 194v32q-93 -11 -159 -57t-66 -84q0 -23 33 -23q54 0 123 48.5t69 83.5zM239 485h-1q-51 0 -87 37t-36 75t37 38q33 0 33 -31q0 -19 14.5 -36t38.5 -17q55 0 73 45q-4 8 -4 19t12.5 18t27.5 7q16 0 26 -8.5t10 -22.5q0 -18 -8 -27
q-37 -97 -136 -97z" />
    <glyph glyph-name="Aogonek" unicode="&#x104;" horiz-adv-x="625" 
d="M224 304l174 12l-80 184zM486 -194h-1q-45 0 -74.5 24t-29.5 69q0 52 35 93t78 57q4 10 4 20q0 26 -66 172l-247 -16q-65 -129 -68 -144q-1 -7 -1 -44q0 -42 -59 -42q-26 0 -39 13t-13 33q0 23 55 132l174 342q29 52 35 83q-1 27 15 47t43 20q24 0 38 -12t14 -26
q0 -9 -3.5 -19.5t-3.5 -17.5q0 -14 22 -62t52 -108t38 -78q120 -245 120 -288q0 -28 -16 -43.5t-43 -15.5q-25 0 -34 -4q-26 -9 -45 -34q-20 -26 -20 -56q0 -17 12.5 -27t30.5 -10q37 0 46 19q-2 6 -2 10q0 7 8 12.5t22 5.5q15 0 23.5 -10t8.5 -26q0 -25 -30.5 -47
t-78.5 -22z" />
    <glyph glyph-name="aogonek" unicode="&#x105;" horiz-adv-x="488" 
d="M400 -191h-1q-48 0 -76.5 25t-28.5 74q0 48 35 100q-13 17 2 41v45h-2q-103 -112 -223 -112q-40 0 -66 21.5t-26 58.5q0 73 86 141t233 85v51q0 39 -36 39q-70 0 -138 -42q2 -8 -10 -18t-32 -10q-17 0 -29.5 15.5t-12.5 31.5q0 15 15 29.5t30 11.5q88 54 212 54
q39 0 65 -24t26 -65v-307q8 -5 8 -23q0 -16 -15 -25q-57 -34 -57 -96q0 -20 13 -31.5t32 -11.5q18 0 32.5 9t18.5 21q-2 2 -2 10q0 18 30 18q15 0 24 -10t9 -26q0 -27 -32.5 -53.5t-83.5 -26.5zM331 195v31q-93 -11 -159 -57t-66 -84q0 -23 33 -23q54 0 123 49t69 84z" />
    <glyph glyph-name="Cacute" unicode="&#x106;" horiz-adv-x="560" 
d="M339 656h1q80 0 134 -32t54 -70q0 -25 -14.5 -39t-38.5 -14q-38 0 -47 40q-2 14 -25.5 23.5t-57.5 9.5q-58 0 -109 -55t-78 -128.5t-27 -138.5q0 -90 38 -138t89 -48q44 0 89 24t68 55q4 57 53 57q24 0 38 -14t14 -28q0 -29 -28 -62q-41 -44 -108.5 -80.5t-138.5 -35.5
q-96 0 -153.5 70t-57.5 206q0 79 36 169t108.5 159.5t160.5 69.5zM420 806l-74 -77q-2 -13 -14 -23t-29 -10t-27.5 10t-10.5 26q0 11 7 21t17 12l76 78q-5 17 7 26t30 9q19 0 30 -11t11 -27q0 -27 -23 -34z" />
    <glyph glyph-name="cacute" unicode="&#x107;" horiz-adv-x="464" 
d="M285 444h1q58 0 98.5 -22.5t40.5 -54.5q0 -50 -58 -50q-10 0 -17 4.5t-9 8.5t-6 13q-13 24 -47 24q-49 0 -94 -50q-70 -70 -70 -159q0 -46 23.5 -71.5t67.5 -25.5q29 0 64 21q40 24 59 60q5 25 13.5 36t30.5 11q25 0 37 -13.5t12 -28.5q0 -13 -25 -50.5t-62 -64.5
q-66 -51 -151 -51q-73 0 -117 45t-44 117q0 78 25 126.5t78 103.5q23 26 67.5 48.5t82.5 22.5zM344 604l-74 -77q-2 -13 -14 -23t-29 -10t-27.5 10t-10.5 26q0 11 7 21t17 12l76 78q-5 17 7 26t30 9q19 0 30 -11t11 -27q0 -27 -23 -34z" />
    <glyph glyph-name="Ccaron" unicode="&#x10c;" horiz-adv-x="560" 
d="M339 656h1q80 0 134 -32t54 -70q0 -25 -14.5 -39t-38.5 -14q-38 0 -47 40q-2 14 -25.5 23.5t-57.5 9.5q-58 0 -109 -55t-78 -128.5t-27 -138.5q0 -90 38 -138t89 -48q44 0 89 24t68 55q4 57 53 57q24 0 38 -14t14 -28q0 -29 -28 -62q-41 -44 -108.5 -80.5t-138.5 -35.5
q-96 0 -153.5 70t-57.5 206q0 79 36 169t108.5 159.5t160.5 69.5zM423 765l-82 -63q-16 -13 -39 -13q-20 0 -35 17l-52 63q-19 9 -19 30q0 36 38 36q20 0 34 -28l44 -49l68 52q9 25 33 25q16 0 27.5 -10t11.5 -26q0 -23 -29 -34z" />
    <glyph glyph-name="ccaron" unicode="&#x10d;" horiz-adv-x="464" 
d="M285 444h1q58 0 98.5 -22.5t40.5 -54.5q0 -50 -58 -50q-10 0 -17 4.5t-9 8.5t-6 13q-13 24 -47 24q-49 0 -94 -50q-70 -70 -70 -159q0 -46 23.5 -71.5t67.5 -25.5q29 0 64 21q40 24 59 60q5 25 13.5 36t30.5 11q25 0 37 -13.5t12 -28.5q0 -13 -25 -50.5t-62 -64.5
q-66 -51 -151 -51q-73 0 -117 45t-44 117q0 78 25 126.5t78 103.5q23 26 67.5 48.5t82.5 22.5zM356 562l-82 -63q-16 -13 -39 -13q-20 0 -35 17l-52 63q-19 9 -19 30q0 36 38 36q20 0 34 -28l44 -49l68 52q9 25 33 25q16 0 27.5 -10t11.5 -26q0 -23 -29 -34z" />
    <glyph glyph-name="Dcaron" unicode="&#x10e;" horiz-adv-x="615" 
d="M52 29v1q0 26 12 40v505q-7 16 -7 33q0 16 15.5 29.5t44.5 13.5q25 0 35.5 -14t6.5 -32q97 47 205 47q90 0 154.5 -69.5t64.5 -156.5q0 -177 -121 -295q-71 -68 -172 -106.5t-178 -38.5q-60 0 -60 43zM159 519v-441q147 13 237 110q87 103 87 229q0 58 -40.5 106
t-100.5 48q-91 0 -183 -52zM415 764l-82 -63q-16 -13 -39 -13q-20 0 -35 17l-52 63q-19 9 -19 30q0 36 38 36q20 0 34 -28l44 -49l68 52q9 25 33 25q16 0 27.5 -10t11.5 -26q0 -23 -29 -34z" />
    <glyph glyph-name="dcaron" unicode="&#x10f;" horiz-adv-x="522" 
d="M367 397v182q-14 7 -14 34q0 19 17 31t43 12q24 0 37 -13.5t13 -32.5l-3 -34v-515q13 -8 13 -25q0 -23 -14.5 -32.5t-46.5 -9.5q-50 0 -50 40q0 19 5 23v69q-38 -58 -108.5 -101t-135.5 -43q-47 0 -78.5 31t-31.5 87q0 115 94.5 214.5t192.5 99.5q42 0 67 -17zM302 338
h-1q-60 0 -126.5 -77.5t-66.5 -141.5q0 -52 47 -52q65 0 141 80q26 26 37 38.5t21.5 36t10.5 50.5q0 30 -16.5 48t-46.5 18zM526 459h-1q-26 0 -26 24q0 28 35 33q19 2 30.5 16t11.5 37q0 19 -13 25q-43 -7 -43 32q0 30 33 30q34 0 58 -24t24 -63q0 -51 -35 -80.5t-74 -29.5
z" />
    <glyph glyph-name="Dcroat" unicode="&#x110;" horiz-adv-x="629" 
d="M66 29v1q0 26 12 40v205l-29 -2q-10 -6 -18 -6q-15 0 -24 8.5t-9 23.5q0 23 11.5 37t27.5 15l41 3v221q-7 16 -7 33q0 16 15.5 29.5t44.5 13.5q25 0 35.5 -14t6.5 -32q99 47 206 47q90 0 154.5 -65.5t64.5 -144.5q0 -92 -31.5 -173t-89.5 -138q-71 -68 -172 -106.5
t-179 -38.5q-60 0 -60 43zM173 519v-156l106 10l13 4q14 4 24 4q18 0 27.5 -12t9.5 -30q0 -22 -10 -36.5t-31 -14.5q-12 0 -36 6l-103 -10v-206q145 13 238 110q87 103 87 245q0 51 -40.5 94.5t-101.5 43.5q-91 0 -183 -52z" />
    <glyph glyph-name="dcroat" unicode="&#x111;" horiz-adv-x="522" 
d="M302 338h-1q-60 0 -126.5 -77.5t-66.5 -141.5q0 -52 47 -52q65 0 141 80q26 26 37 38.5t21.5 36t10.5 50.5q0 30 -16.5 48t-46.5 18zM493 486l-33 -4v-421q13 -8 13 -25q0 -23 -14.5 -32.5t-46.5 -9.5q-50 0 -50 40q0 19 5 23v69q-38 -58 -108.5 -101t-135.5 -43
q-47 0 -78.5 31t-31.5 86q0 76 45 150.5t112 119.5t130 45q42 0 67 -17v74l-104 -13q-12 -4 -23 -4t-19 9.5t-8 24.5q0 17 8.5 26.5t18.5 9.5q5 0 20 -6l107 13v47q-14 8 -14 35q0 19 17 31t43 12q24 0 37.5 -13.5t12.5 -32.5l-3 -34v-34l23 2q14 7 24 7q12 0 19.5 -9
t7.5 -24q0 -19 -14.5 -28t-26.5 -4z" />
    <glyph glyph-name="Emacron" unicode="&#x112;" horiz-adv-x="555" 
d="M166 277v-194l276 20q14 14 32 14q24 0 40 -14.5t16 -32.5q0 -30 -19 -40.5t-62 -10.5l-282 -20q-15 -17 -57 -17q-22 0 -37.5 13.5t-15.5 37.5q0 23 13 45v187q-18 17 -18 46q0 28 18 46v160q-21 11 -21 39q0 27 15 39q-5 5 -5 16q0 16 16 26t40 10t37.5 -10.5
t13.5 -26.5l238 21q21 15 37 15q27 0 42 -13.5t15 -32.5q0 -26 -16 -42.5t-42 -16.5q-16 0 -34 8l-240 -21v-168l191 24q20 14 36 14q24 0 39.5 -16t15.5 -36q0 -51 -59 -51q-11 0 -23 7zM367 732l-164 -19q-14 -4 -24 -4q-14 0 -23 11.5t-9 27.5q0 19 10.5 30t21.5 11
q8 0 20 -6l157 18q21 7 24 7q14 0 23.5 -11t9.5 -28q0 -22 -16 -32t-30 -5z" />
    <glyph glyph-name="emacron" unicode="&#x113;" horiz-adv-x="468" 
d="M291 444h1q40 0 70 -13.5t45.5 -34t23 -39.5t7.5 -36q0 -26 -16 -44.5t-76.5 -41t-170.5 -41.5l-46 -8q-7 -22 -7 -54q0 -70 69 -70q47 0 88 21.5t57 45.5q-2 18 12 31t38 13q45 0 45 -44q0 -12 -17 -34.5t-46.5 -48t-80 -44t-107.5 -18.5q-150 0 -150 140
q0 135 80 227.5t181 92.5zM289 368h-1q-42 0 -80 -30.5t-61 -80.5q84 15 130.5 26.5t59 18.5t12.5 15q0 20 -15 35.5t-45 15.5zM341 532l-164 -19q-14 -4 -24 -4q-14 0 -23 11.5t-9 27.5q0 19 10.5 30t21.5 11q8 0 20 -6l157 18q21 7 24 7q14 0 23.5 -11t9.5 -28
q0 -22 -16 -32t-30 -5z" />
    <glyph glyph-name="Edotaccent" unicode="&#x116;" horiz-adv-x="555" 
d="M166 277v-194l276 20q14 14 32 14q24 0 40 -14.5t16 -32.5q0 -30 -19 -40.5t-62 -10.5l-282 -20q-15 -17 -57 -17q-22 0 -37.5 13.5t-15.5 37.5q0 23 13 45v187q-18 17 -18 46q0 28 18 46v160q-21 11 -21 39q0 27 15 39q-5 5 -5 16q0 16 16 26t40 10t37.5 -10.5
t13.5 -26.5l238 21q21 15 37 15q27 0 42 -13.5t15 -32.5q0 -26 -16 -42.5t-42 -16.5q-16 0 -34 8l-240 -21v-168l191 24q20 14 36 14q24 0 39.5 -16t15.5 -36q0 -51 -59 -51q-11 0 -23 7zM276 671h-1q-44 0 -44 48q0 39 16 65t43 26q46 0 46 -46q0 -42 -17.5 -67.5
t-42.5 -25.5z" />
    <glyph glyph-name="edotaccent" unicode="&#x117;" horiz-adv-x="468" 
d="M291 444h1q40 0 70 -13.5t45.5 -34t23 -39.5t7.5 -36q0 -26 -16 -44.5t-76.5 -41t-170.5 -41.5l-46 -8q-7 -22 -7 -54q0 -70 69 -70q47 0 88 21.5t57 45.5q-2 18 12 31t38 13q45 0 45 -44q0 -12 -17 -34.5t-46.5 -48t-80 -44t-107.5 -18.5q-150 0 -150 140
q0 135 80 227.5t181 92.5zM289 368h-1q-42 0 -80 -30.5t-61 -80.5q84 15 130.5 26.5t59 18.5t12.5 15q0 20 -15 35.5t-45 15.5zM238 484h-1q-44 0 -44 48q0 39 16 65t43 26q46 0 46 -46q0 -42 -17.5 -67.5t-42.5 -25.5z" />
    <glyph glyph-name="Eogonek" unicode="&#x118;" horiz-adv-x="555" 
d="M412 -172h-1q-45 0 -74 24t-29 69q0 57 38 90l-179 -11q-14 -18 -57 -18q-22 0 -37.5 13.5t-15.5 37.5q0 23 13 45v187q-18 17 -18 46q0 28 18 46v160q-21 11 -21 39q0 27 15 39q-5 5 -5 16q0 16 16 26t40 10t37.5 -10.5t13.5 -26.5l238 21q21 15 37 15q27 0 42 -13.5
t15 -32.5q0 -26 -16 -42.5t-41 -16.5q-17 0 -35 8l-240 -21v-168l191 24q20 14 35 14q24 0 40 -16t16 -36q0 -51 -59 -51q-12 0 -24 7l-199 -25v-195l276 20q15 15 32 15q24 0 40 -15t16 -32q0 -30 -17.5 -39.5t-59.5 -11.5q-33 -6 -60 -39q-20 -26 -20 -57q0 -17 12.5 -27
t30.5 -10q38 0 46 20q-2 4 -2 9q0 18 30 18q15 0 23.5 -10t8.5 -26q0 -25 -30.5 -47t-79.5 -22z" />
    <glyph glyph-name="eogonek" unicode="&#x119;" horiz-adv-x="468" 
d="M290 368h-1q-42 0 -80 -30.5t-61 -79.5q84 14 130.5 25.5t59 19t12.5 15.5q0 20 -15 35t-45 15zM275 -177h-1q-45 0 -74 24t-29 69q0 38 20 71q-16 -2 -25 -2q-136 9 -136 140q0 134 80 226.5t181 92.5h1q40 0 70 -13.5t45.5 -33.5t23 -39.5t7.5 -35.5q0 -26 -16 -44.5
t-76.5 -40.5t-170.5 -42l-46 -8q-7 -24 -7 -54q0 -70 69 -70q47 0 88.5 21.5t56.5 45.5q-2 18 12 30.5t38 12.5q45 0 45 -43q0 -20 -36 -58.5t-91 -62.5q-30 -14 -48 -35q-20 -26 -20 -56q0 -17 12.5 -27t30.5 -10q37 0 46 19q-2 6 -2 10q0 7 8 12.5t22 5.5q15 0 23.5 -10
t8.5 -26q0 -25 -30.5 -47t-79.5 -22z" />
    <glyph glyph-name="Ecaron" unicode="&#x11a;" horiz-adv-x="555" 
d="M166 277v-194l276 20q14 14 32 14q24 0 40 -14.5t16 -32.5q0 -30 -19 -40.5t-62 -10.5l-282 -20q-15 -17 -57 -17q-22 0 -37.5 13.5t-15.5 37.5q0 23 13 45v187q-18 17 -18 46q0 28 18 46v160q-21 11 -21 39q0 27 15 39q-5 5 -5 16q0 16 16 26t40 10t37.5 -10.5
t13.5 -26.5l238 21q21 15 37 15q27 0 42 -13.5t15 -32.5q0 -26 -16 -42.5t-42 -16.5q-16 0 -34 8l-240 -21v-168l191 24q20 14 36 14q24 0 39.5 -16t15.5 -36q0 -51 -59 -51q-11 0 -23 7zM391 757l-82 -63q-16 -13 -39 -13q-20 0 -35 17l-52 63q-19 9 -19 30q0 36 38 36
q20 0 34 -28l44 -49l68 52q9 25 33 25q16 0 27.5 -10t11.5 -26q0 -23 -29 -34z" />
    <glyph glyph-name="ecaron" unicode="&#x11b;" horiz-adv-x="468" 
d="M291 444h1q40 0 70 -13.5t45.5 -34t23 -39.5t7.5 -36q0 -26 -16 -44.5t-76.5 -41t-170.5 -41.5l-46 -8q-7 -22 -7 -54q0 -70 69 -70q47 0 88 21.5t57 45.5q-2 18 12 31t38 13q45 0 45 -44q0 -12 -17 -34.5t-46.5 -48t-80 -44t-107.5 -18.5q-150 0 -150 140
q0 135 80 227.5t181 92.5zM289 368h-1q-42 0 -80 -30.5t-61 -80.5q84 15 130.5 26.5t59 18.5t12.5 15q0 20 -15 35.5t-45 15.5zM362 556l-82 -63q-16 -13 -39 -13q-20 0 -35 17l-52 63q-19 9 -19 30q0 36 38 36q20 0 34 -28l44 -49l68 52q9 25 33 25q16 0 27.5 -10t11.5 -26
q0 -23 -29 -34z" />
    <glyph glyph-name="Gbreve" unicode="&#x11e;" horiz-adv-x="679" 
d="M433 665h1q75 0 124 -36q20 -16 35.5 -38t15.5 -35q0 -19 -13 -32t-36 -13q-36 0 -48 42q-5 13 -27.5 22.5t-57.5 9.5q-66 0 -149 -61q-147 -109 -147 -278q0 -89 38.5 -136.5t97.5 -47.5q44 0 95.5 19t83.5 51q47 43 73 88.5t26 76.5q-24 -7 -83.5 -19t-81.5 -12
q-15 0 -26 10.5t-11 29.5t12 32t33 13q47 0 128 17.5t88 17.5q43 0 43 -46q0 -30 -12 -71.5t-41.5 -92t-72 -93.5t-112 -72t-152.5 -29q-107 0 -165.5 71.5t-58.5 192.5q0 107 54 194t138 146q114 79 208 79zM360 694h-1q-51 0 -87 37t-36 75t37 38q33 0 33 -31
q0 -19 14.5 -36t38.5 -17q55 0 73 45q-4 8 -4 19t12.5 18t27.5 7q16 0 26 -8.5t10 -22.5q0 -18 -8 -27q-37 -97 -136 -97z" />
    <glyph glyph-name="gbreve" unicode="&#x11f;" horiz-adv-x="484" 
d="M424 384v-401q0 -93 -63.5 -145t-142.5 -52q-62 0 -105.5 21.5t-43.5 50.5q0 23 12.5 37.5t31.5 14.5q31 0 37 -29q26 -20 73 -20q43 0 76 31.5t33 99.5q0 25 0.5 75.5t0.5 75.5q-29 -72 -86 -116.5t-115 -44.5q-55 0 -82.5 31.5t-27.5 81.5q0 82 40 159t120 129.5
t181 52.5q61 0 61 -52zM143 63h1q35 0 84 47.5t77 126.5q23 59 27 123v1q-87 0 -152.5 -79.5t-65.5 -172.5q0 -46 29 -46zM237 476h-1q-51 0 -87 37t-36 75t37 38q33 0 33 -31q0 -19 14.5 -36t38.5 -17q55 0 73 45q-4 8 -4 19t12.5 18t27.5 7q16 0 26 -8.5t10 -22.5
q0 -18 -8 -27q-37 -97 -136 -97z" />
    <glyph glyph-name="Gcommaaccent" unicode="&#x122;" horiz-adv-x="679" 
d="M433 665h1q75 0 124 -36q20 -16 35.5 -38t15.5 -35q0 -19 -13 -32t-36 -13q-36 0 -48 42q-5 13 -27.5 22.5t-57.5 9.5q-66 0 -149 -61q-147 -109 -147 -278q0 -89 38.5 -136.5t97.5 -47.5q44 0 95.5 19t83.5 51q47 43 73 88.5t26 76.5q-24 -7 -83.5 -19t-81.5 -12
q-15 0 -26 10.5t-11 29.5t12 32t33 13q47 0 128 17.5t88 17.5q43 0 43 -46q0 -30 -12 -71.5t-41.5 -92t-72 -93.5t-112 -72t-152.5 -29q-107 0 -165.5 71.5t-58.5 192.5q0 107 54 194t138 146q114 79 208 79zM295 -243h-1q-26 0 -26 24q0 28 35 33q19 2 30.5 16t11.5 37
q0 19 -13 25q-43 -7 -43 32q0 30 33 30q34 0 58 -24t24 -63q0 -51 -35 -80.5t-74 -29.5z" />
    <glyph glyph-name="gcommaaccent" unicode="&#x123;" horiz-adv-x="484" 
d="M424 384v-401q0 -93 -63.5 -145t-142.5 -52q-62 0 -105.5 21.5t-43.5 50.5q0 23 12.5 37.5t31.5 14.5q31 0 37 -29q26 -20 73 -20q43 0 76 31.5t33 99.5q0 25 0.5 75.5t0.5 75.5q-29 -72 -86 -116.5t-115 -44.5q-55 0 -82.5 31.5t-27.5 81.5q0 82 40 159t120 129.5
t181 52.5q61 0 61 -52zM143 63h1q35 0 84 47.5t77 126.5q24 63 27 123v1q-87 0 -152.5 -79.5t-65.5 -172.5q0 -46 29 -46zM297 667h1q27 0 27 -24q0 -28 -36 -33q-42 -5 -42 -54q0 -18 13 -24q43 5 43 -32q0 -30 -32 -30q-35 0 -59 23.5t-24 63.5q0 51 35 80.5t74 29.5z" />
    <glyph glyph-name="Imacron" unicode="&#x12a;" horiz-adv-x="233" 
d="M165 551v-472q14 -20 14 -35q0 -19 -18 -34t-45 -15q-28 0 -44.5 14t-16.5 38q0 19 14 36v474q-12 8 -12 29q0 26 20.5 42.5t49.5 16.5q27 0 40.5 -16t13.5 -38t-16 -40zM205 727l-164 -19q-14 -4 -24 -4q-14 0 -23 11.5t-9 27.5q0 19 10.5 30t21.5 11q8 0 20 -6l157 18
q21 7 24 7q14 0 23.5 -11t9.5 -28q0 -22 -16 -32t-30 -5z" />
    <glyph glyph-name="imacron" unicode="&#x12b;" horiz-adv-x="215" 
d="M165 392v-1q0 -8 -2 -14.5t-5.5 -12t-3.5 -6.5v-286q13 -10 13 -28q0 -23 -23 -36t-50 -13q-20 0 -32.5 13t-12.5 34q0 19 12 34v278q-9 9 -9 26q0 13 1.5 21t7 18t19 14.5t35.5 4.5q17 0 33.5 -15.5t16.5 -30.5zM195 533l-164 -19q-14 -4 -24 -4q-14 0 -23 11.5t-9 27.5
q0 19 10.5 30t21.5 11q8 0 20 -6l157 18q21 7 24 7q14 0 23.5 -11t9.5 -28q0 -22 -16 -32t-30 -5z" />
    <glyph glyph-name="Iogonek" unicode="&#x12e;" horiz-adv-x="233" 
d="M144 -186h-1q-48 0 -76.5 25t-28.5 74t32 97q-16 16 -15.5 36t14.5 37v474q-12 8 -12 29q0 26 20.5 42.5t49.5 16.5q27 0 40.5 -16t13.5 -38t-16 -40v-472q14 -20 14 -35q0 -23 -26 -40q-50 -32 -50 -89q0 -20 13 -31.5t32 -11.5t33.5 9t18.5 21q-2 2 -2 10q0 18 30 18
q15 0 24 -10t9 -26q0 -28 -32.5 -54t-84.5 -26z" />
    <glyph glyph-name="iogonek" unicode="&#x12f;" horiz-adv-x="215" 
d="M120 629h1q45 0 45 -46q0 -42 -17.5 -67.5t-42.5 -25.5q-45 0 -45 48q0 39 16 65t43 26zM136 -183h-1q-48 0 -76.5 25t-28.5 74q0 45 31 94q-11 13 -10.5 33.5t11.5 32.5v278q-9 9 -9 26q0 13 1.5 21t7 18t19 14.5t35.5 4.5q17 0 33.5 -15.5t16.5 -30.5v-1q0 -8 -2 -14.5
t-5.5 -12t-3.5 -6.5v-286q13 -10 13 -27q0 -21 -23 -36q-50 -34 -50 -91q0 -20 13 -31.5t32 -11.5q18 0 32.5 9t18.5 21q-2 2 -2 10q0 18 30 18q15 0 24 -10t9 -26q0 -27 -32.5 -53.5t-83.5 -26.5z" />
    <glyph glyph-name="Idotaccent" unicode="&#x130;" horiz-adv-x="233" 
d="M165 551v-472q14 -20 14 -35q0 -19 -18 -34t-45 -15q-28 0 -44.5 14t-16.5 38q0 19 14 36v474q-12 8 -12 29q0 26 20.5 42.5t49.5 16.5q27 0 40.5 -16t13.5 -38t-16 -40zM113 677h-1q-44 0 -44 48q0 39 16 65t43 26q46 0 46 -46q0 -42 -17.5 -67.5t-42.5 -25.5z" />
    <glyph glyph-name="dotlessi" unicode="&#x131;" horiz-adv-x="215" 
d="M165 392v-1q0 -8 -2 -14.5t-5.5 -12t-3.5 -6.5v-286q13 -10 13 -28q0 -23 -23 -36t-50 -13q-20 0 -32.5 13t-12.5 34q0 19 12 34v278q-9 9 -9 26q0 13 1.5 21t7 18t19 14.5t35.5 4.5q17 0 33.5 -15.5t16.5 -30.5z" />
    <glyph glyph-name="Kcommaaccent" unicode="&#x136;" horiz-adv-x="566" 
d="M165 339v-266q11 -9 11 -27q1 -27 -16 -39t-43 -12q-25 0 -43 13.5t-17 37.5q0 20 12 30v493q-8 7 -8 25q0 25 16 38t37 13q22 0 40.5 -11t18.5 -34q0 -16 -8 -27v-144h2q17 23 53 51l166 126q18 37 49 37q15 0 33.5 -11.5t18.5 -33.5q0 -16 -13.5 -33t-31.5 -18
l-208 -158l287 -310q15 0 26.5 -11t11.5 -23q0 -18 -19.5 -36t-46.5 -18q-22 0 -33.5 9t-11.5 23l-231 247q-37 41 -50 69h-2zM240 -220h-1q-26 0 -26 24q0 28 35 33q19 2 30.5 16t11.5 37q0 18 -13 25q-43 -7 -43 32q0 30 33 30q34 0 58 -24t24 -63q0 -51 -35 -80.5
t-74 -29.5z" />
    <glyph glyph-name="kcommaaccent" unicode="&#x137;" horiz-adv-x="440" 
d="M153 586v-308l2 -1q35 43 66 75l91 88q1 13 12 22.5t26 9.5q25 0 38.5 -14.5t13.5 -34.5q0 -16 -11 -26.5t-23 -10.5l-142 -146l154 -165q15 2 26 -8t11 -25q0 -22 -17 -36.5t-46 -14.5q-25 0 -35 29l-103 111q-43 49 -61 72l-2 -1v-124q0 -2 5.5 -14t5.5 -19
q0 -50 -59 -50q-55 0 -55 52q0 20 10 29v506q-12 10 -12 28q0 47 59 47q29 0 41.5 -10.5t12.5 -34.5q0 -18 -8 -26zM177 -241h-1q-26 0 -26 24q0 28 35 33q19 2 30.5 16t11.5 37q0 19 -13 25q-43 -7 -43 32q0 30 33 30q34 0 58 -24t24 -63q0 -51 -35 -80.5t-74 -29.5z" />
    <glyph glyph-name="Lacute" unicode="&#x139;" horiz-adv-x="453" 
d="M165 563v-487l190 24q19 14 35 14t30.5 -11.5t14.5 -33.5q0 -27 -12.5 -41.5t-28.5 -14.5q-14 0 -29 5l-210 -27q-30 -6 -43 -6q-57 0 -57 46q0 25 14 35v497q-8 16 -8 27q0 28 17.5 41.5t42.5 13.5q54 0 54 -53q0 -9 -10 -29zM315 805l-74 -77q-2 -13 -14 -23t-29 -10
t-27.5 10t-10.5 26q0 11 7 21t17 12l76 78q-5 17 7 26t30 9q19 0 30 -11t11 -27q0 -27 -23 -34z" />
    <glyph glyph-name="lacute" unicode="&#x13a;" horiz-adv-x="215" 
d="M61 70v498q-10 23 -10 34q0 32 12 43t49 11q22 0 39.5 -13t17.5 -34q0 -24 -15 -44v-498q16 -13 16 -30q0 -14 -17.5 -28t-42.5 -14t-41.5 13t-16.5 36q0 10 9 26zM225 791l-74 -77q-2 -13 -14 -23t-29 -10t-27.5 10t-10.5 26q0 11 7 21t17 12l76 78q-5 17 7 26t30 9
q19 0 30 -11t11 -27q0 -27 -23 -34z" />
    <glyph glyph-name="Lcommaaccent" unicode="&#x13b;" horiz-adv-x="453" 
d="M165 563v-487l190 24q19 14 35 14t30.5 -11.5t14.5 -33.5q0 -27 -12.5 -41.5t-28.5 -14.5q-14 0 -29 5l-210 -27q-30 -6 -43 -6q-57 0 -57 46q0 25 14 35v497q-8 16 -8 27q0 28 17.5 41.5t42.5 13.5q54 0 54 -53q0 -9 -10 -29zM185 -243h-1q-26 0 -26 24q0 28 35 33
q19 2 30.5 16t11.5 37q0 19 -13 25q-43 -7 -43 32q0 30 33 30q34 0 58 -24t24 -63q0 -51 -35 -80.5t-74 -29.5z" />
    <glyph glyph-name="lcommaaccent" unicode="&#x13c;" horiz-adv-x="215" 
d="M61 70v498q-10 23 -10 34q0 32 12 43t49 11q22 0 39.5 -13t17.5 -34q0 -24 -15 -44v-498q16 -13 16 -30q0 -14 -17.5 -28t-42.5 -14t-41.5 13t-16.5 36q0 10 9 26zM71 -237h-1q-26 0 -26 24q0 28 35 33q19 2 30.5 16t11.5 37q0 19 -13 25q-43 -7 -43 32q0 30 33 30
q34 0 58 -24t24 -63q0 -51 -35 -80.5t-74 -29.5z" />
    <glyph glyph-name="Lcaron" unicode="&#x13d;" horiz-adv-x="453" 
d="M165 563v-487l190 24q19 14 35 14t30.5 -11.5t14.5 -33.5q0 -27 -12.5 -41.5t-28.5 -14.5q-14 0 -29 5l-210 -27q-30 -6 -43 -6q-57 0 -57 46q0 25 14 35v497q-8 16 -8 27q0 28 17.5 41.5t42.5 13.5q54 0 54 -53q0 -9 -10 -29zM253 458h-1q-26 0 -26 24q0 28 35 33
q19 2 30.5 16t11.5 37q0 18 -13 25q-43 -7 -43 32q0 30 33 30q34 0 58 -24t24 -63q0 -51 -35 -80.5t-74 -29.5z" />
    <glyph glyph-name="lcaron" unicode="&#x13e;" horiz-adv-x="215" 
d="M61 70v498q-10 23 -10 34q0 32 12 43t49 11q22 0 39.5 -13t17.5 -34q0 -24 -15 -44v-498q16 -13 16 -30q0 -14 -17.5 -28t-42.5 -14t-41.5 13t-16.5 36q0 10 9 26zM220 459h-1q-26 0 -26 24q0 28 35 33q19 2 30.5 16t11.5 37q0 19 -13 25q-43 -7 -43 32q0 30 33 30
q34 0 58 -24t24 -63q0 -51 -35 -80.5t-74 -29.5z" />
    <glyph glyph-name="Lslash" unicode="&#x141;" horiz-adv-x="472" 
d="M298 368l-97 -62v-230l190 24q19 14 35 14t30.5 -11.5t14.5 -33.5q0 -27 -12.5 -41.5t-28.5 -14.5q-14 0 -29 5l-210 -27q-30 -6 -43 -6q-57 0 -57 46q0 25 14 35v187l-32 -21q-1 -8 -11.5 -13.5t-23.5 -5.5q-17 0 -27.5 11t-10.5 27q0 23 9.5 37.5t20.5 14.5q16 0 21 -2
l54 34v228q-8 16 -8 27q0 28 17.5 41.5t42.5 13.5q54 0 54 -53q0 -9 -10 -29v-175l69 45q8 21 37 21q18 0 31.5 -12.5t13.5 -32.5t-17 -34.5t-37 -6.5z" />
    <glyph glyph-name="lslash" unicode="&#x142;" horiz-adv-x="274" 
d="M91 70v196l-25 -23q-3 -23 -37 -23q-15 0 -27 11t-12 26q0 22 13 35t36 10l52 48v218q-10 23 -10 34q0 32 12 43t49 11q22 0 39.5 -13t17.5 -34q0 -22 -15 -44v-149l32 30q4 21 34 21q18 0 30.5 -11t12.5 -33q0 -21 -17.5 -31t-31.5 -4l-60 -55v-266q16 -13 16 -30
q0 -14 -17.5 -28t-42.5 -14t-41.5 13t-16.5 36q0 10 9 26z" />
    <glyph glyph-name="Nacute" unicode="&#x143;" horiz-adv-x="612" 
d="M70 70v495q-8 13 -8 30q0 21 14 35.5t41 14.5q30 0 42 -9t12 -29q0 -30 37 -98q47 -84 138 -180q85 -90 108 -138h2q-3 129 -3 393l-3.5 7t-4.5 10t-2 10q0 23 14 34t34 11q23 0 41 -10t18 -28q0 -13 -8 -32v-530q12 -14 12 -27q0 -19 -12 -26.5t-43 -7.5q-21 0 -33 13.5
t-23 40.5q-17 37 -62 98.5t-83 101.5q-106 113 -140 189h-2q3 -180 3 -368q10 -15 10 -30q0 -45 -49 -45q-62 0 -62 48q0 15 12 27zM416 793l-74 -77q-2 -13 -14 -23t-29 -10t-27.5 10t-10.5 26q0 11 7 21t17 12l76 78q-5 17 7 26t30 9q19 0 30 -11t11 -27q0 -27 -23 -34z
" />
    <glyph glyph-name="nacute" unicode="&#x144;" horiz-adv-x="474" 
d="M157 265v-210q7 -10 7 -24q0 -18 -19 -27t-43 -9q-21 0 -35.5 8.5t-14.5 25.5t12 28v156q-15 9 -15 33q0 20 15 58v80q-8 14 -8 30q0 15 19.5 28t42.5 13q49 0 49 -35q0 -14 -10 -31v-39q126 105 183 105q27 0 51 -21t24 -45v-326q6 -18 6 -26q0 -42 -57 -42
q-51 0 -51 38q0 12 9 26v280q0 5 -9 12t-14 7q-32 0 -142 -93zM350 604l-74 -77q-2 -13 -14 -23t-29 -10t-27.5 10t-10.5 26q0 11 7 21t17 12l76 78q-5 17 7 26t30 9q19 0 30 -11t11 -27q0 -27 -23 -34z" />
    <glyph glyph-name="Ncommaaccent" unicode="&#x145;" horiz-adv-x="612" 
d="M70 70v495q-8 13 -8 30q0 21 14 35.5t41 14.5q30 0 42 -9t12 -29q0 -30 37 -98q47 -84 138 -180q85 -90 108 -138h2q-3 129 -3 393l-3.5 7t-4.5 10t-2 10q0 23 14 34t34 11q23 0 41 -10t18 -28q0 -13 -8 -32v-530q12 -14 12 -27q0 -19 -12 -26.5t-43 -7.5q-21 0 -33 13.5
t-23 40.5q-17 37 -62 98.5t-83 101.5q-106 113 -140 189h-2q3 -180 3 -368q10 -15 10 -30q0 -45 -49 -45q-62 0 -62 48q0 15 12 27zM263 -219h-1q-26 0 -26 24q0 28 35 33q19 2 30.5 16t11.5 37q0 19 -13 25q-43 -7 -43 32q0 30 33 30q34 0 58 -24t24 -63q0 -51 -35 -80.5
t-74 -29.5z" />
    <glyph glyph-name="ncommaaccent" unicode="&#x146;" horiz-adv-x="474" 
d="M157 265v-210q7 -10 7 -24q0 -18 -19 -27t-43 -9q-21 0 -35.5 8.5t-14.5 25.5t12 28v156q-15 9 -15 33q0 20 15 58v80q-8 14 -8 30q0 15 19.5 28t42.5 13q49 0 49 -35q0 -14 -10 -31v-39q126 105 183 105q27 0 51 -21t24 -45v-326q6 -18 6 -26q0 -42 -57 -42
q-51 0 -51 38q0 12 9 26v280q0 5 -9 12t-14 7q-32 0 -142 -93zM194 -241h-1q-26 0 -26 24q0 28 35 33q19 2 30.5 16t11.5 37q0 19 -13 25q-43 -7 -43 32q0 30 33 30q34 0 58 -24t24 -63q0 -51 -35 -80.5t-74 -29.5z" />
    <glyph glyph-name="Ncaron" unicode="&#x147;" horiz-adv-x="612" 
d="M70 70v495q-8 13 -8 30q0 21 14 35.5t41 14.5q30 0 42 -9t12 -29q0 -30 37 -98q47 -84 138 -180q85 -90 108 -138h2q-3 129 -3 393l-3.5 7t-4.5 10t-2 10q0 23 14 34t34 11q23 0 41 -10t18 -28q0 -13 -8 -32v-530q12 -14 12 -27q0 -19 -12 -26.5t-43 -7.5q-21 0 -33 13.5
t-23 40.5q-17 37 -62 98.5t-83 101.5q-106 113 -140 189h-2q3 -180 3 -368q10 -15 10 -30q0 -45 -49 -45q-62 0 -62 48q0 15 12 27zM424 751l-82 -63q-16 -13 -39 -13q-20 0 -35 17l-52 63q-19 9 -19 30q0 36 38 36q20 0 34 -28l44 -49l68 52q9 25 33 25q16 0 27.5 -10
t11.5 -26q0 -23 -29 -34z" />
    <glyph glyph-name="ncaron" unicode="&#x148;" horiz-adv-x="474" 
d="M157 265v-210q7 -10 7 -24q0 -18 -19 -27t-43 -9q-21 0 -35.5 8.5t-14.5 25.5t12 28v156q-15 9 -15 33q0 20 15 58v80q-8 14 -8 30q0 15 19.5 28t42.5 13q49 0 49 -35q0 -14 -10 -31v-39q126 105 183 105q27 0 51 -21t24 -45v-326q6 -18 6 -26q0 -42 -57 -42
q-51 0 -51 38q0 12 9 26v280q0 5 -9 12t-14 7q-32 0 -142 -93zM353 565l-82 -63q-16 -13 -39 -13q-20 0 -35 17l-52 63q-19 9 -19 30q0 36 38 36q20 0 34 -28l44 -49l68 52q9 25 33 25q16 0 27.5 -10t11.5 -26q0 -23 -29 -34z" />
    <glyph glyph-name="Omacron" unicode="&#x14c;" horiz-adv-x="619" 
d="M359 674h1q96 0 159.5 -76t63.5 -234q0 -163 -99 -272.5t-241 -109.5q-58 0 -101.5 25t-67 65t-34.5 83.5t-11 88.5q0 99 45 199t123 165.5t162 65.5zM350 594h-1q-51 0 -102.5 -51.5t-84.5 -131t-33 -155.5q0 -50 12.5 -92t43.5 -72t76 -30q85 0 153.5 87t68.5 212
q0 115 -35 174t-98 59zM424 741l-164 -19q-14 -4 -24 -4q-14 0 -23 11.5t-9 27.5q0 19 10.5 30t21.5 11q8 0 20 -6l157 18q21 7 24 7q14 0 23.5 -11t9.5 -28q0 -22 -16 -32t-30 -5z" />
    <glyph glyph-name="omacron" unicode="&#x14d;" horiz-adv-x="492" 
d="M306 448h1q44 0 75.5 -19t47 -49.5t22.5 -60t7 -60.5q0 -55 -25.5 -105.5t-51.5 -76.5q-57 -56 -102 -75.5t-112 -19.5q-50 0 -94 41t-44 118q0 131 81 219t195 88zM289 370h-1q-62 0 -113 -65t-51 -149q0 -43 19 -69.5t47 -26.5q62 0 115 52q60 58 60 142q0 116 -76 116
zM351 527l-164 -19q-14 -4 -24 -4q-14 0 -23 11.5t-9 27.5q0 19 10.5 30t21.5 11q8 0 20 -6l157 18q21 7 24 7q14 0 23.5 -11t9.5 -28q0 -22 -16 -32t-30 -5z" />
    <glyph glyph-name="Ohungarumlaut" unicode="&#x150;" horiz-adv-x="619" 
d="M359 674h1q96 0 159.5 -76t63.5 -234q0 -163 -99 -272.5t-241 -109.5q-58 0 -101.5 25t-67 65t-34.5 83.5t-11 88.5q0 99 45 199t123 165.5t162 65.5zM350 594h-1q-51 0 -102.5 -51.5t-84.5 -131t-33 -155.5q0 -50 12.5 -92t43.5 -72t76 -30q85 0 153.5 87t68.5 212
q0 115 -35 174t-98 59zM531 835l-80 -92q2 -14 -11.5 -29.5t-34.5 -15.5q-33 0 -35 41q2 20 16 26l82 94q-6 15 5.5 30t34.5 15q16 0 29 -11.5t13 -30.5q0 -18 -19 -27zM387 835l-81 -92q3 -14 -10.5 -29.5t-34.5 -15.5q-15 0 -25 11t-10 30t16 26l81 94q-6 15 6.5 30
t35.5 15q15 0 28 -12t13 -30t-19 -27z" />
    <glyph glyph-name="ohungarumlaut" unicode="&#x151;" horiz-adv-x="492" 
d="M306 448h1q44 0 75.5 -19t47 -49.5t22.5 -60t7 -60.5q0 -55 -25.5 -105.5t-51.5 -76.5q-57 -56 -102 -75.5t-112 -19.5q-50 0 -94 41t-44 118q0 131 81 219t195 88zM289 370h-1q-62 0 -113 -65t-51 -149q0 -43 19 -69.5t47 -26.5q62 0 115 52q60 58 60 142q0 116 -76 116
zM467 619l-80 -92q2 -14 -11.5 -29.5t-34.5 -15.5q-33 0 -35 41q2 20 16 26l82 94q-6 15 5.5 30t34.5 15q16 0 29 -11.5t13 -30.5q0 -18 -19 -27zM323 619l-81 -92q3 -14 -10.5 -29.5t-34.5 -15.5q-15 0 -25 11t-10 30t16 26l81 94q-6 15 6.5 30t35.5 15q15 0 28 -12t13 -30
t-19 -27z" />
    <glyph glyph-name="OE" unicode="&#x152;" horiz-adv-x="977" 
d="M598 528v-161l227 24q4 0 13.5 6.5t14.5 6.5q43 0 43 -43q0 -21 -9.5 -32t-44.5 -14l-244 -27v-207l302 35q23 3 39.5 -8.5t16.5 -37.5q0 -22 -13.5 -33.5t-31.5 -11.5q-11 0 -27 8l-283 -33q-2 -1 -10 -6t-20.5 -8.5t-30.5 -3.5q-21 0 -35 11.5t-14 29.5q0 35 11 39
l1 55q-53 -68 -117 -102t-162 -34q-88 0 -141.5 75.5t-53.5 195.5q0 87 31 166.5t81.5 134.5t114 87.5t127.5 32.5q74 0 120 -51l1 2q1 16 14.5 26.5t33.5 10.5q29 0 43.5 -18t6.5 -36l285 39q21 3 36 -7.5t16 -32.5q0 -19 -12.5 -34t-31.5 -15q-3 0 -17.5 3.5t-20.5 2.5z
M256 61h1q80 0 148 55.5t97 140.5v245q-13 40 -50 66t-81 26q-96 0 -169 -99t-73 -237q0 -93 32 -145t95 -52z" />
    <glyph glyph-name="oe" unicode="&#x153;" horiz-adv-x="783" 
d="M302 443h1q56 0 91.5 -35.5t37.5 -82.5q27 46 79.5 82t95.5 36q41 0 71.5 -14.5t45.5 -35.5t22 -39t7 -32q0 -20 -17 -41.5t-44 -28.5l-244 -55q-10 -35 -10 -65q0 -29 17.5 -49.5t51.5 -20.5q42 0 85.5 23t72.5 59q-5 16 5 27.5t29 11.5q28 0 40.5 -13t12.5 -26t-19 -37
q-94 -122 -237 -122q-48 0 -85.5 25.5t-44.5 63.5q-28 -43 -81.5 -67t-108.5 -24q-72 0 -109 41.5t-37 112.5q0 127 77 216.5t195 89.5zM295 365h-1q-71 0 -120.5 -62.5t-49.5 -155.5q0 -86 71 -86q72 0 120 65.5t48 135.5q0 103 -68 103zM478 270l194 44q-1 23 -18.5 38
t-45.5 15q-31 0 -68 -28.5t-62 -68.5z" />
    <glyph glyph-name="Racute" unicode="&#x154;" horiz-adv-x="609" 
d="M59 47v1q0 11 13 32v386q-3 -2 -9 -2q-8 0 -15 10t-7 28q0 45 31 56v21q-7 16 -7 29q0 21 17 34t40 13q24 0 38 -16.5t6 -41.5v-10q125 56 245 56q62 0 100.5 -27.5t38.5 -76.5q0 -77 -82 -134.5t-233 -83.5l324 -234q23 9 44 -6t21 -34q0 -28 -18 -43.5t-42 -15.5
q-33 0 -47 26l-351 257v-195q9 -18 9 -31q0 -50 -69 -50q-23 0 -35 15t-12 37zM166 510v-140q284 60 284 155q0 18 -17.5 28.5t-47.5 10.5q-104 0 -219 -54zM420 806l-74 -77q-2 -13 -14 -23t-29 -10t-27.5 10t-10.5 26q0 11 7 21t17 12l76 78q-5 17 7 26t30 9q19 0 30 -11
t11 -27q0 -27 -23 -34z" />
    <glyph glyph-name="racute" unicode="&#x155;" horiz-adv-x="379" 
d="M61 59v319l-8 26q0 14 17 25t41 11q22 0 35.5 -9t13.5 -24q0 -16 -6 -23v-35h1q98 89 160 89q26 0 44 -29t18 -93q0 -46 -50 -46q-46 0 -46 27q0 13 5 26q0 22 -12 22q-14 0 -49.5 -26.5t-70.5 -67.5v-183q12 -12 12 -28q0 -23 -16 -34t-55 -11q-47 0 -47 39q0 16 13 25z
M304 603l-74 -77q-2 -13 -14 -23t-29 -10t-27.5 10t-10.5 26q0 11 7 21t17 12l76 78q-5 17 7 26t30 9q19 0 30 -11t11 -27q0 -27 -23 -34z" />
    <glyph glyph-name="Rcommaaccent" unicode="&#x156;" horiz-adv-x="609" 
d="M59 47v1q0 11 13 32v386q-3 -2 -9 -2q-8 0 -15 10t-7 28q0 45 31 56v21q-7 16 -7 29q0 21 17 34t40 13q24 0 38 -16.5t6 -41.5v-10q125 56 245 56q62 0 100.5 -27.5t38.5 -76.5q0 -77 -82 -134.5t-233 -83.5l324 -234q23 9 44 -6t21 -34q0 -28 -18 -43.5t-42 -15.5
q-33 0 -47 26l-351 257v-195q9 -18 9 -31q0 -50 -69 -50q-23 0 -35 15t-12 37zM166 510v-140q284 60 284 155q0 18 -17.5 28.5t-47.5 10.5q-104 0 -219 -54zM262 -219h-1q-26 0 -26 24q0 28 35 33q19 2 30.5 16t11.5 37q0 19 -13 25q-43 -7 -43 32q0 30 33 30q34 0 58 -24
t24 -63q0 -51 -35 -80.5t-74 -29.5z" />
    <glyph glyph-name="rcommaaccent" unicode="&#x157;" horiz-adv-x="379" 
d="M61 59v319l-8 26q0 14 17 25t41 11q22 0 35.5 -9t13.5 -24q0 -16 -6 -23v-35h1q98 89 160 89q26 0 44 -29t18 -93q0 -46 -50 -46q-46 0 -46 27q0 13 5 26q0 22 -12 22q-14 0 -49.5 -26.5t-70.5 -67.5v-183q12 -12 12 -28q0 -23 -16 -34t-55 -11q-47 0 -47 39q0 16 13 25z
M76 -233h-1q-26 0 -26 24q0 28 35 33q19 2 30.5 16t11.5 37q0 19 -13 25q-43 -7 -43 32q0 30 33 30q34 0 58 -24t24 -63q0 -51 -35 -80.5t-74 -29.5z" />
    <glyph glyph-name="Rcaron" unicode="&#x158;" horiz-adv-x="609" 
d="M59 47v1q0 11 13 32v386q-3 -2 -9 -2q-8 0 -15 10t-7 28q0 45 31 56v21q-7 16 -7 29q0 21 17 34t40 13q24 0 38 -16.5t6 -41.5v-10q125 56 245 56q62 0 100.5 -27.5t38.5 -76.5q0 -77 -82 -134.5t-233 -83.5l324 -234q23 9 44 -6t21 -34q0 -28 -18 -43.5t-42 -15.5
q-33 0 -47 26l-351 257v-195q9 -18 9 -31q0 -50 -69 -50q-23 0 -35 15t-12 37zM166 510v-140q284 60 284 155q0 18 -17.5 28.5t-47.5 10.5q-104 0 -219 -54zM420 759l-82 -63q-16 -13 -39 -13q-20 0 -35 17l-52 63q-19 9 -19 30q0 36 38 36q20 0 34 -28l44 -49l68 52
q9 25 33 25q16 0 27.5 -10t11.5 -26q0 -23 -29 -34z" />
    <glyph glyph-name="rcaron" unicode="&#x159;" horiz-adv-x="379" 
d="M61 59v319l-8 26q0 14 17 25t41 11q22 0 35.5 -9t13.5 -24q0 -16 -6 -23v-35h1q98 89 160 89q26 0 44 -29t18 -93q0 -46 -50 -46q-46 0 -46 27q0 13 5 26q0 22 -12 22q-14 0 -49.5 -26.5t-70.5 -67.5v-183q12 -12 12 -28q0 -23 -16 -34t-55 -11q-47 0 -47 39q0 16 13 25z
M309 556l-82 -63q-16 -13 -39 -13q-20 0 -35 17l-52 63q-19 9 -19 30q0 36 38 36q20 0 34 -28l44 -49l68 52q9 25 33 25q16 0 27.5 -10t11.5 -26q0 -23 -29 -34z" />
    <glyph glyph-name="Sacute" unicode="&#x15a;" horiz-adv-x="633" 
d="M355 649h1q65 0 118 -33.5t53 -67.5q0 -42 -45 -42q-57 0 -57 35q-19 28 -83 28q-78 0 -140.5 -50t-62.5 -105q0 -49 44 -49q38 0 119 23q87 24 146 24q66 0 108 -34t42 -99q0 -87 -56 -152q-54 -66 -145 -104t-181 -38q-45 0 -81 14.5t-55.5 36t-29 41.5t-9.5 34
q0 25 15 42t40 17q15 0 24 -8.5t18.5 -31.5t9.5 -24q21 -41 75 -41q60 0 127 29t107 73q41 38 41 106q0 31 -15.5 44t-47.5 13q-49 0 -134 -23q-78 -24 -139 -24q-123 0 -123 121q0 87 95.5 166t220.5 79zM432 806l-74 -77q-2 -13 -14 -23t-29 -10t-27.5 10t-10.5 26
q0 11 7 21t17 12l76 78q-5 17 7 26t30 9q19 0 30 -11t11 -27q0 -27 -23 -34z" />
    <glyph glyph-name="sacute" unicode="&#x15b;" horiz-adv-x="502" 
d="M308 454h1q51 0 83.5 -15t32.5 -42q0 -18 -10.5 -28.5t-28.5 -10.5q-17 0 -24 11t-53 11q-71 0 -123 -31t-52 -66q0 -26 28 -26q11 0 24.5 3.5t34 9.5t33.5 9q9 2 28.5 7.5t30 7.5t25.5 4.5t28 2.5q47 0 78 -26.5t31 -74.5q0 -56 -33 -100t-82 -66.5t-93.5 -34
t-77.5 -11.5q-54 0 -96 24.5t-42 59.5q0 23 13 38t37 15q19 0 27.5 -8.5t8.5 -18.5q0 -8 -3 -13q20 -22 59 -22q62 0 125.5 33.5t63.5 86.5q0 41 -41 41q-13 0 -26 -3t-33 -9.5t-33 -9.5q-82 -22 -120 -22q-40 0 -64 26.5t-24 65.5q0 76 85.5 129t181.5 53zM364 603l-74 -77
q-2 -13 -14 -23t-29 -10t-27.5 10t-10.5 26q0 11 7 21t17 12l76 78q-5 17 7 26t30 9q19 0 30 -11t11 -27q0 -27 -23 -34z" />
    <glyph glyph-name="Scedilla" unicode="&#x15e;" horiz-adv-x="633" 
d="M329 -12l-16 -27q30 1 50 -19.5t20 -58.5q0 -47 -33 -78.5t-88 -31.5q-26 0 -44 14q-8 -5 -16 -5t-15 11t-7 24q0 15 10.5 27.5t21.5 12.5q6 0 12 -4.5t6 -9.5q16 -9 34 -9q28 0 44.5 13t16.5 33q0 28 -26 28q-6 0 -16 -5q-5 -7 -23 -7q-11 0 -18 7.5t-7 18.5q0 18 14 30
l24 36q-29 -3 -57 -3q-45 0 -81 14.5t-55.5 36t-29 41.5t-9.5 34q0 25 15 42t40 17q15 0 24 -8.5t18.5 -31.5t9.5 -24q21 -41 76 -41q59 0 126 29t107 73q41 38 41 106q0 31 -15.5 44t-47.5 13q-49 0 -134 -23q-78 -24 -139 -24q-123 0 -123 121q0 87 95.5 166t220.5 79h1
q65 0 118 -33.5t53 -67.5q0 -42 -45 -42q-57 0 -57 35q-19 28 -83 28q-78 0 -140.5 -50t-62.5 -105q0 -49 44 -49q37 0 120 23q86 24 145 24q66 0 108 -34t42 -98q0 -87 -56 -152q-63 -80 -180 -118q-24 -9 -33 -22z" />
    <glyph glyph-name="Scedilla" unicode="&#xf6c1;" horiz-adv-x="633" 
d="M329 -12l-16 -27q30 1 50 -19.5t20 -58.5q0 -47 -33 -78.5t-88 -31.5q-26 0 -44 14q-8 -5 -16 -5t-15 11t-7 24q0 15 10.5 27.5t21.5 12.5q6 0 12 -4.5t6 -9.5q16 -9 34 -9q28 0 44.5 13t16.5 33q0 28 -26 28q-6 0 -16 -5q-5 -7 -23 -7q-11 0 -18 7.5t-7 18.5q0 18 14 30
l24 36q-29 -3 -57 -3q-45 0 -81 14.5t-55.5 36t-29 41.5t-9.5 34q0 25 15 42t40 17q15 0 24 -8.5t18.5 -31.5t9.5 -24q21 -41 76 -41q59 0 126 29t107 73q41 38 41 106q0 31 -15.5 44t-47.5 13q-49 0 -134 -23q-78 -24 -139 -24q-123 0 -123 121q0 87 95.5 166t220.5 79h1
q65 0 118 -33.5t53 -67.5q0 -42 -45 -42q-57 0 -57 35q-19 28 -83 28q-78 0 -140.5 -50t-62.5 -105q0 -49 44 -49q37 0 120 23q86 24 145 24q66 0 108 -34t42 -98q0 -87 -56 -152q-63 -80 -180 -118q-24 -9 -33 -22z" />
    <glyph glyph-name="scedilla" unicode="&#x15f;" horiz-adv-x="502" 
d="M283 4l-24 -41q30 1 50 -19.5t20 -58.5q0 -47 -33 -78.5t-88 -31.5q-26 0 -44 14q-8 -5 -16 -5t-15 11t-7 24q0 15 10.5 27.5t21.5 12.5q6 0 12 -4.5t6 -9.5q16 -9 34 -9q28 0 44.5 13t16.5 33q0 28 -26 28q-6 0 -16 -5q-5 -7 -23 -7q-11 0 -18 7.5t-7 18.5q0 18 14 30
l23 36q-20 -2 -29 -2q-54 0 -96 24.5t-42 59.5q0 23 13 38t37 15q19 0 27.5 -8.5t8.5 -18.5q0 -8 -3 -13q20 -22 59 -22q62 0 125.5 33.5t63.5 86.5q0 41 -41 41q-13 0 -26 -3t-33 -9.5t-33 -9.5q-82 -22 -120 -22q-40 0 -64 26.5t-24 66.5q0 50 42 92.5t103 65.5t122 23h1
q51 0 83.5 -15t32.5 -42q0 -18 -10.5 -28.5t-28.5 -10.5q-17 0 -24 11t-53 11q-71 0 -123 -31t-52 -66q0 -26 28 -26q11 0 24.5 3.5t34 9.5t33.5 9q9 2 28.5 7.5t30 7.5t25.5 4.5t28 2.5q47 0 78 -26.5t31 -74.5q0 -77 -56.5 -126t-135.5 -70z" />
    <glyph glyph-name="scedilla" unicode="&#xf6c2;" horiz-adv-x="502" 
d="M283 4l-24 -41q30 1 50 -19.5t20 -58.5q0 -47 -33 -78.5t-88 -31.5q-26 0 -44 14q-8 -5 -16 -5t-15 11t-7 24q0 15 10.5 27.5t21.5 12.5q6 0 12 -4.5t6 -9.5q16 -9 34 -9q28 0 44.5 13t16.5 33q0 28 -26 28q-6 0 -16 -5q-5 -7 -23 -7q-11 0 -18 7.5t-7 18.5q0 18 14 30
l23 36q-20 -2 -29 -2q-54 0 -96 24.5t-42 59.5q0 23 13 38t37 15q19 0 27.5 -8.5t8.5 -18.5q0 -8 -3 -13q20 -22 59 -22q62 0 125.5 33.5t63.5 86.5q0 41 -41 41q-13 0 -26 -3t-33 -9.5t-33 -9.5q-82 -22 -120 -22q-40 0 -64 26.5t-24 66.5q0 50 42 92.5t103 65.5t122 23h1
q51 0 83.5 -15t32.5 -42q0 -18 -10.5 -28.5t-28.5 -10.5q-17 0 -24 11t-53 11q-71 0 -123 -31t-52 -66q0 -26 28 -26q11 0 24.5 3.5t34 9.5t33.5 9q9 2 28.5 7.5t30 7.5t25.5 4.5t28 2.5q47 0 78 -26.5t31 -74.5q0 -77 -56.5 -126t-135.5 -70z" />
    <glyph glyph-name="Scaron" unicode="&#x160;" horiz-adv-x="633" 
d="M355 649h1q65 0 118 -33.5t53 -67.5q0 -42 -45 -42q-57 0 -57 35q-19 28 -83 28q-78 0 -140.5 -50t-62.5 -105q0 -49 44 -49q38 0 119 23q87 24 146 24q66 0 108 -34t42 -99q0 -87 -56 -152q-54 -66 -145 -104t-181 -38q-45 0 -81 14.5t-55.5 36t-29 41.5t-9.5 34
q0 25 15 42t40 17q15 0 24 -8.5t18.5 -31.5t9.5 -24q21 -41 75 -41q60 0 127 29t107 73q41 38 41 106q0 31 -15.5 44t-47.5 13q-49 0 -134 -23q-78 -24 -139 -24q-123 0 -123 121q0 87 95.5 166t220.5 79zM434 759l-82 -63q-16 -13 -39 -13q-20 0 -35 17l-52 63
q-19 9 -19 30q0 36 38 36q20 0 34 -28l44 -49l68 52q9 25 33 25q16 0 27.5 -10t11.5 -26q0 -23 -29 -34z" />
    <glyph glyph-name="scaron" unicode="&#x161;" horiz-adv-x="502" 
d="M308 454h1q51 0 83.5 -15t32.5 -42q0 -18 -10.5 -28.5t-28.5 -10.5q-17 0 -24 11t-53 11q-71 0 -123 -31t-52 -66q0 -26 28 -26q11 0 24.5 3.5t34 9.5t33.5 9q9 2 28.5 7.5t30 7.5t25.5 4.5t28 2.5q47 0 78 -26.5t31 -74.5q0 -56 -33 -100t-82 -66.5t-93.5 -34
t-77.5 -11.5q-54 0 -96 24.5t-42 59.5q0 23 13 38t37 15q19 0 27.5 -8.5t8.5 -18.5q0 -8 -3 -13q20 -22 59 -22q62 0 125.5 33.5t63.5 86.5q0 41 -41 41q-13 0 -26 -3t-33 -9.5t-33 -9.5q-82 -22 -120 -22q-40 0 -64 26.5t-24 65.5q0 76 85.5 129t181.5 53zM367 561l-82 -63
q-16 -13 -39 -13q-20 0 -35 17l-52 63q-19 9 -19 30q0 36 38 36q20 0 34 -28l44 -49l68 52q9 25 33 25q16 0 27.5 -10t11.5 -26q0 -23 -29 -34z" />
    <glyph glyph-name="Tcommaaccent" unicode="&#x162;" horiz-adv-x="494" 
d="M294 549v-481q9 -15 9 -25q0 -48 -66 -48q-45 0 -45 42q0 23 6 35v462l-117 -23q-16 -10 -31 -10q-21 0 -33.5 12t-12.5 32q0 21 12 36t29 15t29 -7l133 26q10 12 34.5 16.5t37.5 -3.5l151 27q15 7 31 7q20 0 32 -12.5t12 -35.5q0 -19 -12 -33t-31 -14q-18 0 -31 8z
M204 -241h-1q-26 0 -26 24q0 28 35 33q19 2 30.5 16t11.5 37q0 19 -13 25q-43 -7 -43 32q0 30 33 30q34 0 58 -24t24 -63q0 -51 -35 -80.5t-74 -29.5z" />
    <glyph glyph-name="Tcommaaccent" unicode="&#x21a;" horiz-adv-x="494" 
d="M294 549v-481q9 -15 9 -25q0 -48 -66 -48q-45 0 -45 42q0 23 6 35v462l-117 -23q-16 -10 -31 -10q-21 0 -33.5 12t-12.5 32q0 21 12 36t29 15t29 -7l133 26q10 12 34.5 16.5t37.5 -3.5l151 27q15 7 31 7q20 0 32 -12.5t12 -35.5q0 -19 -12 -33t-31 -14q-18 0 -31 8z
M204 -241h-1q-26 0 -26 24q0 28 35 33q19 2 30.5 16t11.5 37q0 19 -13 25q-43 -7 -43 32q0 30 33 30q34 0 58 -24t24 -63q0 -51 -35 -80.5t-74 -29.5z" />
    <glyph glyph-name="tcommaaccent" unicode="&#x163;" horiz-adv-x="470" 
d="M127 436v72q-6 8 -6 25q0 34 63 36q45 0 45 -31q0 -14 -9 -24v-62l125 20q8 8 19 8q18 0 27.5 -12t9.5 -28q0 -48 -34 -48q-13 0 -17 5l-130 -22v-270q0 -28 17 -28t64 29.5t75 64.5q-1 17 9.5 28.5t28.5 11.5q51 0 51 -48q0 -20 -45.5 -62t-109 -78t-105.5 -36
q-36 0 -57 23.5t-21 60.5v289l-65 -10q-8 -8 -20 -9q-40 2 -40 47q0 18 11.5 30t28.5 12q12 0 17 -5zM193 -242h-1q-26 0 -26 24q0 28 35 33q19 2 30.5 16t11.5 37q0 18 -13 25q-43 -7 -43 32q0 30 33 30q34 0 58 -24t24 -63q0 -51 -35 -80.5t-74 -29.5z" />
    <glyph glyph-name="tcommaaccent" unicode="&#x21b;" horiz-adv-x="470" 
d="M127 436v72q-6 8 -6 25q0 34 63 36q45 0 45 -31q0 -14 -9 -24v-62l125 20q8 8 19 8q18 0 27.5 -12t9.5 -28q0 -48 -34 -48q-13 0 -17 5l-130 -22v-270q0 -28 17 -28t64 29.5t75 64.5q-1 17 9.5 28.5t28.5 11.5q51 0 51 -48q0 -20 -45.5 -62t-109 -78t-105.5 -36
q-36 0 -57 23.5t-21 60.5v289l-65 -10q-8 -8 -20 -9q-40 2 -40 47q0 18 11.5 30t28.5 12q12 0 17 -5zM193 -242h-1q-26 0 -26 24q0 28 35 33q19 2 30.5 16t11.5 37q0 18 -13 25q-43 -7 -43 32q0 30 33 30q34 0 58 -24t24 -63q0 -51 -35 -80.5t-74 -29.5z" />
    <glyph glyph-name="Tcaron" unicode="&#x164;" horiz-adv-x="494" 
d="M294 549v-481q9 -15 9 -25q0 -48 -66 -48q-45 0 -45 42q0 23 6 35v462l-117 -23q-16 -10 -31 -10q-21 0 -33.5 12t-12.5 32q0 21 12 36t29 15t29 -7l133 26q10 12 34.5 16.5t37.5 -3.5l151 27q15 7 31 7q20 0 32 -12.5t12 -35.5q0 -19 -12 -33t-31 -14q-18 0 -31 8z
M364 757l-82 -63q-16 -13 -39 -13q-20 0 -35 17l-52 63q-19 9 -19 30q0 36 38 36q20 0 34 -28l44 -49l68 52q9 25 33 25q16 0 27.5 -10t11.5 -26q0 -23 -29 -34z" />
    <glyph glyph-name="tcaron" unicode="&#x165;" horiz-adv-x="470" 
d="M127 436v72q-6 8 -6 25q0 34 63 36q45 0 45 -31q0 -14 -9 -24v-62l125 20q8 8 19 8q18 0 27.5 -12t9.5 -28q0 -48 -34 -48q-13 0 -17 5l-130 -22v-270q0 -28 17 -28t64 29.5t75 64.5q-1 17 9.5 28.5t28.5 11.5q51 0 51 -48q0 -20 -45.5 -62t-109 -78t-105.5 -36
q-36 0 -57 23.5t-21 60.5v289l-65 -10q-8 -8 -20 -9q-40 2 -40 47q0 18 11.5 30t28.5 12q12 0 17 -5zM299 520h-1q-26 0 -26 24q0 28 35 33q19 2 30.5 16t11.5 37q0 18 -13 25q-43 -7 -43 32q0 30 33 30q34 0 58 -24t24 -63q0 -51 -35 -80.5t-74 -29.5z" />
    <glyph glyph-name="Umacron" unicode="&#x16a;" horiz-adv-x="604" 
d="M236 -17h-1q-87 0 -127.5 44.5t-41.5 100.5v447q-13 25 1.5 45t44.5 20q47 0 47 -58v-462q7 -21 28.5 -36t51.5 -15q60 0 108 23.5t68.5 48t20.5 40.5v398q-9 7 -9 23q0 21 17 34t44 13q18 0 31.5 -11t13.5 -30q0 -14 -4 -21v-420q0 -17 -20 -51t-49 -55
q-95 -78 -224 -78zM391 724l-164 -19q-14 -4 -24 -4q-14 0 -23 11.5t-9 27.5q0 19 10.5 30t21.5 11q8 0 20 -6l157 18q21 7 24 7q14 0 23.5 -11t9.5 -28q0 -22 -16 -32t-30 -5z" />
    <glyph glyph-name="umacron" unicode="&#x16b;" horiz-adv-x="473" 
d="M154 375v-270q0 -10 10 -20.5t22 -10.5q25 0 65 26.5t69 62.5v216q-6 14 -6 22q0 19 10 27t35 8q30 0 44.5 -10.5t9.5 -45.5v-322q9 -13 9 -26q0 -37 -64 -37q-45 0 -45 31q0 4 1.5 8t3.5 8.5t3 6.5v23q-83 -89 -172 -89q-32 1 -60 27.5t-28 60.5v302q0 3 -3 11t-3 13
q0 42 59 42q18 0 33 -10t15 -30q0 -12 -8 -24zM325 532l-164 -19q-14 -4 -24 -4q-14 0 -23 11.5t-9 27.5q0 19 10.5 30t21.5 11q8 0 20 -6l157 18q21 7 24 7q14 0 23.5 -11t9.5 -28q0 -22 -16 -32t-30 -5z" />
    <glyph glyph-name="Uring" unicode="&#x16e;" horiz-adv-x="604" 
d="M236 -17h-1q-87 0 -127.5 44.5t-41.5 100.5v447q-13 25 1.5 45t44.5 20q47 0 47 -58v-462q7 -21 28.5 -36t51.5 -15q60 0 108 23.5t68.5 48t20.5 40.5v398q-9 7 -9 23q0 21 17 34t44 13q18 0 31.5 -11t13.5 -30q0 -14 -4 -21v-420q0 -17 -20 -51t-49 -55
q-95 -78 -224 -78zM287 667h-1q-30 0 -49.5 25.5t-19.5 65.5q0 34 34 60t61 26q34 0 56 -22.5t22 -65.5q0 -40 -34 -64.5t-69 -24.5zM293 718h1q15 0 29 10.5t14 26.5q0 38 -24 38q-16 0 -29.5 -11t-13.5 -29q0 -35 23 -35z" />
    <glyph glyph-name="uring" unicode="&#x16f;" horiz-adv-x="473" 
d="M154 375v-270q0 -10 10 -20.5t22 -10.5q25 0 65 26.5t69 62.5v216q-6 14 -6 22q0 19 10 27t35 8q30 0 44.5 -10.5t9.5 -45.5v-322q9 -13 9 -26q0 -37 -64 -37q-45 0 -45 31q0 4 1.5 8t3.5 8.5t3 6.5v23q-83 -89 -172 -89q-32 1 -60 27.5t-28 60.5v302q0 3 -3 11t-3 13
q0 42 59 42q18 0 33 -10t15 -30q0 -12 -8 -24zM234 476h-1q-30 0 -49.5 25.5t-19.5 65.5q0 34 34 60t61 26q34 0 56 -22.5t22 -65.5q0 -40 -34 -64.5t-69 -24.5zM240 527h1q15 0 29 10.5t14 26.5q0 38 -24 38q-16 0 -29.5 -11t-13.5 -29q0 -35 23 -35z" />
    <glyph glyph-name="Uhungarumlaut" unicode="&#x170;" horiz-adv-x="604" 
d="M236 -17h-1q-87 0 -127.5 44.5t-41.5 100.5v447q-13 25 1.5 45t44.5 20q47 0 47 -58v-462q7 -21 28.5 -36t51.5 -15q60 0 108 23.5t68.5 48t20.5 40.5v398q-9 7 -9 23q0 21 17 34t44 13q18 0 31.5 -11t13.5 -30q0 -14 -4 -21v-420q0 -17 -20 -51t-49 -55
q-95 -78 -224 -78zM471 799l-80 -92q2 -14 -11.5 -29.5t-34.5 -15.5q-33 0 -35 41q2 20 16 26l82 94q-6 15 5.5 30t34.5 15q16 0 29 -11.5t13 -30.5q0 -18 -19 -27zM327 799l-81 -92q3 -14 -10.5 -29.5t-34.5 -15.5q-15 0 -25 11t-10 30t16 26l81 94q-6 15 6.5 30t35.5 15
q15 0 28 -12t13 -30t-19 -27z" />
    <glyph glyph-name="uhungarumlaut" unicode="&#x171;" horiz-adv-x="473" 
d="M154 375v-270q0 -10 10 -20.5t22 -10.5q25 0 65 26.5t69 62.5v216q-6 14 -6 22q0 19 10 27t35 8q30 0 44.5 -10.5t9.5 -45.5v-322q9 -13 9 -26q0 -37 -64 -37q-45 0 -45 31q0 4 1.5 8t3.5 8.5t3 6.5v23q-83 -89 -172 -89q-32 1 -60 27.5t-28 60.5v302q0 3 -3 11t-3 13
q0 42 59 42q18 0 33 -10t15 -30q0 -12 -8 -24zM420 603l-80 -92q2 -14 -11.5 -29.5t-34.5 -15.5q-33 0 -35 41q2 20 16 26l82 94q-6 15 5.5 30t34.5 15q16 0 29 -11.5t13 -30.5q0 -18 -19 -27zM276 603l-81 -92q3 -14 -10.5 -29.5t-34.5 -15.5q-15 0 -25 11t-10 30t16 26
l81 94q-6 15 6.5 30t35.5 15q15 0 28 -12t13 -30t-19 -27z" />
    <glyph glyph-name="Uogonek" unicode="&#x172;" horiz-adv-x="604" 
d="M341 -180h-1q-45 0 -74 24t-29 69q0 40 23 71q-3 0 -11 -0.5t-12 -0.5q-88 0 -129.5 44.5t-41.5 100.5v447q-13 25 1.5 45t44.5 20q47 0 47 -58v-462q7 -21 29 -36t52 -15q60 0 107.5 23.5t68 48t20.5 40.5v398q-9 7 -9 23q0 21 17 34t44 13q18 0 31.5 -11t13.5 -30
q0 -14 -4 -21v-420q0 -17 -20 -51t-49 -55q-39 -33 -82 -51q-39 -17 -56 -38q-20 -26 -20 -57q0 -17 12.5 -27t30.5 -10q37 0 46 19q-2 6 -2 10q0 18 30 18q15 0 23.5 -10t8.5 -26q0 -25 -30 -47t-80 -22z" />
    <glyph glyph-name="uogonek" unicode="&#x173;" horiz-adv-x="473" 
d="M391 -190h-1q-48 0 -76.5 25t-28.5 74t34 99q-11 15 2 41v23q-83 -89 -172 -89q-32 1 -60 27.5t-28 60.5v302q0 3 -3 11t-3 13q0 42 59 42q18 0 33 -10t15 -30q0 -12 -8 -24v-270q0 -10 10 -20.5t22 -10.5q25 0 65 26.5t69 62.5v216q-6 14 -6 22q0 19 10 27t35 8
q30 0 44.5 -10.5t9.5 -45.5v-322q9 -13 9 -26q0 -17 -15 -25q-57 -37 -57 -96q0 -20 13 -31.5t32 -11.5q18 0 32.5 9t18.5 21q-2 2 -2 10q0 18 30 18q15 0 24 -10t9 -26q0 -27 -32.5 -53.5t-83.5 -26.5z" />
    <glyph glyph-name="Ydieresis" unicode="&#x178;" horiz-adv-x="593" 
d="M249 83v230q-28 51 -108 127t-110 119q-30 12 -30 46q0 21 19.5 35.5t41.5 15.5q20 0 33.5 -13t12.5 -31q20 -35 94 -109t96 -109h2q24 33 86.5 93t89.5 94q17 22 23 33q15 42 53 42q21 0 34.5 -12.5t13.5 -31.5q0 -18 -28 -54q-8 -11 -25 -29.5t-18 -19.5
q-12 -14 -85.5 -83.5t-98.5 -113.5v-240q11 -14 11 -27q0 -22 -16.5 -36t-49.5 -14q-28 0 -40 10t-12 39t11 39zM216 680h-1q-19 0 -29.5 19t-10.5 39q0 58 52 58q48 0 48 -43q0 -38 -12 -55.5t-47 -17.5zM383 683h-1q-45 0 -45 54q0 25 11.5 42.5t35.5 17.5
q20 0 36.5 -13.5t16.5 -38.5q0 -62 -54 -62z" />
    <glyph glyph-name="Zacute" unicode="&#x179;" horiz-adv-x="578" 
d="M438 573l-278 -15q-15 -50 -56 -50q-21 0 -31 13t-10 30q0 42 18.5 72t47.5 30q25 0 31 -13l277 12q16 0 40.5 2.5t35.5 2.5q21 0 35 -9.5t14 -25.5q0 -38 -42 -80l-392 -470l320 9q0 26 15.5 41.5t35.5 15.5q18 0 33.5 -15t15.5 -48q0 -38 -15.5 -57t-39.5 -19
q-6 0 -60.5 0.5t-103.5 0.5q-30 0 -136 -4q-90 -5 -108 -5q-70 0 -70 52q0 28 31 58zM407 797l-74 -77q-2 -13 -14 -23t-29 -10t-27.5 10t-10.5 26q0 11 7 21t17 12l76 78q-5 17 7 26t30 9q19 0 30 -11t11 -27q0 -27 -23 -34z" />
    <glyph glyph-name="zacute" unicode="&#x17a;" horiz-adv-x="457" 
d="M40 68l254 281h-182q-1 -52 -41 -52q-39 0 -39 46q0 44 14 63t45 19h255q18 15 45 15q18 0 30 -10.5t12 -25.5q0 -30 -21 -47l-255 -281h192q9 47 44 47q39 0 39 -58q0 -74 -52 -74q-20 0 -31 9h-258q-11 -7 -36 -9q-44 0 -44 35q0 14 8 27t21 15zM343 602l-74 -77
q-2 -13 -14 -23t-29 -10t-27.5 10t-10.5 26q0 11 7 21t17 12l76 78q-5 17 7 26t30 9q19 0 30 -11t11 -27q0 -27 -23 -34z" />
    <glyph glyph-name="Zdotaccent" unicode="&#x17b;" horiz-adv-x="578" 
d="M438 573l-278 -15q-15 -50 -56 -50q-21 0 -31 13t-10 30q0 42 18.5 72t47.5 30q25 0 31 -13l277 12q16 0 40.5 2.5t35.5 2.5q21 0 35 -9.5t14 -25.5q0 -38 -42 -80l-392 -470l320 9q0 26 15.5 41.5t35.5 15.5q18 0 33.5 -15t15.5 -48q0 -38 -15.5 -57t-39.5 -19
q-6 0 -60.5 0.5t-103.5 0.5q-30 0 -136 -4q-90 -5 -108 -5q-70 0 -70 52q0 28 31 58zM300 681h-1q-44 0 -44 48q0 39 16 65t43 26q46 0 46 -46q0 -42 -17.5 -67.5t-42.5 -25.5z" />
    <glyph glyph-name="zdotaccent" unicode="&#x17c;" horiz-adv-x="457" 
d="M40 68l254 281h-182q-1 -52 -41 -52q-39 0 -39 46q0 44 14 63t45 19h255q18 15 45 15q18 0 30 -10.5t12 -25.5q0 -30 -21 -47l-255 -281h192q9 47 44 47q39 0 39 -58q0 -74 -52 -74q-20 0 -31 9h-258q-11 -7 -36 -9q-44 0 -44 35q0 14 8 27t21 15zM227 497h-1
q-44 0 -44 48q0 39 16 65t43 26q46 0 46 -46q0 -42 -17.5 -67.5t-42.5 -25.5z" />
    <glyph glyph-name="Zcaron" unicode="&#x17d;" horiz-adv-x="578" 
d="M438 573l-278 -15q-15 -50 -56 -50q-21 0 -31 13t-10 30q0 42 18.5 72t47.5 30q25 0 31 -13l277 12q16 0 40.5 2.5t35.5 2.5q21 0 35 -9.5t14 -25.5q0 -38 -42 -80l-392 -470l320 9q0 26 15.5 41.5t35.5 15.5q18 0 33.5 -15t15.5 -48q0 -38 -15.5 -57t-39.5 -19
q-6 0 -60.5 0.5t-103.5 0.5q-30 0 -136 -4q-90 -5 -108 -5q-70 0 -70 52q0 28 31 58zM415 760l-82 -63q-16 -13 -39 -13q-20 0 -35 17l-52 63q-19 9 -19 30q0 36 38 36q20 0 34 -28l44 -49l68 52q9 25 33 25q16 0 27.5 -10t11.5 -26q0 -23 -29 -34z" />
    <glyph glyph-name="zcaron" unicode="&#x17e;" horiz-adv-x="457" 
d="M40 68l254 281h-182q-1 -52 -41 -52q-39 0 -39 46q0 44 14 63t45 19h255q18 15 45 15q18 0 30 -10.5t12 -25.5q0 -30 -21 -47l-255 -281h192q9 47 44 47q39 0 39 -58q0 -74 -52 -74q-20 0 -31 9h-258q-11 -7 -36 -9q-44 0 -44 35q0 14 8 27t21 15zM343 556l-82 -63
q-16 -13 -39 -13q-20 0 -35 17l-52 63q-19 9 -19 30q0 36 38 36q20 0 34 -28l44 -49l68 52q9 25 33 25q16 0 27.5 -10t11.5 -26q0 -23 -29 -34z" />
    <glyph glyph-name="florin" unicode="&#x192;" horiz-adv-x="656" 
d="M300 382l104 6q5 12 25 12q17 0 27 -11.5t10 -28.5q0 -23 -11.5 -40t-30.5 -17q-8 0 -21 9l-118 -8q-36 -201 -65.5 -296.5t-65.5 -130.5t-98 -35q-17 0 -30.5 2.5t-23 5t-17.5 10t-12 10t-9.5 15t-6.5 14.5t-6 18t-5 17q-18 8 -18 34q0 22 13 36t35 14q21 1 34 -8.5
t13 -23.5t-6 -21q2 -24 11.5 -34.5t32.5 -10.5q25 0 42 27t36.5 105.5t49.5 245.5l-78 -6q-10 -6 -22 -6q-14 0 -22.5 14t-8.5 35q0 16 11 27.5t27 11.5q12 0 20 -5l87 6q14 75 33 130.5t39 86t44 49t43.5 24t42.5 5.5q53 0 81 -33.5t28 -59.5q0 -19 -11.5 -34.5
t-29.5 -15.5q-22 0 -31.5 7.5t-7.5 22.5t-8 24.5t-30 9.5q-59 0 -96 -209z" />
    <glyph glyph-name="Scommaaccent" unicode="&#x218;" horiz-adv-x="633" 
d="M355 649h1q65 0 118 -33.5t53 -67.5q0 -42 -45 -42q-57 0 -57 35q-19 28 -83 28q-78 0 -140.5 -50t-62.5 -105q0 -49 44 -49q38 0 119 23q87 24 146 24q66 0 108 -34t42 -99q0 -87 -56 -152q-54 -66 -145 -104t-181 -38q-45 0 -81 14.5t-55.5 36t-29 41.5t-9.5 34
q0 25 15 42t40 17q15 0 24 -8.5t18.5 -31.5t9.5 -24q21 -41 75 -41q60 0 127 29t107 73q41 38 41 106q0 31 -15.5 44t-47.5 13q-49 0 -134 -23q-78 -24 -139 -24q-123 0 -123 121q0 87 95.5 166t220.5 79zM274 -243h-1q-26 0 -26 24q0 28 35 33q19 2 30.5 16t11.5 37
q0 19 -13 25q-43 -7 -43 32q0 30 33 30q34 0 58 -24t24 -63q0 -51 -35 -80.5t-74 -29.5z" />
    <glyph glyph-name="scommaaccent" unicode="&#x219;" horiz-adv-x="502" 
d="M308 454h1q51 0 83.5 -15t32.5 -42q0 -18 -10.5 -28.5t-28.5 -10.5q-17 0 -24 11t-53 11q-71 0 -123 -31t-52 -66q0 -26 28 -26q11 0 24.5 3.5t34 9.5t33.5 9q9 2 28.5 7.5t30 7.5t25.5 4.5t28 2.5q47 0 78 -26.5t31 -74.5q0 -56 -33 -100t-82 -66.5t-93.5 -34
t-77.5 -11.5q-54 0 -96 24.5t-42 59.5q0 23 13 38t37 15q19 0 27.5 -8.5t8.5 -18.5q0 -8 -3 -13q20 -22 59 -22q62 0 125.5 33.5t63.5 86.5q0 41 -41 41q-13 0 -26 -3t-33 -9.5t-33 -9.5q-82 -22 -120 -22q-40 0 -64 26.5t-24 65.5q0 76 85.5 129t181.5 53zM209 -241h-1
q-26 0 -26 24q0 28 35 33q19 2 30.5 16t11.5 37q0 19 -13 25q-43 -7 -43 32q0 30 33 30q34 0 58 -24t24 -63q0 -51 -35 -80.5t-74 -29.5z" />
    <glyph glyph-name="circumflex" unicode="&#x2c6;" 
d="M221 634l65 -91q20 -17 20 -34q0 -15 -12 -25.5t-32 -10.5q-15 0 -23 11t-6 24l-52 74l-70 -76q1 -14 -8 -23.5t-22 -9.5q-18 0 -30 12t-12 25q0 19 24 36l85 95q19 21 35 21q21 0 38 -28z" />
    <glyph glyph-name="caron" unicode="&#x2c7;" 
d="M289 556l-82 -63q-16 -13 -39 -13q-20 0 -35 17l-52 63q-19 9 -19 30q0 36 38 36q20 0 34 -28l44 -49l68 52q9 25 33 25q16 0 27.5 -10t11.5 -26q0 -23 -29 -34z" />
    <glyph glyph-name="breve" unicode="&#x2d8;" 
d="M163 475h-1q-51 0 -87 37t-36 75t37 38q33 0 33 -31q0 -19 14.5 -36t38.5 -17q55 0 73 45q-4 8 -4 19t12.5 18t27.5 7q16 0 26 -8.5t10 -22.5q0 -18 -8 -27q-37 -97 -136 -97z" />
    <glyph glyph-name="dotaccent" unicode="&#x2d9;" 
d="M168 490h-1q-44 0 -44 48q0 39 16 65t43 26q46 0 46 -46q0 -42 -17.5 -67.5t-42.5 -25.5z" />
    <glyph glyph-name="ring" unicode="&#x2da;" 
d="M173 476h-1q-30 0 -49.5 25.5t-19.5 65.5q0 34 34 60t61 26q34 0 56 -22.5t22 -65.5q0 -40 -34 -64.5t-69 -24.5zM179 527h1q15 0 29 10.5t14 26.5q0 38 -24 38q-16 0 -29.5 -11t-13.5 -29q0 -35 23 -35z" />
    <glyph glyph-name="ogonek" unicode="&#x2db;" 
d="M157 -203h-1q-45 0 -74 24t-29 69q0 56 43 100.5t83 47.5q1 6 12 10t23 4t21 -8t9 -20q0 -15 -9.5 -25t-24.5 -10q-17 0 -37.5 -12t-34.5 -29q-20 -26 -20 -57q0 -16 12.5 -26t30.5 -10q37 0 46 19q-2 6 -2 10q0 17 30 17q32 0 32 -35q0 -25 -30.5 -47t-79.5 -22z" />
    <glyph glyph-name="tilde" unicode="&#x2dc;" 
d="M230 500h-1q-42 0 -72 36q-21 23 -35 23q-26 0 -37 -31q-11 -23 -34 -23q-20 0 -29.5 10t-9.5 25q0 5 7 13.5t8 9.5q20 33 42 46.5t58 13.5q25 0 59 -30q30 -30 48 -30q14 0 21.5 11t6.5 24q-1 15 9.5 22t25.5 7q16 0 27 -8.5t11 -18.5q0 -8 -5 -18q-12 -40 -35 -61
t-65 -21z" />
    <glyph glyph-name="hungarumlaut" unicode="&#x2dd;" 
d="M339 595l-80 -92q2 -14 -11.5 -29.5t-34.5 -15.5q-33 0 -35 41q2 20 16 26l82 94q-6 15 5.5 30t34.5 15q16 0 29 -11.5t13 -30.5q0 -18 -19 -27zM195 595l-81 -92q3 -14 -10.5 -29.5t-34.5 -15.5q-15 0 -25 11t-10 30t16 26l81 94q-6 15 6.5 30t35.5 15q15 0 28 -12
t13 -30t-19 -27z" />
    <glyph glyph-name="Delta" unicode="&#x394;" horiz-adv-x="612" 
d="M552 -4l-502 -11q-20 -1 -34.5 11t-15.5 32q-1 18 40 98q72 141 109 228q75 170 96 263q6 30 18 46.5t38 16.5q21 0 35 -15t18 -27.5t11 -38.5q20 -70 120 -278q80 -166 101 -243q19 -13 19 -36q0 -22 -15.5 -33.5t-37.5 -12.5zM112 69l379 10q-24 76 -90 213
q-74 157 -98 224q-27 -87 -88 -228q-43 -101 -103 -219z" />
    <glyph glyph-name="Delta" unicode="&#x2206;" horiz-adv-x="612" 
d="M552 -4l-502 -11q-20 -1 -34.5 11t-15.5 32q-1 18 40 98q72 141 109 228q75 170 96 263q6 30 18 46.5t38 16.5q21 0 35 -15t18 -27.5t11 -38.5q20 -70 120 -278q80 -166 101 -243q19 -13 19 -36q0 -22 -15.5 -33.5t-37.5 -12.5zM112 69l379 10q-24 76 -90 213
q-74 157 -98 224q-27 -87 -88 -228q-43 -101 -103 -219z" />
    <glyph glyph-name="Omega" unicode="&#x3a9;" horiz-adv-x="768" 
d="M630 0h-150q-7 0 -20 -2.5t-18 -2.5q-51 2 -51 44q0 21 23 46q63 65 107 130q75 102 75 224q0 62 -42 108.5t-111 46.5q-98 0 -162 -77t-64 -185q0 -128 106 -247q21 -24 22 -41q1 -22 -12.5 -37t-37.5 -15q-11 0 -23 3l-157 -4q-7 0 -18.5 -4t-16.5 -4q-22 0 -37 13
t-15 36q0 21 14.5 38t35.5 17q25 0 42 -13l101 2q-97 122 -97 262q0 139 92.5 238t236.5 99q41 0 81.5 -15t75.5 -43.5t57 -75.5t22 -105q0 -99 -42.5 -179.5t-127.5 -174.5h98q12 28 46 28q18 0 33 -12.5t15 -41.5q0 -26 -16 -44.5t-41 -18.5q-14 0 -24 7z" />
    <glyph glyph-name="Omega" unicode="&#x2126;" horiz-adv-x="768" 
d="M630 0h-150q-7 0 -20 -2.5t-18 -2.5q-51 2 -51 44q0 21 23 46q63 65 107 130q75 102 75 224q0 62 -42 108.5t-111 46.5q-98 0 -162 -77t-64 -185q0 -128 106 -247q21 -24 22 -41q1 -22 -12.5 -37t-37.5 -15q-11 0 -23 3l-157 -4q-7 0 -18.5 -4t-16.5 -4q-22 0 -37 13
t-15 36q0 21 14.5 38t35.5 17q25 0 42 -13l101 2q-97 122 -97 262q0 139 92.5 238t236.5 99q41 0 81.5 -15t75.5 -43.5t57 -75.5t22 -105q0 -99 -42.5 -179.5t-127.5 -174.5h98q12 28 46 28q18 0 33 -12.5t15 -41.5q0 -26 -16 -44.5t-41 -18.5q-14 0 -24 7z" />
    <glyph glyph-name="pi" unicode="&#x3c0;" horiz-adv-x="549" 
d="M510 407l-103 -10q-3 -35 -13 -111q-10 -95 -9 -119q2 -89 29 -89q11 0 30 11t28 22q3 38 43 38q25 0 36 -14t11 -33q0 -10 -7 -20q-20 -30 -68 -57t-89 -27q-95 0 -101 160q-2 57 8 122q6 58 11 108l-72 -7l-19 -146q-11 -78 -24.5 -123t-39.5 -82q-3 -48 -54 -48
q-24 0 -41 12t-17 31q0 36 32 44q39 57 54 163l18 137q-39 -6 -54 -19q-6 -5 -15 -14l-13 -13q-15 -17 -35 -17t-34 11.5t-14 29.5q0 40 40 52q64 49 195 62l270 24q13 13 29 13q24 0 34.5 -14.5t10.5 -30.5q0 -18 -10.5 -33t-32.5 -15q-6 0 -14 2z" />
    <glyph glyph-name="endash" unicode="&#x2013;" horiz-adv-x="500" 
d="M107 322h279q14 12 28 12q20 1 33 -14t13 -39q0 -20 -13 -35.5t-29 -15.5q-21 0 -27 12h-277q-13 -16 -35 -16q-15 0 -27 15.5t-12 37.5q0 25 12.5 39.5t28.5 14.5q18 0 26 -11z" />
    <glyph glyph-name="emdash" unicode="&#x2014;" horiz-adv-x="1000" 
d="M891 242h-777q-13 -16 -35 -16q-15 0 -27 15.5t-12 37.5q0 25 12.5 39.5t28.5 14.5q18 0 26 -11h779q14 12 28 12q20 1 33 -14t13 -39q0 -20 -13 -35.5t-29 -15.5q-21 0 -27 12z" />
    <glyph glyph-name="quoteleft" unicode="&#x2018;" horiz-adv-x="179" 
d="M86 448h-1q-53 0 -53 81q0 62 30.5 105t62.5 43q27 0 27 -21q0 -25 -23 -27q-19 -2 -37 -25t-16 -55q15 18 34 18q40 0 40 -53q0 -25 -17.5 -45.5t-46.5 -20.5z" />
    <glyph glyph-name="quoteright" unicode="&#x2019;" horiz-adv-x="179" 
d="M102 677h1q53 0 53 -81q0 -63 -30.5 -106t-62.5 -43q-27 0 -27 21q0 25 23 27q19 2 37 25t16 56q-15 -18 -34 -18q-40 0 -40 53q0 25 17.5 45.5t46.5 20.5z" />
    <glyph glyph-name="quotesinglbase" unicode="&#x201a;" horiz-adv-x="179" 
d="M154 29v-1q0 -62 -30.5 -105t-62.5 -43q-27 0 -27 21q0 25 23 27q19 2 37 25t16 56q-15 -18 -34 -18q-40 0 -40 53q0 25 17.5 45.5t46.5 20.5q54 0 54 -81z" />
    <glyph glyph-name="quotedblleft" unicode="&#x201c;" horiz-adv-x="345" 
d="M86 448h-1q-53 0 -53 81q0 62 30.5 105t62.5 43q27 0 27 -21q0 -25 -23 -27q-19 -2 -37 -25t-16 -55q15 18 34 18q40 0 40 -53q0 -25 -17.5 -45.5t-46.5 -20.5zM252 448h-1q-53 0 -53 81q0 62 30.5 105t62.5 43q27 0 27 -21q0 -25 -23 -27q-19 -2 -37 -25t-16 -55
q15 18 34 18q40 0 40 -53q0 -25 -17.5 -45.5t-46.5 -20.5z" />
    <glyph glyph-name="quotedblright" unicode="&#x201d;" horiz-adv-x="345" 
d="M102 677h1q53 0 53 -81q0 -63 -30.5 -106t-62.5 -43q-27 0 -27 21q0 25 23 27q19 2 37 25t16 56q-15 -18 -34 -18q-40 0 -40 53q0 25 17.5 45.5t46.5 20.5zM267 677h1q53 0 53 -81q0 -63 -30.5 -106t-62.5 -43q-27 0 -27 21q0 25 23 27q19 2 37 25t16 56q-15 -18 -34 -18
q-40 0 -40 53q0 25 17.5 45.5t46.5 20.5z" />
    <glyph glyph-name="quotedblbase" unicode="&#x201e;" horiz-adv-x="345" 
d="M154 29v-1q0 -62 -30.5 -105t-62.5 -43q-27 0 -27 21q0 25 23 27q19 2 37 25t16 56q-15 -18 -34 -18q-40 0 -40 53q0 25 17.5 45.5t46.5 20.5q54 0 54 -81zM320 29v-1q0 -62 -30.5 -105t-62.5 -43q-27 0 -27 21q0 25 23 27q19 2 37 25t16 56q-15 -18 -34 -18
q-40 0 -40 53q0 25 17.5 45.5t46.5 20.5q54 0 54 -81z" />
    <glyph glyph-name="dagger" unicode="&#x2020;" horiz-adv-x="470" 
d="M282 576v-112h77q22 15 36 14q19 0 31.5 -15.5t12.5 -36.5q0 -26 -16 -39.5t-38 -13.5q-8 0 -24 12h-79v-320q15 -17 15 -34q0 -45 -56 -45q-63 0 -63 49q0 15 10 38v312h-77q-31 -16 -36 -16q-19 0 -31 16t-12 35q0 25 12.5 40t30.5 15q10 0 32 -11h81v108
q-12 17 -12 42q0 18 17 29t41 11t39.5 -14.5t15.5 -32.5t-7 -31z" />
    <glyph glyph-name="daggerdbl" unicode="&#x2021;" horiz-adv-x="470" 
d="M282 575v-95h84q28 14 35 14q36 0 36 -49q0 -24 -13.5 -38.5t-31.5 -14.5q-12 0 -26 9h-84v-157h83q24 13 38 13q34 0 34 -51q0 -24 -13 -37t-31 -13q-10 0 -26 9h-85v-102q15 -11 15 -33q0 -44 -57 -44q-29 0 -44.5 12.5t-15.5 33.5q0 24 8 37v96h-78q-20 -15 -32 -15
q-21 0 -32.5 14t-11.5 31q0 28 12 43.5t32 15.5q14 0 28 -10h82v157h-79q-23 -14 -34 -14q-21 0 -31 15.5t-10 33.5q0 24 11.5 39t29.5 15q13 0 31 -10h82v93q-13 20 -13 39q0 21 17.5 31.5t44.5 10.5q24 0 38 -14.5t14 -33.5q0 -15 -7 -31z" />
    <glyph glyph-name="bullet" unicode="&#x2022;" horiz-adv-x="333" 
d="M137 181h-1q-43 0 -69.5 38t-26.5 75q0 40 10.5 70t25.5 46t36.5 26t38 12.5t35.5 2.5q46 0 72.5 -24.5t26.5 -102.5q0 -41 -17 -71t-43 -44.5t-48 -21t-40 -6.5z" />
    <glyph glyph-name="ellipsis" unicode="&#x2026;" horiz-adv-x="1000" 
d="M161 -8h-1q-18 0 -33 16t-15 44q0 25 17 46t45 21q48 0 48 -60q0 -28 -15 -47.5t-46 -19.5zM494 -8h-1q-18 0 -33 16t-15 44q0 25 17 46t45 21q48 0 48 -60q0 -28 -15 -47.5t-46 -19.5zM827 -8h-1q-18 0 -33 16t-15 44q0 25 17 46t45 21q48 0 48 -60q0 -28 -15 -47.5
t-46 -19.5z" />
    <glyph glyph-name="perthousand" unicode="&#x2030;" horiz-adv-x="927" 
d="M500 611v-1q0 -9 -7.5 -18.5t-18.5 -13.5l-281 -537q-1 -25 -16 -37.5t-37 -12.5q-47 0 -47 40q0 6 4 12t10.5 12.5t8.5 10.5l287 546q0 20 12 32.5t27 12.5q19 0 38.5 -12.5t19.5 -33.5zM134 400h-1q-43 0 -74 27t-31 78q0 60 50.5 105.5t107.5 45.5q47 0 76.5 -26
t29.5 -75q0 -59 -51 -107t-107 -48zM143 468h1q22 0 42 26t20 56q0 16 -7 27t-19 11q-26 0 -46 -24t-20 -54q0 -42 29 -42zM487 261h1q38 0 67 -31.5t29 -88.5q0 -69 -52 -114t-123 -45q-39 0 -69 30t-30 84q0 78 54 121.5t123 43.5zM801 261h1q39 0 68 -31t29 -89
q0 -69 -52 -114t-124 -45q-39 0 -69 30t-30 84q0 78 54 121.5t123 43.5zM469 193h-1q-29 0 -50.5 -25.5t-21.5 -68.5q0 -49 30 -49q28 0 50 25.5t22 65.5q0 52 -29 52zM784 193h-1q-30 0 -51.5 -25t-21.5 -69q0 -49 30 -49q28 0 50.5 25t22.5 65q0 53 -29 53z" />
    <glyph glyph-name="guilsinglleft" unicode="&#x2039;" horiz-adv-x="287" 
d="M136 101l-99 135q-21 16 -21 45q0 27 23 43l142 141q11 28 48 28q17 0 32 -13t15 -32q0 -16 -11.5 -28t-26.5 -14l-121 -127l85 -122q11 0 21 -11.5t10 -28.5q0 -19 -15 -33t-34 -14q-40 0 -48 31z" />
    <glyph glyph-name="guilsinglright" unicode="&#x203a;" horiz-adv-x="287" 
d="M171 282l-98 123q-34 6 -36 41q0 19 13.5 33t30.5 14q37 0 52 -31l118 -138q21 -13 21 -43q0 -28 -22 -44l-121 -136q0 -13 -14 -22t-33 -9q-20 0 -36 13t-16 32q0 15 10 27t22 14z" />
    <glyph glyph-name="fraction" unicode="&#x2044;" horiz-adv-x="281" 
d="M-77 23v1q0 14 5 22.5t14 15t11 9.5l307 540q7 46 39 46q21 0 41 -14t20 -32q0 -14 -10 -25t-20 -14l-304 -539q-1 -22 -18 -33.5t-37 -11.5q-48 0 -48 35z" />
    <glyph glyph-name="fraction" unicode="&#x2215;" horiz-adv-x="281" 
d="M-77 23v1q0 14 5 22.5t14 15t11 9.5l307 540q7 46 39 46q21 0 41 -14t20 -32q0 -14 -10 -25t-20 -14l-304 -539q-1 -22 -18 -33.5t-37 -11.5q-48 0 -48 35z" />
    <glyph glyph-name="zerosuperior" unicode="&#x2070;" horiz-adv-x="431" 
d="M189 369h-1q-64 0 -105 36t-41 103q0 64 22 115t57 80.5t74.5 44.5t78.5 15q66 0 112.5 -39.5t46.5 -102.5q0 -69 -26.5 -121.5t-66.5 -79t-78.5 -39t-72.5 -12.5zM196 436h1q52 0 98.5 46t46.5 135q0 37 -20.5 58t-53.5 21q-54 0 -94.5 -47.5t-40.5 -135.5
q0 -38 18 -57.5t45 -19.5z" />
    <glyph glyph-name="foursuperior" unicode="&#x2074;" horiz-adv-x="414" 
d="M326 704v-145l50 6q10 10 23 12q32 0 32 -39q0 -38 -29 -38q-17 0 -26 6l-50 -6v-59q16 -8 16 -24q0 -42 -69 -42q-20 0 -31 11t-11 23q0 19 9 25v56l-156 -19q-21 -6 -28 -6q-35 0 -35 43q0 18 25 37l189 198q7 26 55 26q18 0 31.5 -9.5t13.5 -24.5q0 -17 -9 -31z
M240 549v117l-127 -133z" />
    <glyph glyph-name="fivesuperior" unicode="&#x2075;" horiz-adv-x="403" 
d="M310 697l-169 -12q-1 -9 -3.5 -30.5t-3.5 -32.5q52 29 123 29q140 0 140 -107q0 -78 -70.5 -126.5t-151.5 -48.5q-63 0 -99 20.5t-36 53.5q0 14 13.5 25t29.5 11q23 0 37 -20q22 -24 59 -24q54 0 91 27.5t37 70.5q0 52 -62 52q-53 0 -99 -24q-13 -5 -30 -16
q-14 -9 -26 -9q-39 0 -39 32q0 7 4 21.5t5 23.5q2 17 7 54.5t7 55.5q1 24 32 26l202 13q14 12 28 12q17 0 28 -12.5t11 -30.5q0 -21 -10.5 -32.5t-24.5 -11.5q-16 0 -30 10z" />
    <glyph glyph-name="sixsuperior" unicode="&#x2076;" horiz-adv-x="425" 
d="M204 369h-1q-73 0 -123 51q-16 2 -26 16.5t-5 31.5q-15 30 -15 64q0 90 68 164t169 74q57 0 89.5 -17.5t32.5 -42.5q0 -16 -12 -26t-29 -10q-18 0 -41 19q-15 11 -46 11q-57 0 -98.5 -45t-47.5 -98q-1 -8 2 -16q33 37 80 63t91 26q61 0 92.5 -28.5t31.5 -66.5
q0 -54 -35.5 -94t-82.5 -58t-94 -18zM208 435h1q42 0 80 26.5t38 68.5q0 15 -11 26.5t-30 11.5q-33 0 -73 -25t-71 -65q7 -17 26.5 -30t39.5 -13z" />
    <glyph glyph-name="sevensuperior" unicode="&#x2077;" horiz-adv-x="333" 
d="M256 692l-137 -13l-2 -18q10 -8 10 -17q0 -13 -14.5 -22.5t-37.5 -9.5q-38 0 -36 37q1 11 3.5 31t3.5 31q2 17 9.5 24t27.5 9l194 17q10 1 27 8.5t26 7.5q16 0 28 -8.5t12 -22.5q0 -7 -20 -42l-131 -242q-4 -9 -12.5 -30.5t-12.5 -30.5q-16 -34 -49 -34q-17 0 -28.5 11.5
t-11.5 26.5q0 9 4 19t13.5 23t10.5 15z" />
    <glyph glyph-name="eightsuperior" unicode="&#x2078;" horiz-adv-x="433" 
d="M161 372h-1q-54 0 -88.5 25.5t-34.5 69.5q0 37 25 70.5t57 53.5q-35 14 -35 55q0 57 50 90.5t117 33.5q50 0 84.5 -21.5t34.5 -52.5q0 -34 -27 -61q33 -5 60 -27t27 -56q0 -69 -82 -124.5t-187 -55.5zM245 706h-1q-30 0 -52 -15.5t-22 -38.5t19 -30q28 10 69 15
q26 14 26 44q0 11 -11 18t-28 7zM172 438h1q54 0 110.5 32t56.5 73q0 12 -13 21.5t-43 9.5q-53 0 -105 -31t-52 -74q0 -13 13.5 -22t31.5 -9z" />
    <glyph glyph-name="ninesuperior" unicode="&#x2079;" horiz-adv-x="413" 
d="M248 766h1q72 0 123 -58q11 -4 19.5 -15.5t8.5 -24.5q0 -9 -3 -15q10 -23 10 -58q0 -98 -67 -163.5t-163 -65.5q-51 0 -92 21t-41 53q0 14 10 24t26 10q25 0 41 -20q6 -8 23.5 -15t35.5 -7q57 0 96 39t45 88v18q-23 -28 -61 -44.5t-81 -16.5q-59 0 -94 30.5t-35 72.5
q0 63 57.5 105t140.5 42zM242 700h-1q-46 0 -75 -20.5t-29 -54.5q0 -18 13.5 -30.5t36.5 -12.5q39 0 74 19.5t51 47.5q-6 20 -25.5 35.5t-44.5 15.5z" />
    <glyph glyph-name="parenleftsuperior" unicode="&#x207d;" horiz-adv-x="234" 
d="M160 821h1q22 0 40.5 -16t18.5 -46q0 -17 -12.5 -26t-26.5 -7q-54 -44 -54 -177q0 -137 54 -181q13 6 24.5 -5.5t11.5 -31.5q0 -26 -14.5 -38.5t-28.5 -12.5q-30 0 -47 21q-44 45 -64.5 113.5t-20.5 137.5q0 71 24.5 134.5t60.5 102.5q2 13 12 22.5t21 9.5z" />
    <glyph glyph-name="parenrightsuperior" unicode="&#x207e;" horiz-adv-x="234" 
d="M94 821h1q10 0 19 -8.5t13 -23.5q83 -86 83 -237q0 -68 -19.5 -136.5t-63.5 -113.5q-19 -22 -48 -22q-14 0 -28 12.5t-14 38.5q0 20 11.5 31.5t23.5 5.5q29 23 41 65.5t12 115.5q0 137 -53 177q-14 -2 -26.5 7t-12.5 26q0 25 13 40t25 18.5t23 3.5z" />
    <glyph glyph-name="zeroinferior" unicode="&#x2080;" horiz-adv-x="431" 
d="M171 -131h-1q-64 0 -105 36t-41 103q0 64 22 115t57 80.5t74.5 44.5t78.5 15q66 0 112.5 -39.5t46.5 -102.5q0 -69 -26.5 -121.5t-66.5 -79t-78.5 -39t-72.5 -12.5zM178 -64h1q52 0 98.5 46t46.5 135q0 37 -20.5 58t-53.5 21q-54 0 -94.5 -47.5t-40.5 -135.5
q0 -38 18 -57.5t45 -19.5z" />
    <glyph glyph-name="oneinferior" unicode="&#x2081;" horiz-adv-x="242" 
d="M181 208v-259q0 -2 2 -14.5t2 -18.5q0 -19 -19 -30t-53 -11q-39 0 -39 25q0 9 3.5 17t11 19.5t8.5 12.5v195q-2 0 -21 -16.5t-29 -16.5q-13 0 -23 8.5t-10 22.5q0 22 52 61q16 12 33.5 28.5t28 24t21.5 7.5q15 0 28 -8t13 -21q0 -5 -9 -26z" />
    <glyph glyph-name="twoinferior" unicode="&#x2082;" horiz-adv-x="380" 
d="M109 -58l129 5q17 0 17 4q1 16 12 26.5t28 10.5q44 0 44 -47q0 -55 -44 -56l-222 -10q-32 -2 -46 7.5t-14 31.5q0 59 37.5 97t101.5 67q87 37 87 89q0 30 -45 30q-23 0 -37 -6.5t-18.5 -13.5t-9.5 -19q-4 -14 -7 -20t-14.5 -12.5t-32.5 -6.5q-18 0 -30 10t-12 22
q0 38 42.5 75t134.5 37q55 0 88 -22t33 -66q0 -52 -32 -85t-89 -59q-49 -23 -73 -43t-28 -46z" />
    <glyph glyph-name="threeinferior" unicode="&#x2083;" horiz-adv-x="413" 
d="M253 193l-125 -15q0 -46 -40 -46q-36 0 -36 58q0 50 37 50q28 0 117.5 11.5t103.5 11.5q39 0 39 -35q0 -25 -63 -96q40 2 66 -23.5t26 -72.5q0 -78 -63 -125t-154 -47q-36 0 -65.5 11t-46 26.5t-25 29t-8.5 22.5q0 15 14.5 28t35.5 13q23 0 36 -27q15 -37 67 -37t85.5 28
t33.5 68q0 46 -40 46q-31 0 -46.5 -19.5t-32.5 -19.5q-14 0 -23.5 7.5t-9.5 20.5q0 31 37 42q30 10 80 90z" />
    <glyph glyph-name="fourinferior" unicode="&#x2084;" horiz-adv-x="414" 
d="M308 204v-145l50 6q10 10 23 12q32 0 32 -39q0 -38 -29 -38q-17 0 -26 6l-50 -6v-59q16 -8 16 -24q0 -42 -69 -42q-20 0 -31 11t-11 23q0 19 9 25v56l-156 -19q-21 -6 -28 -6q-35 0 -35 43q0 18 25 37l189 198q7 26 55 26q18 0 31.5 -9.5t13.5 -24.5q0 -17 -9 -31z
M222 49v117l-127 -133z" />
    <glyph glyph-name="fiveinferior" unicode="&#x2085;" horiz-adv-x="403" 
d="M292 197l-169 -12q-1 -9 -3.5 -30.5t-3.5 -32.5q52 29 123 29q140 0 140 -107q0 -78 -70.5 -126.5t-151.5 -48.5q-63 0 -99 20.5t-36 53.5q0 14 13.5 25t29.5 11q23 0 37 -20q22 -24 59 -24q54 0 91 27.5t37 70.5q0 52 -62 52q-53 0 -99 -24q-13 -5 -30 -16
q-14 -9 -26 -9q-39 0 -39 32q0 7 4 21.5t5 23.5q2 17 7 54.5t7 55.5q1 24 32 26l202 13q14 12 28 12q17 0 28 -12.5t11 -30.5q0 -21 -10.5 -32.5t-24.5 -11.5q-16 0 -30 10z" />
    <glyph glyph-name="sixinferior" unicode="&#x2086;" horiz-adv-x="425" 
d="M186 -131h-1q-73 0 -123 51q-16 2 -26 16.5t-5 31.5q-15 30 -15 64q0 90 68 164t169 74q57 0 89.5 -17.5t32.5 -42.5q0 -16 -12 -26t-29 -10q-18 0 -41 19q-15 11 -46 11q-57 0 -98.5 -45t-47.5 -98q-1 -8 2 -16q33 37 80 63t91 26q61 0 92.5 -28.5t31.5 -66.5
q0 -54 -35.5 -94t-82.5 -58t-94 -18zM190 -65h1q42 0 80 26.5t38 68.5q0 15 -11 26.5t-30 11.5q-33 0 -73 -25t-71 -65q7 -17 26.5 -30t39.5 -13z" />
    <glyph glyph-name="seveninferior" unicode="&#x2087;" horiz-adv-x="333" 
d="M238 192l-137 -13l-2 -18q10 -8 10 -17q0 -13 -14.5 -22.5t-37.5 -9.5q-38 0 -36 37q1 10 3.5 30.5t3.5 31.5q2 17 9.5 24t27.5 9l194 17q10 1 27 8.5t26 7.5q16 0 28 -8.5t12 -22.5q0 -7 -20 -42l-131 -242q-4 -9 -12.5 -30.5t-12.5 -30.5q-16 -34 -49 -34
q-17 0 -28.5 11.5t-11.5 26.5q0 9 4 19t13.5 23t10.5 15z" />
    <glyph glyph-name="eightinferior" unicode="&#x2088;" horiz-adv-x="433" 
d="M143 -128h-1q-54 0 -88.5 25.5t-34.5 69.5q0 37 25 70.5t57 53.5q-35 14 -35 55q0 57 50 90.5t117 33.5q50 0 84.5 -21.5t34.5 -52.5q0 -34 -27 -61q33 -5 60 -27t27 -56q0 -69 -82 -124.5t-187 -55.5zM227 206h-1q-30 0 -52 -15.5t-22 -38.5t19 -30q28 10 69 15
q26 14 26 44q0 11 -11 18t-28 7zM154 -62h1q54 0 110.5 32t56.5 73q0 12 -13 21.5t-43 9.5q-53 0 -105 -31t-52 -74q0 -13 13.5 -22t31.5 -9z" />
    <glyph glyph-name="nineinferior" unicode="&#x2089;" horiz-adv-x="413" 
d="M230 266h1q72 0 123 -58q11 -4 19.5 -15.5t8.5 -24.5q0 -9 -3 -15q10 -23 10 -58q0 -98 -67 -163.5t-163 -65.5q-51 0 -92 21t-41 53q0 14 10 24t26 10q25 0 41 -20q6 -8 23.5 -15t35.5 -7q57 0 96 39t45 88v18q-23 -28 -61 -44.5t-81 -16.5q-59 0 -94 30.5t-35 72.5
q0 63 57.5 105t140.5 42zM224 200h-1q-46 0 -75 -20.5t-29 -54.5q0 -18 13.5 -30.5t36.5 -12.5q39 0 74 19.5t51 47.5q-6 20 -25.5 35.5t-44.5 15.5z" />
    <glyph glyph-name="parenleftinferior" unicode="&#x208d;" horiz-adv-x="234" 
d="M142 321h1q22 0 40.5 -16t18.5 -46q0 -17 -12.5 -26t-26.5 -7q-54 -44 -54 -177q0 -137 54 -181q13 6 24.5 -5.5t11.5 -31.5q0 -26 -14.5 -38.5t-28.5 -12.5q-30 0 -47 21q-44 45 -64.5 113.5t-20.5 137.5q0 71 24.5 134.5t60.5 102.5q2 13 12 22.5t21 9.5z" />
    <glyph glyph-name="parenrightinferior" unicode="&#x208e;" horiz-adv-x="234" 
d="M76 321h1q10 0 19 -8.5t13 -23.5q83 -86 83 -237q0 -68 -19.5 -136.5t-63.5 -113.5q-19 -22 -48 -22q-14 0 -28 12.5t-14 38.5q0 20 11.5 31.5t23.5 5.5q29 23 41 65.5t12 115.5q0 137 -53 177q-14 -2 -26.5 7t-12.5 26q0 25 13 40t25 18.5t23 3.5z" />
    <glyph glyph-name="Euro" unicode="&#x20ac;" horiz-adv-x="656" 
d="M428 223l-226 -10q15 -71 60 -110t105 -39q112 0 154 59q26 33 51 33q16 0 32 -15.5t16 -30.5q0 -33 -48 -70q-81 -57 -205 -57q-113 0 -182.5 61.5t-84.5 164.5l-21 -1q-16 -9 -28 -9q-15 0 -25.5 12t-10.5 31q0 40 34 40q10 0 22 -3l23 1q1 29 6 58l-20 -1
q-13 -8 -30 -8t-26 12.5t-9 31.5q0 18 10 28.5t26 10.5q10 0 22 -5l47 2q38 106 118.5 175t181.5 69q82 0 140 -33q58 -35 58 -85q0 -20 -16 -34.5t-37 -14.5q-15 0 -27.5 12.5t-13.5 30.5q-13 18 -41 30.5t-61 12.5q-57 0 -110.5 -44t-84.5 -114l242 11q18 12 32 12
q17 0 27 -12t10 -29q0 -19 -10.5 -32.5t-27.5 -13.5q-8 0 -22 4l-278 -12q-5 -25 -7 -58l227 10q20 10 32 10q35 0 35 -38q0 -22 -11 -34.5t-24 -12.5q-10 0 -24 4z" />
    <glyph glyph-name="afii61289" unicode="&#x2113;" horiz-adv-x="656" 
d="M305 -15h-1q-113 0 -119 134v21q-7 -4 -21 -14q-30 -30 -58 -30q-19 0 -32 14t-13 35q0 19 14.5 32.5t27.5 17.5t34 8q17 10 49 30q10 329 100 419q35 35 86 35q63 0 107 -44t44 -118q0 -72 -64.5 -156.5t-179.5 -166.5q0 -13 -0.5 -39.5t-0.5 -40.5q0 -58 31 -58
q16 0 35.5 14.5t29.5 32.5q-1 4 -1 12q1 18 13 29.5t35 11.5q22 0 35 -13.5t13 -33.5q0 -14 -10 -26q-24 -42 -65.5 -74t-88.5 -32zM373 607h-1q-13 0 -24 -11q-49 -49 -63 -291q142 123 142 220q0 35 -16.5 58.5t-37.5 23.5z" />
    <glyph glyph-name="trademark" unicode="&#x2122;" horiz-adv-x="820" 
d="M765 639v-1q0 -4 -3 -16v-254q8 -10 8 -19q0 -19 -17 -29t-41 -10q-33 0 -33 29q0 1 7 19q1 55 1 165h-2q-7 -14 -27.5 -50t-35 -64.5t-21.5 -49.5q-9 -32 -39 -32q-21 0 -29 22q-6 23 -20 53t-30.5 63t-22.5 46h-2q1 -46 1 -138q3 -6 3 -23q0 -40 -47 -40
q-20 0 -29.5 11t-9.5 28q0 5 4 13l3 8v266q-3 15 8.5 27t33.5 12q17 0 28 -10t13 -22q14 -39 53 -113.5t48 -101.5q9 27 54.5 103t60.5 116q10 28 40 28q17 0 30 -10t13 -26zM219 599v-223l7 -32q0 -20 -9 -27t-31 -7q-21 0 -36.5 10t-15.5 25q0 11 6 23v223l-78 -9
q-15 -9 -23 -9q-14 0 -22 8.5t-8 20.5q0 46 50 46l215 22q28 5 31 5q37 0 37 -32q1 -22 -11 -30t-35 -6z" />
    <glyph glyph-name="estimated" unicode="&#x212e;" horiz-adv-x="806" 
d="M774 310h-601q-5 0 -5 -4v-181q0 -11 9 -22q93 -98 227 -98q145 0 239 110h54q-52 -60 -129 -95t-165 -35q-154 0 -262.5 97.5t-108.5 236.5t108.5 236.5t262.5 97.5t262.5 -97.5t108.5 -236.5v-9zM638 334v182q0 14 -9 23q-92 94 -225 94t-227 -97q-9 -9 -9 -23v-179
q0 -5 5 -5h461q4 0 4 5z" />
    <glyph glyph-name="partialdiff" unicode="&#x2202;" horiz-adv-x="494" 
d="M191 64h1q29 0 59.5 14t59.5 43t47 82.5t18 124.5q-32 18 -86 18q-73 0 -126.5 -51t-53.5 -136q0 -44 22 -69.5t59 -25.5zM183 -18h-1q-47 0 -81.5 16.5t-52 43.5t-25.5 54.5t-8 56.5q0 118 76.5 196.5t207.5 78.5q36 0 65 -12q-13 69 -49.5 115.5t-83.5 46.5
q-34 0 -58 -9q-14 -22 -44 -22q-25 0 -37.5 17t-12.5 34q0 22 15 35t35 13q6 0 12 -2q44 14 89 14q63 0 112.5 -35t75.5 -88.5t39 -104.5t13 -94q0 -90 -25 -160t-67 -111t-91.5 -62t-103.5 -21z" />
    <glyph glyph-name="product" unicode="&#x220f;" horiz-adv-x="823" 
d="M255 544v-705q6 -12 6 -21q0 -25 -13.5 -39.5t-37.5 -14.5q-27 0 -41.5 14t-14.5 38q0 4 8 28v688l-66 -8q-14 -11 -33 -11q-22 0 -34.5 14.5t-12.5 35.5q0 23 14.5 40t39.5 17q16 0 32 -9l74 10q18 15 39 15q11 0 23 -7l482 61q16 11 36 11q29 0 41 -19t12 -36
q0 -19 -12.5 -34.5t-34.5 -15.5q-14 0 -29 9l-70 -9v-732q15 -17 15 -31q0 -21 -14.5 -36.5t-40.5 -15.5q-53 0 -53 66v737z" />
    <glyph glyph-name="summation" unicode="&#x2211;" horiz-adv-x="713" 
d="M505 647l-323 -4l223 -267q17 -6 26.5 -20t9.5 -28q0 -13 -7 -24.5t-20.5 -24t-17.5 -17.5l-239 -308l420 8q13 46 54 46q22 0 34 -14t12 -33q0 -41 -15 -66t-44 -25q-5 0 -35 5l-458 -8q-13 0 -30 -2.5t-23 -2.5q-54 0 -54 48q0 10 4 18t14.5 20t11.5 14l283 363
l-254 304q-22 25 -27.5 35t-5.5 20q0 41 57 43l399 6q14 16 34 16q43 0 49 -44q1 -6 6 -28t5 -32q0 -21 -12 -34t-29 -13q-28 0 -40 23q-5 12 -8 26z" />
    <glyph glyph-name="minus" unicode="&#x2212;" horiz-adv-x="554" 
d="M119 268h304l30 9q40 0 40 -52q0 -51 -40 -51q-19 0 -29 6h-305q-23 -7 -32 -7q-38 0 -38 43q0 57 42 57q15 0 28 -5z" />
    <glyph glyph-name="radical" unicode="&#x221a;" horiz-adv-x="549" 
d="M129 314l-70 -25q-25 -7 -28 -7q-49 0 -49 49q0 21 15 33t34 12q11 0 18 -3l69 25q3 9 14.5 17.5t25.5 8.5q12 0 23 -9q35 -5 35 -43q0 -6 -5 -18q18 -48 80 -154q44 -70 65 -126q10 107 57 342q37 186 49 293q-10 16 -10 35q0 50 60 50q21 0 36.5 -12.5t15.5 -32.5
q0 -7 -7 -25t-8 -23q-14 -120 -53 -322q-63 -339 -69 -434q-1 -8 1 -20.5t2 -18.5q0 -17 -14.5 -29.5t-34.5 -12.5q-39 0 -52 41l-9 30q-27 82 -86 182q-78 135 -105 197z" />
    <glyph glyph-name="infinity" unicode="&#x221e;" horiz-adv-x="713" 
d="M540 101h-1q-94 0 -177 80q-4 4 -10.5 10t-9.5 9q-28 -32 -48 -49q-53 -48 -123 -48q-69 0 -106 44t-37 109q0 58 36 100t109 42q86 0 167 -73q34 32 51 44q77 58 165 58q63 0 100 -45t37 -118q0 -65 -43 -114t-110 -49zM537 188h1q26 0 47 22t21 53q0 34 -16 55.5
t-43 21.5q-37 0 -64 -12.5t-58 -41.5q-11 -9 -23 -23q7 -9 16 -16q64 -59 119 -59zM171 190h1q38 0 85 45q3 3 11 11.5t13 13.5q-53 51 -108 51q-27 0 -42.5 -16t-15.5 -43q0 -30 15 -46t41 -16z" />
    <glyph glyph-name="integral" unicode="&#x222b;" horiz-adv-x="274" 
d="M192 439v-210q0 -253 -27 -352q-29 -141 -129 -141q-62 0 -87 51q-22 15 -22 39q0 21 16 36t39 15q19 0 32 -10.5t13 -29.5q0 -1 -0.5 -5t-0.5 -5q6 -10 14 -10q30 0 44 100q17 97 17 316v205q0 161 24 236q16 51 43.5 71.5t70.5 20.5q39 0 63.5 -21t24.5 -47
q0 -24 -12.5 -38.5t-33.5 -14.5q-28 0 -36 19q-1 2 -2.5 6.5t-2.5 6.5q-5 5 -13 5q-17 0 -25 -47q-10 -50 -10 -196z" />
    <glyph glyph-name="approxequal" unicode="&#x2248;" horiz-adv-x="554" 
d="M384 262h-1q-29 0 -109 20q-66 18 -97 18q-25 0 -47 -12q-14 -26 -46 -26q-24 0 -36.5 15.5t-12.5 33.5q0 26 15.5 42.5t38.5 16.5q7 0 17 -2q33 18 72 18q29 0 95 -17q70 -19 101 -19t56 14q14 24 45 24q22 0 35 -16t13 -37q0 -19 -14 -36t-33 -17q-6 0 -14 2
q-39 -22 -78 -22zM384 63h-1q-33 0 -109 21q-66 18 -97 18q-25 0 -47 -13q-14 -26 -46 -26q-24 0 -36.5 15.5t-12.5 34.5q0 26 15.5 42.5t38.5 16.5q7 0 17 -2q33 18 72 18q29 0 95 -17q66 -20 101 -20q30 0 56 13q15 25 45 25q22 0 35 -16t13 -37q0 -19 -14 -36t-33 -17
q-10 0 -14 1q-40 -21 -78 -21z" />
    <glyph glyph-name="notequal" unicode="&#x2260;" horiz-adv-x="554" 
d="M117 70l19 27h-27q-14 -7 -24 -7q-38 0 -38 43q0 57 42 57q16 0 28 -5h70l65 99h-135q-23 -7 -32 -7q-38 0 -38 43q0 57 42 57q16 0 28 -5h186l48 75q4 49 38 49q23 0 43 -15.5t20 -35.5q0 -23 -28 -42l-22 -31h30q16 9 24 9q40 0 40 -52q0 -51 -40 -51q-18 0 -29 6h-76
l-65 -99h140q3 1 9.5 3.5t11.5 4t9 1.5q40 0 40 -52q0 -51 -40 -51q-18 0 -29 6h-192l-44 -70q-4 -49 -37 -49q-23 0 -43.5 15.5t-20.5 35.5q0 21 27 41z" />
    <glyph glyph-name="lessequal" unicode="&#x2264;" horiz-adv-x="554" 
d="M192 332l219 -118q24 0 35.5 -5.5t11.5 -22.5q0 -21 -19 -46.5t-38 -25.5q-28 0 -37 26l-241 137q-31 17 -40.5 32t-9.5 38t31 37l258 117q-1 13 13 25t30 12q25 0 43.5 -20.5t18.5 -33.5q0 -46 -48 -49zM128 80h285q14 12 28 12q19 0 32 -15t13 -39q0 -20 -13.5 -35.5
t-28.5 -15.5q-20 0 -26 13h-283q-15 -16 -36 -16q-15 0 -26.5 15.5t-11.5 37.5q0 25 12.5 39.5t27.5 14.5q18 0 27 -11z" />
    <glyph glyph-name="greaterequal" unicode="&#x2265;" horiz-adv-x="554" 
d="M348 332l-227 103q-48 3 -48 49q0 13 18.5 33.5t43.5 20.5q16 0 30 -12t13 -25l258 -117q31 -12 31 -36q0 -23 -9.5 -38.5t-40.5 -31.5l-241 -138q-9 -26 -37 -26q-19 0 -38 25.5t-19 46.5q0 30 47 28zM121 80h285q14 12 28 12q19 0 32 -15t13 -39q0 -20 -13.5 -35.5
t-28.5 -15.5q-20 0 -26 13h-283q-15 -16 -36 -16q-15 0 -26.5 15.5t-11.5 37.5q0 25 12.5 39.5t27.5 14.5q18 0 27 -11z" />
    <glyph glyph-name="lozenge" unicode="&#x25ca;" horiz-adv-x="494" 
d="M240 -18h-1q-42 0 -53 46q-11 42 -61 127q-45 77 -91 149q-3 4 -9.5 13.5t-9.5 15t-6 13t-3 14.5q0 8 3.5 17.5t7 15t11 16t9.5 13.5q6 11 43.5 69t57.5 92q51 85 57 116q12 53 53 53q22 0 38.5 -14t12.5 -40q5 -15 15.5 -37.5t30 -55t32.5 -53.5t39.5 -63t33.5 -53
q31 -49 31 -64q0 -10 -4.5 -19.5t-13.5 -20.5t-11 -14q-7 -12 -49 -77t-61 -98q-44 -80 -53 -115q-10 -46 -49 -46zM237 129h1q23 50 76 133q48 76 69 112q-9 17 -60 100.5t-75 131.5q-28 -59 -81 -142.5t-63 -101.5q12 -23 61 -104q48 -76 72 -129z" />
    <glyph glyph-name="uniEFED" unicode="&#xefed;" 
d="M170 693h-1q-44 0 -44 48q0 39 16 65t43 26q46 0 46 -46q0 -42 -17.5 -67.5t-42.5 -25.5z" />
    <glyph glyph-name="uniEFEE" unicode="&#xefee;" 
d="M165 678h-1q-51 0 -87 37t-36 75t37 38q33 0 33 -31q0 -19 14.5 -36t38.5 -17q55 0 73 45q-4 8 -4 19t12.5 18t27.5 7q16 0 26 -8.5t10 -22.5q0 -18 -8 -27q-37 -97 -136 -97z" />
    <glyph glyph-name="uniEFF1" unicode="&#xeff1;" 
d="M157 -203h-1q-45 0 -74 24t-29 69q0 56 43 100.5t83 47.5q1 6 12 10t23 4t21 -8t9 -20q0 -15 -9.5 -25t-24.5 -10q-17 0 -37.5 -12t-34.5 -29q-20 -26 -20 -57q0 -16 12.5 -26t30.5 -10q37 0 46 19q-2 6 -2 10q0 17 30 17q32 0 32 -35q0 -25 -30.5 -47t-79.5 -22z" />
    <glyph glyph-name="uniEFF2" unicode="&#xeff2;" 
d="M225 13v-1q0 -20 -16 -24l-25 -42q30 1 50 -19.5t20 -58.5q0 -47 -33 -78.5t-88 -31.5q-27 0 -44 14q-7 -5 -16 -5q-8 0 -15 11t-7 24q0 15 10.5 27.5t21.5 12.5q6 0 12 -4.5t6 -9.5q16 -9 34 -9q28 0 44.5 13t16.5 33q0 28 -26 28q-6 0 -16 -5q-4 -7 -23 -7
q-10 0 -17 7.5t-7 18.5q0 19 13 30l52 83q0 10 7 17t17 7q11 0 20 -10t9 -21z" />
    <glyph glyph-name="uniEFF3" unicode="&#xeff3;" 
d="M175 679h-1q-30 0 -49.5 25.5t-19.5 65.5q0 34 34 60t61 26q34 0 56 -22.5t22 -65.5q0 -40 -34 -64.5t-69 -24.5zM181 730h1q15 0 29 10.5t14 26.5q0 38 -24 38q-16 0 -29.5 -11t-13.5 -29q0 -35 23 -35z" />
    <glyph glyph-name="uniEFF5" unicode="&#xeff5;" 
d="M232 703h-1q-42 0 -72 36q-21 23 -35 23q-26 0 -37 -31q-11 -23 -34 -23q-20 0 -29.5 10t-9.5 25q0 5 7 13.5t8 9.5q20 33 42 46.5t58 13.5q25 0 59 -30q30 -30 48 -30q14 0 21.5 11t6.5 24q-1 15 9.5 22t25.5 7q16 0 27 -8.5t11 -18.5q0 -8 -5 -18q-12 -40 -35 -61
t-65 -21z" />
    <glyph glyph-name="uniEFF7" unicode="&#xeff7;" 
d="M223 837l65 -91q20 -18 20 -34q0 -15 -12 -25.5t-32 -10.5q-15 0 -23 11t-6 24l-52 74l-70 -76q1 -14 -8 -23.5t-22 -9.5q-18 0 -30 12t-12 25q0 19 24 36l85 95q19 21 35 21q21 0 38 -28z" />
    <glyph glyph-name="uniF629" unicode="&#xf629;" horiz-adv-x="350" 
d="M191 259v-127q28 6 39 24q-5 32 31 32q45 0 45 -27q0 -32 -34 -59.5t-81 -37.5v-51q10 -12 10 -21q0 -29 -42 -29t-42 24q0 16 9 27v44q-26 0 -46 4q-34 4 -58 31t-24 66q0 118 128 155v32q-10 7 -10 19q0 13 14 21.5t38 8.5q15 0 24.5 -9t9.5 -22q0 -12 -11 -17v-23
q12 2 25 2q34 0 59.5 -16.5t25.5 -37.5q0 -17 -15.5 -27t-31.5 -10q-19 0 -24 11q-4 12 -22 13q-8 2 -17 0zM75 174v-1q0 -39 25 -45q14 -4 26 -4v121q-51 -21 -51 -71z" />
    <glyph glyph-name="uniF62A" unicode="&#xf62a;" horiz-adv-x="360" 
d="M191 18v-26q5 -15 5 -21q0 -15 -12 -27.5t-26 -12.5q-16 0 -28.5 9t-12.5 25q0 7 7 21v25q-58 1 -93.5 25.5t-35.5 53.5q0 12 12 21.5t26 9.5q22 0 29 -18q7 -24 62 -27v85q-24 -8 -49 -8q-30 0 -54 20t-24 56q0 53 40.5 89t86.5 44v19q-4 12 -4 19q0 11 9 19.5t26 8.5
q39 0 39 -25q0 -8 -4 -18v-15q41 -1 69 -11t38 -21t10 -21q0 -18 -9.5 -28.5t-22.5 -10.5q-21 0 -30 14q-8 12 -55 12v-57q30 6 44 6q33 0 58.5 -20t25.5 -72q0 -54 -38.5 -91.5t-88.5 -51.5zM124 230v67q-48 -13 -50 -53q0 -22 18 -22q8 0 32 8zM190 179v-92q48 16 48 63
q0 34 -23 34q-13 0 -25 -5z" />
    <glyph glyph-name="uniF62B" unicode="&#xf62b;" horiz-adv-x="234" 
d="M130 111l-67 -7q-12 -14 -31 -14q-12 0 -22 13.5t-10 32.5q0 22 11 35t24 13t21 -8l70 6q11 9 22 9q17 0 28.5 -12.5t11.5 -33.5q0 -19 -11.5 -31.5t-24.5 -12.5q-16 0 -22 10z" />
    <glyph glyph-name="uniF62C" unicode="&#xf62c;" horiz-adv-x="234" 
d="M128 438h1q22 0 40.5 -16t18.5 -46q0 -17 -12.5 -26t-26.5 -7q-54 -44 -54 -177q0 -137 54 -181q13 6 24.5 -5.5t11.5 -31.5q0 -26 -14.5 -38.5t-28.5 -12.5q-30 0 -47 21q-44 45 -64.5 113.5t-20.5 137.5q0 71 24.5 134.5t60.5 102.5q2 13 12 22.5t21 9.5z" />
    <glyph glyph-name="uniF62D" unicode="&#xf62d;" horiz-adv-x="234" 
d="M62 438h1q10 0 19 -8.5t13 -23.5q83 -86 83 -237q0 -68 -19.5 -136.5t-63.5 -113.5q-19 -22 -48 -22q-14 0 -28 12.5t-14 38.5q0 20 11.5 31.5t23.5 5.5q29 23 41 65.5t12 115.5q0 137 -53 177q-14 -2 -26.5 7t-12.5 26q0 25 13 40t25 18.5t23 3.5z" />
    <glyph glyph-name="uniF62E" unicode="&#xf62e;" horiz-adv-x="350" 
d="M214 527v-127q28 6 39 24q-5 32 31 32q45 0 45 -27q0 -32 -34 -59.5t-81 -37.5v-51q10 -13 10 -21q0 -29 -42 -29t-42 24q0 16 9 27v44q-26 0 -46 4q-34 4 -58 31t-24 66q0 118 128 155v32q-10 8 -10 19q0 13 14 21.5t38 8.5q15 0 24.5 -9t9.5 -22q0 -12 -11 -17v-23
q12 2 25 2q34 0 59.5 -16.5t25.5 -37.5q0 -17 -15.5 -27t-31.5 -10q-19 0 -24 11q-4 12 -22 13q-8 2 -17 0zM98 442v-1q0 -39 25 -45q14 -4 26 -4v121q-51 -21 -51 -71z" />
    <glyph glyph-name="uniF62F" unicode="&#xf62f;" horiz-adv-x="360" 
d="M214 286v-26q5 -15 5 -21q0 -15 -12 -27.5t-26 -12.5q-16 0 -28.5 9t-12.5 25q0 7 7 21v25q-58 1 -93.5 25.5t-35.5 53.5q0 12 12 21.5t26 9.5q22 0 29 -18q7 -24 62 -27v85q-24 -8 -49 -8q-30 0 -54 20t-24 56q0 53 40.5 89t86.5 44v19q-4 12 -4 19q0 11 9 19.5t26 8.5
q39 0 39 -25q0 -8 -4 -18v-15q41 -1 69 -11t38 -21t10 -21q0 -18 -9.5 -28.5t-22.5 -10.5q-21 0 -30 14q-8 12 -55 12v-57q30 6 44 6q33 0 58.5 -20t25.5 -72q0 -54 -38.5 -91.5t-88.5 -51.5zM147 498v67q-48 -13 -50 -53q0 -22 18 -22q8 0 32 8zM213 447v-92q48 16 48 63
q0 34 -23 34q-13 0 -25 -5z" />
    <glyph glyph-name="uniF630" unicode="&#xf630;" horiz-adv-x="234" 
d="M153 379l-67 -7q-12 -14 -31 -14q-12 0 -22 13.5t-10 32.5q0 22 11 35t24 13t21 -8l70 6q11 9 22 9q17 0 28.5 -12.5t11.5 -33.5q0 -19 -11.5 -31.5t-24.5 -12.5q-16 0 -22 10z" />
    <glyph glyph-name="uniF631" unicode="&#xf631;" horiz-adv-x="234" 
d="M151 706h1q22 0 40.5 -16t18.5 -46q0 -17 -12.5 -26t-26.5 -7q-54 -44 -54 -177q0 -137 54 -181q13 6 24.5 -5.5t11.5 -31.5q0 -26 -14.5 -38.5t-28.5 -12.5q-31 0 -47 21q-44 45 -64.5 113.5t-20.5 137.5q0 71 24.5 134.5t60.5 102.5q2 13 12 22.5t21 9.5z" />
    <glyph glyph-name="uniF632" unicode="&#xf632;" horiz-adv-x="234" 
d="M85 706h1q10 0 19 -8.5t13 -23.5q83 -86 83 -237q0 -68 -19.5 -136.5t-63.5 -113.5q-19 -22 -48 -22q-14 0 -28 12.5t-14 38.5q0 20 11.5 31.5t23.5 5.5q29 23 41 65.5t12 115.5q0 137 -53 177q-14 -2 -26.5 7t-12.5 26q0 25 13 40t25 18.5t23 3.5z" />
    <glyph glyph-name="uniF633" unicode="&#xf633;" horiz-adv-x="804" 
d="M259 57h1q83 0 141 34q5 23 31 23q19 0 35 -12.5t16 -28.5q0 -18 -16 -30.5t-39 -10.5q-76 -39 -172 -39q-104 0 -166.5 56.5t-62.5 178.5q0 74 38 153.5t101.5 144.5t155 107t188.5 42q256 0 256 -270q0 -147 -60 -221t-138 -74q-45 0 -67 23t-22 57q0 8 1 20t3 26.5
t3 21.5h-2q-34 -49 -94 -91t-119 -42q-39 0 -63 25t-24 71q0 111 100 215t202 104q17 0 34 -5q3 20 31 20q20 0 31.5 -8.5t11.5 -21.5q0 -5 -5 -23l-32 -287q-4 -44 26 -44q36 0 72 57.5t36 164.5q0 106 -38.5 162.5t-142.5 56.5q-84 0 -162 -37.5t-130.5 -94.5t-84 -123.5
t-31.5 -126.5q0 -173 157 -173zM301 203h1q48 0 125.5 79.5t77.5 143.5v14q0 29 -28 29q-63 0 -132.5 -76.5t-69.5 -146.5q0 -43 26 -43z" />
    <glyph glyph-name="uniF634" unicode="&#xf634;" 
d="M130 -241h-1q-26 0 -26 24q0 28 35 33q19 2 30.5 16t11.5 37q0 19 -13 25q-43 -7 -43 32q0 30 33 30q34 0 58 -24t24 -63q0 -51 -35 -80.5t-74 -29.5z" />
    <glyph glyph-name="uniF635" unicode="&#xf635;" 
d="M130 -241h-1q-26 0 -26 24q0 28 35 33q19 2 30.5 16t11.5 37q0 19 -13 25q-43 -7 -43 32q0 30 33 30q34 0 58 -24t24 -63q0 -51 -35 -80.5t-74 -29.5z" />
    <glyph glyph-name="uniF638" unicode="&#xf638;" horiz-adv-x="656" 
d="M601 562l-12 -16q33 -53 33 -128q0 -82 -20 -151t-54 -114.5t-73.5 -79.5t-82.5 -52.5t-77.5 -27t-62.5 -8.5q-92 0 -149 51l-6 -8q-2 -17 -11.5 -28.5t-24.5 -11.5q-19 0 -34 14t-15 34q0 29 41 35l11 15q-29 52 -29 129q0 112 34 199.5t87.5 137.5t113 75.5t118.5 25.5
q89 0 159 -58l7 9q1 17 10.5 30.5t25.5 13.5q21 0 36 -14t15 -34q0 -13 -12 -23.5t-28 -14.5zM144 170l339 360q-39 40 -99 40q-43 0 -85 -19.5t-79.5 -59t-60.5 -109.5t-23 -161q0 -27 8 -51zM513 467l-341 -362q30 -36 79 -36q29 0 63 10t71.5 35.5t67.5 62.5t50 98
t20 135q0 30 -10 57z" />
    <glyph glyph-name="uniF639" unicode="&#xf639;" horiz-adv-x="656" 
d="M386 653h1q41 0 80.5 -14t74.5 -41t56.5 -74t21.5 -107q0 -97 -29 -175.5t-72 -125t-95.5 -77.5t-96 -42.5t-77.5 -11.5q-98 0 -157 59.5t-59 170.5q0 90 22.5 165t58.5 124.5t83 84t94.5 49.5t93.5 15zM384 569h-1q-43 0 -85 -19.5t-79.5 -59t-60.5 -109.5t-23 -161
q0 -77 32.5 -114t82.5 -37q29 0 62.5 10t71 35.5t67.5 62.5t50 97.5t20 134.5q0 75 -36.5 117.5t-100.5 42.5z" />
    <glyph glyph-name="uniF63A" unicode="&#xf63a;" horiz-adv-x="553" 
d="M522 57v-1q0 -31 -8 -43.5t-30 -12.5h-362q-17 -13 -50 -13q-20 0 -31.5 8.5t-11.5 17.5q0 56 55 142q26 41 62 76t55 49t64 41t46 27q92 54 92 143q0 40 -26 61t-71 21q-61 0 -97 -20.5t-61 -61.5q-2 -3 -2 -24q0 -11 -17 -23.5t-40 -12.5q-26 0 -41.5 15t-15.5 36
q0 13 9 25.5t20 12.5q40 71 101.5 102t154.5 31q84 0 134.5 -43t50.5 -115q0 -85 -39 -132.5t-104 -81.5q-73 -40 -125.5 -86.5t-81.5 -114.5h277q0 33 9.5 46t41.5 13q21 0 31.5 -18.5t10.5 -63.5z" />
    <glyph glyph-name="uniF63B" unicode="&#xf63b;" horiz-adv-x="608" 
d="M378 568h-234v-33q7 -8 7 -27q0 -13 -16.5 -25.5t-36.5 -12.5q-24 0 -37 10t-13 23q0 30 12 35v69q0 18 11 29.5t32 11.5h362q44 0 44 -34q0 -26 -26 -54l-131 -133q25 7 65 7q60 0 104.5 -44.5t44.5 -120.5q0 -142 -103.5 -213t-264.5 -71q-71 0 -120 40.5t-49 113.5
q0 26 17.5 44t42.5 18t37.5 -12.5t12.5 -28.5q0 -12 -3 -18t-8.5 -9t-6.5 -4q16 -63 99 -63q109 0 178.5 50.5t69.5 140.5q0 39 -22.5 69.5t-63.5 30.5q-50 0 -89.5 -13.5t-63.5 -27t-38 -13.5q-19 0 -30.5 15.5t-11.5 36.5q0 20 12.5 28t37.5 17t42 26z" />
    <glyph glyph-name="uniF63C" unicode="&#xf63c;" horiz-adv-x="614" 
d="M355 195l-273 -39q-15 -12 -42 -12q-47 0 -47 53q0 11 9.5 23t20.5 19l320 371q1 15 17 26.5t41 11.5q26 0 41.5 -13.5t15.5 -32.5q0 -25 -8 -34v-275l89 14q13 13 28 11q43 0 43 -48q0 -27 -11.5 -42.5t-28.5 -15.5q-16 0 -28 10l-92 -12v-140q14 -12 14 -28
q0 -48 -73 -48q-45 0 -45 41q0 19 9 26v134zM355 278v231l-226 -264z" />
    <glyph glyph-name="uniF63D" unicode="&#xf63d;" horiz-adv-x="614" 
d="M482 562h-1q-14 0 -27 9l-288 -20q0 -17 -5 -80.5t-10 -90.5q46 33 91 50t69.5 20t57.5 3q38 0 73 -9t66.5 -28t50 -55.5t18.5 -85.5q0 -72 -32.5 -130.5t-83.5 -91.5t-105 -50.5t-105 -17.5q-125 0 -185 67q-32 8 -32 41q0 61 55 61q43 0 43 -46q0 -7 11.5 -16.5
t37.5 -18t60 -8.5q101 0 169.5 57.5t68.5 138.5q0 52 -32 82t-92 30q-52 0 -97 -16.5t-69.5 -36.5t-49.5 -37t-42 -17q-20 0 -33.5 10.5t-13.5 27.5q0 9 7.5 37.5t9.5 47.5q10 96 10 209q0 28 40 30l321 23q26 13 42 13q24 0 36.5 -14.5t12.5 -37.5q0 -50 -47 -50z" />
    <glyph glyph-name="uniF63E" unicode="&#xf63e;" horiz-adv-x="646" 
d="M293 -16h-1q-59 0 -103.5 21.5t-91.5 70.5q-20 -2 -34.5 20.5t-4.5 48.5q-25 53 -25 113q0 71 27.5 144t74 131t114 95t141.5 37q76 0 127.5 -30.5t51.5 -76.5q0 -21 -15.5 -33.5t-38.5 -12.5q-29 0 -40 16t-5 31q-15 26 -88 26q-70 0 -130 -50.5t-92 -121t-32 -137.5
q0 -26 7 -49q56 82 135 138.5t160 56.5q94 0 139.5 -46t45.5 -106q0 -68 -31 -124.5t-79.5 -90.5t-103.5 -52.5t-108 -18.5zM287 64h1q32 0 69.5 12t73.5 35t59.5 63.5t23.5 91.5q0 28 -22.5 52t-66.5 24q-66 0 -135 -56t-124 -137q15 -36 49.5 -60.5t71.5 -24.5z" />
    <glyph glyph-name="uniF63F" unicode="&#xf63f;" horiz-adv-x="507" 
d="M116 554v-38q8 -8 8 -20q0 -15 -18.5 -27.5t-41.5 -11.5q-19 0 -31.5 12t-12.5 24q0 13 10 25v73q0 21 10 31t39 11l317 11q27 1 35 17q9 15 37 15q22 0 37.5 -11t15.5 -26q0 -35 -22 -52q-56 -97 -145 -283q-106 -212 -123 -255q1 -34 -13 -50t-48 -16q-22 0 -33.5 14.5
t-11.5 37.5q0 14 29 74l230 459q-27 -5 -50 -6z" />
    <glyph glyph-name="uniF640" unicode="&#xf640;" horiz-adv-x="660" 
d="M211 -11h-1q-61 0 -121 41t-60 111q0 67 46.5 129.5t98.5 90.5v2q-58 29 -58 103q0 95 69.5 147t171.5 52q76 0 119.5 -32t43.5 -80q0 -33 -14.5 -67.5t-36.5 -53.5l1 -2q33 -1 66.5 -13t62 -45t28.5 -79q0 -78 -69 -150t-165 -113t-182 -41zM423 524v1q0 63 -85 63
q-56 0 -92 -31.5t-36 -84.5q0 -29 14 -47t33 -20q47 18 117 27q20 16 34.5 43t14.5 49zM406 351h-1q-101 0 -190 -63.5t-89 -143.5q0 -29 32 -51.5t58 -22.5q65 0 138 31.5t123 82.5t50 101q0 28 -32.5 47t-88.5 19z" />
    <glyph glyph-name="uniF641" unicode="&#xf641;" horiz-adv-x="630" 
d="M357 658h1q111 0 187 -101q17 -6 26.5 -25.5t9.5 -38.5q0 -12 -4 -19q16 -64 16 -107q0 -166 -103 -275.5t-241 -109.5q-133 0 -195 110q-10 2 -17.5 12.5t-7.5 23.5q0 29 18.5 43t39.5 14q32 0 46 -18.5t6 -37.5q13 -28 42.5 -47.5t62.5 -19.5q72 0 131.5 42.5
t90.5 103.5t31 122q0 24 -3 43h-2q-28 -44 -98 -77.5t-142 -33.5q-80 0 -138 52t-58 98q0 118 82.5 182t218.5 64zM349 578h-1q-84 0 -138.5 -40.5t-54.5 -116.5q0 -25 38.5 -52t69.5 -27q77 0 144.5 46t67.5 98q0 33 -36.5 62.5t-89.5 29.5z" />
    <glyph glyph-name="uniF643" unicode="&#xf643;" horiz-adv-x="525" 
d="M489 258v-1q0 -105 -83 -189.5t-190 -84.5q-88 0 -135 51t-47 135q0 107 81 193t181 86q83 0 138 -53t55 -137zM394 259v1q0 48 -27.5 79t-74.5 31q-58 0 -110.5 -59.5t-52.5 -140.5q0 -51 26.5 -80t64.5 -29q64 0 119 61.5t55 136.5z" />
    <glyph glyph-name="uniF644" unicode="&#xf644;" horiz-adv-x="525" 
d="M372 401v-349q7 -9 7 -21q0 -16 -15.5 -26.5t-45.5 -10.5q-48 0 -48 35q0 17 9 27v282l-111 -56q-14 -26 -38 -26q-19 0 -32.5 14.5t-13.5 36.5q0 32 37 44l169 82q4 2 11.5 8t15.5 9.5t16 3.5q19 0 30.5 -10.5t11.5 -24.5q0 -12 -3 -18z" />
    <glyph glyph-name="uniF645" unicode="&#xf645;" horiz-adv-x="525" 
d="M472 73l-10 -42q-3 -15 -16 -24t-31 -9q-17 0 -27 5l-257 -6q-21 -8 -34 -8q-19 0 -30 10.5t-11 28.5q0 22 40 51q134 96 186 160q37 46 37 83q0 24 -17.5 38.5t-50.5 14.5q-54 0 -89 -30l-2 -10q-6 -16 -19.5 -27t-30.5 -11q-20 0 -32.5 13.5t-12.5 35.5q0 35 39 55
q66 51 152 51q75 0 117.5 -34t42.5 -89q0 -77 -85 -160q-43 -46 -111 -97l166 8q1 2 2.5 5.5t2.5 5.5q14 28 44 28q20 0 30.5 -13t6.5 -33z" />
    <glyph glyph-name="uniF646" unicode="&#xf646;" horiz-adv-x="525" 
d="M164 227l45 10q37 18 75 56.5t38 63.5q0 23 -32 23q-62 0 -110 -37q-18 -33 -46 -33q-20 0 -31 13.5t-11 33.5q0 32 46 48q81 53 172 53q47 0 75.5 -22t28.5 -58q0 -69 -78 -135q3 1 6 0q49 -3 84.5 -36.5t35.5 -89.5q0 -108 -96.5 -197.5t-198.5 -89.5q-52 0 -83.5 24.5
t-31.5 60.5q0 22 14.5 35.5t37.5 13.5q19 0 29.5 -10.5t10.5 -24.5q0 -2 -0.5 -5.5t-0.5 -5.5q6 -8 25 -8q67 0 133.5 65.5t66.5 132.5q0 29 -20.5 46t-59.5 17q-33 0 -64 -11q-35 -13 -51 -13q-20 0 -30.5 11t-10.5 30q0 28 32 39z" />
    <glyph glyph-name="uniF647" unicode="&#xf647;" horiz-adv-x="525" 
d="M390 51v-157q8 -14 8 -31q0 -19 -18 -31t-43 -12q-24 0 -36.5 9.5t-12.5 24.5q0 20 10 37v151l-209 -18q-15 -5 -19 -5q-46 0 -46 45q0 17 21 42l253 303q4 7 6 16q8 31 47 31q47 0 47 -42q0 -6 -4 -21t-4 -20v-245l41 4q12 14 29 14q43 0 43 -41q0 -23 -10.5 -38.5
t-31.5 -15.5q-14 0 -22 4zM298 119v175l-159 -191z" />
    <glyph glyph-name="uniF648" unicode="&#xf648;" horiz-adv-x="525" 
d="M204 357l-23 -117q50 32 108 32q76 0 120 -44t44 -117q0 -113 -82 -197t-181 -84q-63 0 -101 25t-38 63q0 21 14 33t32 13q30 0 42 -28q1 -2 2 -5t2 -5.5t2 -4.5q7 -11 39 -11q61 0 118.5 57.5t57.5 141.5q0 39 -21.5 61t-56.5 22q-64 0 -119 -53q-22 -24 -40 -24
q-19 0 -31 9.5t-12 25.5q0 8 3.5 19t4.5 14l38 196q-3 24 10.5 41t37.5 17q4 0 20 -2l180 11q18 9 34 9q19 0 30 -13t11 -32q0 -23 -12 -35.5t-31 -12.5q-12 0 -23 7z" />
    <glyph glyph-name="uniF649" unicode="&#xf649;" horiz-adv-x="525" 
d="M481 248v-1q0 -100 -73.5 -178t-171.5 -78q-47 0 -86.5 23.5t-61.5 67.5q-22 11 -25 33q-3 8 -1 19q-14 56 -14 100q0 159 94.5 272.5t206.5 113.5q48 0 77 -20.5t29 -54.5q0 -48 -42 -48q-37 0 -44 30q-2 6 -2 10q-8 5 -24 5q-62 0 -121.5 -66.5t-76.5 -167.5
q-2 -10 0 -16q32 53 81 83t105 30q70 0 110 -43t40 -114zM388 246v1q0 35 -19.5 56t-52.5 21q-48 0 -98.5 -46.5t-67.5 -106.5q5 -47 29.5 -74.5t58.5 -27.5q64 0 107 53.5t43 123.5z" />
    <glyph glyph-name="uniF64A" unicode="&#xf64a;" horiz-adv-x="525" 
d="M155 347l-4 -24q4 -8 4 -17q0 -20 -15 -31.5t-39 -11.5q-19 0 -31.5 10.5t-12.5 28.5q0 12 6 23l10 52q5 27 15 38t38 13l260 16q8 0 13 5q16 14 38 14q18 0 29.5 -10.5t11.5 -24.5q0 -28 -24 -59q-10 -14 -121.5 -240t-116.5 -244q-15 -59 -54 -59q-21 0 -33.5 13.5
t-12.5 35.5t26 72l209 415q-6 -2 -13 -2z" />
    <glyph glyph-name="uniF64B" unicode="&#xf64b;" horiz-adv-x="525" 
d="M489 271v-1q0 -54 -28.5 -110t-74.5 -97q-88 -81 -187 -81q-77 0 -120 39t-43 112q0 60 30 112t81 89q-52 33 -52 101q0 76 60 129.5t134 53.5q67 0 107.5 -32t40.5 -92q0 -55 -53 -101q47 -10 76 -43t29 -79zM348 489v1q0 24 -16.5 37.5t-44.5 13.5q-43 0 -73 -29
t-30 -73q0 -23 12.5 -37.5t30.5 -16.5q17 3 20 4q30 9 41 10q60 32 60 90zM394 257v1q0 30 -19 48.5t-58 18.5q-49 0 -100 -32q-38 -27 -62.5 -73t-24.5 -88q0 -33 19.5 -51t50.5 -18q67 0 131 62q63 65 63 132z" />
    <glyph glyph-name="uniF64C" unicode="&#xf64c;" horiz-adv-x="525" 
d="M474 191v-1q0 -86 -33 -169.5t-103 -143.5t-160 -60q-52 0 -84.5 20t-32.5 52q0 19 12.5 32.5t32.5 13.5q29 0 39 -23q2 -6 2 -9q13 -7 38 -7q61 0 117.5 62t69.5 151v6t1 6q-19 -30 -45 -49q-56 -40 -133 -40q-66 0 -106.5 41t-40.5 116q0 106 70.5 181.5t165.5 75.5
q129 0 171 -130q19 -14 19 -38q0 -10 -3 -23q3 -35 3 -64zM279 367h-1q-53 0 -95 -49t-42 -123q0 -37 19.5 -58.5t52.5 -21.5q51 0 98 36q47 40 64 90q-5 57 -31 91.5t-65 34.5z" />
    <glyph glyph-name="uniF64E" unicode="&#xf64e;" horiz-adv-x="525" 
d="M330 138l-158 -8q15 -35 47 -54t73 -19q94 0 131 50q20 29 43 29t35 -13t12 -27q0 -12 -17 -31.5t-44 -37.5q-63 -44 -160 -44q-89 0 -146 38t-72 104h-16q-13 -10 -25 -10q-33 0 -33 38q0 16 9.5 25.5t23.5 9.5q4 0 18 -4h16q0 19 5 42h-13q-13 -8 -28 -8t-23.5 10
t-8.5 25q0 18 9 27.5t23 9.5q9 0 21 -5l37 1q33 76 105.5 122t158.5 46q68 0 116 -27q43 -26 43 -61q0 -18 -16 -30.5t-36 -12.5q-14 0 -25 10t-14 26q-26 22 -69 22q-46 0 -87.5 -24.5t-69.5 -65.5l166 8q16 12 30 12q17 0 25.5 -11.5t8.5 -26.5q0 -16 -8.5 -26.5
t-23.5 -10.5q-14 0 -23 4l-206 -10q-5 -17 -7 -41l167 8q13 8 30 8q14 0 23 -9.5t9 -24.5q0 -17 -9 -27t-25 -10q-13 0 -22 4z" />
    <glyph glyph-name="uniF64F" unicode="&#xf64f;" horiz-adv-x="525" 
d="M313 284l76 6q5 9 23 9q15 0 24 -10t9 -26q0 -21 -10.5 -36.5t-26.5 -15.5q-3 0 -18 6l-92 -6q-27 -136 -51.5 -204.5t-57 -95.5t-85.5 -27q-75 0 -96 67q-14 6 -14 31q0 19 12 32t32 13t32 -8t12 -21q0 -10 -4 -14q6 -25 31 -25q18 0 31 15.5t29.5 70.5t36.5 160l-57 -3
q-7 -5 -18 -5q-13 0 -21.5 13t-8.5 32q0 14 10.5 25.5t24.5 11.5q6 0 19 -5l65 4q42 213 172 213q43 0 67 -28t24 -49q0 -16 -10.5 -30t-27.5 -14q-38 0 -36 24q1 10 -6 16t-20 6q-18 0 -37.5 -31.5t-32.5 -100.5z" />
    <glyph glyph-name="uniF650" unicode="&#xf650;" horiz-adv-x="525" 
d="M343 343l14 56q-10 23 2 41.5t45 18.5q47 0 47 -43q0 -10 -6.5 -20t-14.5 -12l-11 -41h32q12 4 25 4q16 0 27.5 -9.5t11.5 -26.5q0 -48 -35 -48q-19 0 -25 11h-52l-24 -93h39q15 5 25 5q17 0 28.5 -8.5t11.5 -24.5q0 -52 -35 -52q-18 0 -26 11h-60l-16 -62q7 -16 7 -30
q0 -15 -14.5 -26t-37.5 -11q-52 0 -52 45q0 27 23 37l13 47h-89l-17 -62q7 -12 7 -30q0 -15 -14.5 -26t-36.5 -11q-53 0 -53 43q0 14 7.5 25t15.5 14l13 47h-36q-14 -10 -34 -10q-16 0 -27 11t-11 27q0 53 38 53q19 0 31 -12h56l24 93h-45q-15 -11 -34 -11q-16 0 -27 11
t-12 26q0 24 10 39.5t28 15.5q21 0 32 -12h65l15 56q-10 23 2 41.5t45 18.5q47 0 47 -43q0 -10 -6.5 -20t-14.5 -12l-10 -41h89zM325 274h-88l-24 -93h89z" />
    <glyph glyph-name="uniF651" unicode="&#xf651;" horiz-adv-x="525" 
d="M350 212l-140 -6q-8 -74 -49 -115q37 1 99.5 -15t90.5 -16q47 0 74 40q-3 4 -3 13q0 34 32 34q23 0 38 -14.5t15 -32.5q0 -21 -16 -27q-45 -87 -143 -87q-31 0 -93.5 17.5t-106.5 17.5q-32 0 -67 -11q-32 -14 -58 -14q-12 0 -21 13.5t-9 31.5t8.5 26t26.5 13q43 13 61 39
q25 33 31 82q-40 -4 -61 -4q-13 0 -22 12t-9 29q0 12 10 21t25 10l65 4q19 202 174 202q57 0 105 -33q10 1 20.5 -7.5t10.5 -19.5q0 -28 -16 -40.5t-36 -12.5q-11 0 -19 6.5t-8 14.5q-28 16 -62 16q-36 0 -54 -27.5t-25 -93.5l131 6q12 6 25 6q12 0 19.5 -12.5t7.5 -26.5
q0 -24 -10 -35.5t-21 -11.5q-12 0 -20 8z" />
    <glyph glyph-name="uniF652" unicode="&#xf652;" horiz-adv-x="525" 
d="M209 41v20l-64 -3q-22 -12 -33 -12q-33 0 -33 36q0 15 9.5 25.5t22.5 10.5q14 0 26 -3l72 4v40l-64 -4q-20 -10 -34 -10q-17 0 -24.5 8t-7.5 28q0 15 10 25.5t22 10.5q18 0 31 -5l67 3v12q-20 26 -82 68t-86 77q-28 12 -28 44q0 20 19 33t38 13q16 1 28.5 -10t12.5 -27
q12 -23 70 -67.5t75 -67.5h2q23 24 72 58.5t68 55.5q14 14 17 24q6 17 16 25.5t31 8.5q20 0 32 -10.5t12 -29.5q0 -21 -24 -50q-4 -5 -30 -31q-20 -17 -74.5 -52t-75.5 -60v-9l87 5q14 9 31 9q12 0 20.5 -9.5t8.5 -24.5q0 -36 -41 -36q-9 0 -17 4l-89 -5v-40l87 4q13 8 31 8
q12 0 20.5 -9t8.5 -23q0 -38 -38 -38q-12 0 -20 4l-89 -3v-25q9 -15 9 -25q0 -19 -16 -31t-47 -12q-25 -1 -37 8t-12 33q0 19 10 27z" />
    <glyph glyph-name="uniF653" unicode="&#xf653;" horiz-adv-x="525" 
d="M294 11v-38q8 -19 8 -25q0 -16 -13 -30t-29 -14q-17 0 -31 10.5t-14 27.5q0 4 1.5 9.5t4 10t2.5 5.5v37q-72 1 -115 31t-43 66q0 15 13.5 25.5t29.5 10.5q24 0 31 -23q8 -34 84 -40v122q-38 -12 -68 -12t-58 23t-28 68q0 64 48.5 107.5t105.5 54.5v24q-4 16 -4 22
q0 13 9.5 22t27.5 9q43 0 43 -27q0 -7 -5 -20v-24q49 0 83 -11.5t46 -24.5t12 -26q0 -22 -12.5 -34t-29.5 -12q-24 0 -35 21q-14 18 -64 18v-81q24 8 55 8q15 0 29.5 -4t32.5 -14.5t28.5 -35.5t10.5 -62q0 -67 -51 -114t-105 -60zM223 272v94q-31 -6 -51.5 -27.5
t-20.5 -48.5q0 -29 27 -29q16 0 45 11zM294 218v-134q31 8 52 34t21 59q0 49 -36 49q-17 0 -37 -8z" />
    <glyph glyph-name="uniF654" unicode="&#xf654;" horiz-adv-x="525" 
d="M295 336v-175q43 10 56 33q-5 37 34 37q49 0 49 -31q0 -37 -40.5 -68.5t-98.5 -47.5v-73q0 -1 3.5 -5t5.5 -8.5t2 -8.5q0 -13 -11.5 -22t-34.5 -9q-43 0 -43 26q0 12 8 28v64q-6 -1 -21 -1q-53 0 -93 34.5t-40 90.5q0 72 43 122t111 71v47q-10 10 -10 19q0 13 15.5 23
t41.5 10q35 0 35 -35q0 -9 -12 -16v-37q13 3 33 3q43 0 72 -20.5t29 -43.5q0 -19 -18 -30.5t-34 -11.5q-25 0 -30 16q-6 21 -29 21q-9 0 -23 -2zM225 151v167q-68 -31 -68 -104q0 -31 15 -48t36 -17q7 0 17 2z" />
    <glyph glyph-name="uniF655" unicode="&#xf655;" horiz-adv-x="431" 
d="M157 -14h-1q-64 0 -105 36t-41 103q0 64 22 115t57 80.5t74.5 44.5t78.5 15q66 0 112.5 -39.5t46.5 -102.5q0 -69 -26.5 -121.5t-66.5 -79t-78.5 -39t-72.5 -12.5zM164 53h1q52 0 98.5 46t46.5 135q0 37 -20.5 58t-53.5 21q-54 0 -94.5 -47.5t-40.5 -135.5
q0 -38 18 -57.5t45 -19.5z" />
    <glyph glyph-name="uniF656" unicode="&#xf656;" horiz-adv-x="242" 
d="M167 325v-259q0 -2 2 -14.5t2 -18.5q0 -19 -19 -30t-53 -11q-39 0 -39 25q0 9 3.5 17t11 19.5t8.5 12.5v195q-2 0 -21 -16.5t-29 -16.5q-13 0 -23 8.5t-10 22.5q0 22 52 61q16 12 33.5 28.5t28 24t21.5 7.5q15 0 28 -8t13 -21q0 -5 -9 -26z" />
    <glyph glyph-name="uniF657" unicode="&#xf657;" horiz-adv-x="380" 
d="M95 59l129 5q17 0 17 4q1 16 12 26.5t28 10.5q44 0 44 -47q0 -55 -44 -56l-222 -10q-32 -2 -46 7.5t-14 31.5q0 59 37.5 97t101.5 67q87 37 87 89q0 30 -45 30q-23 0 -37 -6.5t-18.5 -13.5t-9.5 -19q-4 -14 -7 -20t-14.5 -12.5t-32.5 -6.5q-18 0 -30 10t-12 22
q0 38 42.5 75t134.5 37q55 0 88 -22t33 -66q0 -52 -32 -85t-89 -59q-49 -23 -73 -43t-28 -46z" />
    <glyph glyph-name="uniF658" unicode="&#xf658;" horiz-adv-x="413" 
d="M239 310l-125 -15q0 -46 -40 -46q-36 0 -36 58q0 50 37 50q28 0 117.5 11.5t103.5 11.5q39 0 39 -35q0 -25 -63 -96q40 2 66 -23.5t26 -72.5q0 -78 -63 -125t-154 -47q-36 0 -65.5 11t-46 26.5t-25 29t-8.5 22.5q0 15 14.5 28t35.5 13q23 0 36 -27q15 -37 67 -37t85.5 28
t33.5 68q0 46 -40 46q-31 0 -46.5 -19.5t-32.5 -19.5q-14 0 -23.5 7.5t-9.5 20.5q0 31 37 42q30 10 80 90z" />
    <glyph glyph-name="uniF659" unicode="&#xf659;" horiz-adv-x="414" 
d="M294 321v-145l50 6q10 10 23 12q32 0 32 -39q0 -38 -29 -38q-17 0 -26 6l-50 -6v-59q16 -8 16 -24q0 -42 -69 -42q-20 0 -31 11t-11 23q0 19 9 25v56l-156 -19q-21 -6 -28 -6q-35 0 -35 43q0 18 25 37l189 198q7 26 55 26q18 0 31.5 -9.5t13.5 -24.5q0 -17 -9 -31z
M208 166v117l-127 -133z" />
    <glyph glyph-name="uniF65A" unicode="&#xf65a;" horiz-adv-x="403" 
d="M278 314l-169 -12q-1 -9 -3.5 -30.5t-3.5 -32.5q52 29 123 29q140 0 140 -107q0 -78 -70.5 -126.5t-151.5 -48.5q-63 0 -99 20.5t-36 53.5q0 14 13.5 25t29.5 11q23 0 37 -20q22 -24 59 -24q54 0 91 27.5t37 70.5q0 52 -62 52q-53 0 -99 -24q-13 -5 -30 -16
q-14 -9 -26 -9q-39 0 -39 32q0 7 4 21.5t5 23.5q2 17 7 54.5t7 55.5q1 24 32 26l202 13q14 12 28 12q17 0 28 -12.5t11 -30.5q0 -21 -10.5 -32.5t-24.5 -11.5q-16 0 -30 10z" />
    <glyph glyph-name="uniF65B" unicode="&#xf65b;" horiz-adv-x="425" 
d="M172 -14h-1q-73 0 -123 51q-16 2 -26 16.5t-5 31.5q-15 30 -15 64q0 90 68 164t169 74q57 0 89.5 -17.5t32.5 -42.5q0 -16 -12 -26t-29 -10q-18 0 -41 19q-15 11 -46 11q-57 0 -98.5 -45t-47.5 -98q-1 -8 2 -16q33 37 80 63t91 26q61 0 92.5 -28.5t31.5 -66.5
q0 -54 -35.5 -94t-82.5 -58t-94 -18zM176 52h1q42 0 80 26.5t38 68.5q0 15 -11 26.5t-30 11.5q-33 0 -73 -25t-71 -65q7 -17 26.5 -30t39.5 -13z" />
    <glyph glyph-name="uniF65C" unicode="&#xf65c;" horiz-adv-x="333" 
d="M224 309l-137 -13l-2 -18q10 -8 10 -17q0 -13 -14.5 -22.5t-37.5 -9.5q-38 0 -36 37q1 10 3.5 31t3.5 31q2 17 9.5 24t27.5 9l194 17q10 1 27 8.5t26 7.5q16 0 28 -8.5t12 -22.5q0 -7 -20 -42l-131 -242q-4 -9 -12.5 -30.5t-12.5 -30.5q-16 -34 -49 -34q-17 0 -28.5 11.5
t-11.5 26.5q0 9 4 19t13.5 23t10.5 15z" />
    <glyph glyph-name="uniF65D" unicode="&#xf65d;" horiz-adv-x="433" 
d="M129 -11h-1q-54 0 -88.5 25.5t-34.5 69.5q0 37 25 70.5t57 53.5q-35 14 -35 55q0 57 50 90.5t117 33.5q50 0 84.5 -21.5t34.5 -52.5q0 -34 -27 -61q33 -5 60 -27t27 -56q0 -69 -82 -124.5t-187 -55.5zM213 323h-1q-30 0 -52 -15.5t-22 -38.5t19 -30q28 10 69 15
q26 14 26 44q0 11 -11 18t-28 7zM140 55h1q54 0 110.5 32t56.5 73q0 12 -13 21.5t-43 9.5q-53 0 -105 -31t-52 -74q0 -13 13.5 -22t31.5 -9z" />
    <glyph glyph-name="uniF65E" unicode="&#xf65e;" horiz-adv-x="413" 
d="M216 383h1q72 0 123 -58q11 -4 19.5 -15.5t8.5 -24.5q0 -9 -3 -15q10 -23 10 -58q0 -98 -67 -163.5t-163 -65.5q-51 0 -92 21t-41 53q0 14 10 24t26 10q25 0 41 -20q6 -8 23.5 -15t35.5 -7q57 0 96 39t45 88v18q-23 -28 -61 -44.5t-81 -16.5q-59 0 -94 30.5t-35 72.5
q0 63 57.5 105t140.5 42zM210 317h-1q-46 0 -75 -20.5t-29 -54.5q0 -18 13.5 -30.5t36.5 -12.5q39 0 74 19.5t51 47.5q-6 20 -25.5 35.5t-44.5 15.5z" />
    <glyph glyph-name="uniF65F" unicode="&#xf65f;" horiz-adv-x="137" 
d="M15 -81h-1q-25 0 -25 21q0 20 24 20q44 0 46 40q-10 -8 -22 -8q-15 0 -22.5 12.5t-7.5 27.5q0 53 47 53q45 0 45 -70q0 -45 -27 -70.5t-57 -25.5z" />
    <glyph glyph-name="uniF660" unicode="&#xf660;" horiz-adv-x="137" 
d="M48 -9h-1q-15 0 -27.5 12t-12.5 33q0 19 13.5 35t36.5 16q42 0 42 -46q0 -20 -12.5 -35t-38.5 -15z" />
    <glyph glyph-name="uniF661" unicode="&#xf661;" horiz-adv-x="431" 
d="M180 254h-1q-64 0 -105 36t-41 103q0 64 22 115t57 80.5t74.5 44.5t78.5 15q66 0 112.5 -39.5t46.5 -102.5q0 -69 -26.5 -121.5t-66.5 -79t-78.5 -39t-72.5 -12.5zM187 321h1q52 0 98.5 46t46.5 135q0 37 -20.5 58t-53.5 21q-54 0 -94.5 -47.5t-40.5 -135.5
q0 -38 18 -57.5t45 -19.5z" />
    <glyph glyph-name="uniF662" unicode="&#xf662;" horiz-adv-x="242" 
d="M190 593v-259q0 -2 2 -14.5t2 -18.5q0 -19 -19 -30t-53 -11q-39 0 -39 25q0 9 3.5 17t11 19.5t8.5 12.5v195q-2 0 -21 -16.5t-29 -16.5q-13 0 -23 8.5t-10 22.5q0 22 52 61q16 12 33.5 28.5t28 24t21.5 7.5q15 0 28 -8t13 -21q0 -5 -9 -26z" />
    <glyph glyph-name="uniF663" unicode="&#xf663;" horiz-adv-x="380" 
d="M118 327l129 5q17 0 17 4q1 16 12 26.5t28 10.5q44 0 44 -47q0 -55 -44 -56l-222 -10q-32 -2 -46 7.5t-14 31.5q0 59 37.5 97t101.5 67q87 37 87 89q0 30 -45 30q-23 0 -37 -6.5t-18.5 -13.5t-9.5 -19q-4 -14 -7 -20t-14.5 -12.5t-32.5 -6.5q-18 0 -30 10t-12 22
q0 38 42.5 75t134.5 37q55 0 88 -22t33 -66q0 -52 -32 -85t-89 -59q-49 -23 -73 -43t-28 -46z" />
    <glyph glyph-name="uniF664" unicode="&#xf664;" horiz-adv-x="413" 
d="M262 578l-125 -15q0 -46 -40 -46q-36 0 -36 58q0 50 37 50q28 0 117.5 11.5t103.5 11.5q39 0 39 -35q0 -25 -63 -96q40 2 66 -23.5t26 -72.5q0 -78 -63 -125t-154 -47q-36 0 -65.5 11t-46 26.5t-25 29t-8.5 22.5q0 15 14.5 28t35.5 13q23 0 36 -27q15 -37 67 -37t85.5 28
t33.5 68q0 46 -40 46q-31 0 -46.5 -19.5t-32.5 -19.5q-14 0 -23.5 7.5t-9.5 20.5q0 31 37 42q30 10 80 90z" />
    <glyph glyph-name="uniF665" unicode="&#xf665;" horiz-adv-x="414" 
d="M317 589v-145l50 6q10 10 23 12q32 0 32 -39q0 -38 -29 -38q-17 0 -26 6l-50 -6v-59q16 -8 16 -24q0 -42 -69 -42q-20 0 -31 11t-11 23q0 19 9 25v56l-156 -19q-21 -6 -28 -6q-35 0 -35 43q0 18 25 37l189 198q6 26 55 26q18 0 31.5 -9.5t13.5 -24.5q0 -17 -9 -31z
M231 434v117l-127 -133z" />
    <glyph glyph-name="uniF666" unicode="&#xf666;" horiz-adv-x="403" 
d="M301 582l-169 -12q-1 -9 -3.5 -30.5t-3.5 -32.5q52 29 123 29q140 0 140 -107q0 -78 -70.5 -126.5t-151.5 -48.5q-63 0 -99 20.5t-36 53.5q0 14 13.5 25t29.5 11q23 0 37 -20q22 -24 59 -24q54 0 91 27.5t37 70.5q0 52 -62 52q-53 0 -99 -24q-13 -6 -30 -16
q-14 -9 -26 -9q-39 0 -39 32q0 7 4 21.5t5 23.5q2 17 7 54.5t7 55.5q1 24 32 26l202 13q14 12 28 12q17 0 28 -12.5t11 -30.5q0 -21 -10.5 -32.5t-24.5 -11.5q-16 0 -30 10z" />
    <glyph glyph-name="uniF667" unicode="&#xf667;" horiz-adv-x="425" 
d="M195 254h-1q-73 0 -123 51q-16 2 -26 16.5t-5 31.5q-15 30 -15 64q0 90 68 164t169 74q57 0 89.5 -17.5t32.5 -42.5q0 -16 -12 -26t-29 -10q-18 0 -41 19q-15 11 -46 11q-57 0 -98.5 -45t-47.5 -98q-1 -8 2 -16q33 37 80 63t91 26q61 0 92.5 -28.5t31.5 -66.5
q0 -54 -35.5 -94t-82.5 -58t-94 -18zM199 320h1q42 0 80 26.5t38 68.5q0 15 -11 26.5t-30 11.5q-33 0 -73 -25t-71 -65q7 -17 26.5 -30t39.5 -13z" />
    <glyph glyph-name="uniF668" unicode="&#xf668;" horiz-adv-x="333" 
d="M247 577l-137 -13l-2 -18q10 -8 10 -17q0 -13 -14.5 -22.5t-37.5 -9.5q-38 0 -36 37q1 11 3.5 31.5t3.5 30.5q2 17 9.5 24t27.5 9l194 17q10 1 27 8.5t26 7.5q16 0 28 -8.5t12 -22.5q0 -7 -20 -42l-131 -242q-4 -9 -12.5 -30.5t-12.5 -30.5q-16 -34 -49 -34
q-17 0 -28.5 11.5t-11.5 26.5q0 9 4 19t13.5 23t10.5 15z" />
    <glyph glyph-name="uniF669" unicode="&#xf669;" horiz-adv-x="433" 
d="M152 257h-1q-54 0 -88.5 25.5t-34.5 69.5q0 37 25 70.5t57 53.5q-35 14 -35 55q0 57 50 90.5t117 33.5q50 0 84.5 -21.5t34.5 -52.5q0 -34 -27 -61q33 -5 60 -27t27 -56q0 -69 -82 -124.5t-187 -55.5zM236 591h-1q-30 0 -52 -15.5t-22 -38.5t19 -30q28 10 69 15
q26 14 26 44q0 11 -11 18t-28 7zM163 323h1q54 0 110.5 32t56.5 73q0 12 -13 21.5t-43 9.5q-53 0 -105 -31t-52 -74q0 -13 13.5 -22t31.5 -9z" />
    <glyph glyph-name="uniF66A" unicode="&#xf66a;" horiz-adv-x="413" 
d="M239 651h1q72 0 123 -58q11 -4 19.5 -15.5t8.5 -24.5q0 -9 -3 -15q10 -23 10 -58q0 -98 -67 -163.5t-163 -65.5q-51 0 -92 21t-41 53q0 14 10 24t26 10q25 0 41 -20q6 -8 23.5 -15t35.5 -7q57 0 96 39t45 88v18q-23 -28 -61 -44.5t-81 -16.5q-59 0 -94 30.5t-35 72.5
q0 63 57.5 105t140.5 42zM233 585h-1q-46 0 -75 -20.5t-29 -54.5q0 -18 13.5 -30.5t36.5 -12.5q39 0 74 19.5t51 47.5q-6 20 -25.5 35.5t-44.5 15.5z" />
    <glyph glyph-name="uniF66B" unicode="&#xf66b;" horiz-adv-x="137" 
d="M38 187h-1q-25 0 -25 21q0 20 24 20q44 0 46 40q-10 -8 -22 -8q-15 0 -22.5 12.5t-7.5 27.5q0 53 47 53q45 0 45 -70q0 -45 -27 -70.5t-57 -25.5z" />
    </font>
</defs>
</svg>
